<svg xmlns="http://www.w3.org/2000/svg" version="1.1" xmlns:xlink="http://www.w3.org/1999/xlink" xmlns:svgjs="http://svgjs.com/svgjs" width="2560" height="1025" preserveAspectRatio="none" viewBox="0 0 2560 1025">
    <g mask="url(&quot;#SvgjsMask1057&quot;)" fill="none">
        <g>
            <path d="M1992 408L1992 456L2136 600L2136 1032" stroke-width="8" stroke="rgba(69, 0, 131, 0.04)"></path>
            <path d="M1984 408 a8 8 0 1 0 16 0 a8 8 0 1 0 -16 0zM2128 1032 a8 8 0 1 0 16 0 a8 8 0 1 0 -16 0z" fill="rgba(69, 0, 131, 0.04)"></path>
            <path d="M456 24L408 24L360 72L24 72" stroke-width="8" stroke="rgba(69, 0, 131, 0.04)"></path>
            <path d="M448 24 a8 8 0 1 0 16 0 a8 8 0 1 0 -16 0zM16 72 a8 8 0 1 0 16 0 a8 8 0 1 0 -16 0z" fill="rgba(69, 0, 131, 0.04)"></path>
            <path d="M1080 120L1080 216L840 456L840 840L888 888L1032 888" stroke-width="8" stroke="rgba(69, 0, 131, 0.04)"></path>
            <path d="M1072 120 a8 8 0 1 0 16 0 a8 8 0 1 0 -16 0zM1024 888 a8 8 0 1 0 16 0 a8 8 0 1 0 -16 0z" fill="rgba(69, 0, 131, 0.04)"></path>
            <path d="M1368 360L984 360L888 456L888 840" stroke-width="8" stroke="rgba(69, 0, 131, 0.04)"></path>
            <path d="M1360 360 a8 8 0 1 0 16 0 a8 8 0 1 0 -16 0zM880 840 a8 8 0 1 0 16 0 a8 8 0 1 0 -16 0z" fill="rgba(69, 0, 131, 0.04)"></path>
            <path d="M984 744L1320 408L1800 408L1896 312" stroke-width="8" stroke="rgba(69, 0, 131, 0.04)"></path>
            <path d="M976 744 a8 8 0 1 0 16 0 a8 8 0 1 0 -16 0zM1888 312 a8 8 0 1 0 16 0 a8 8 0 1 0 -16 0z" fill="rgba(69, 0, 131, 0.04)"></path>
            <path d="M648 984L744 888L744 552L648 456L648 120L600 72" stroke-width="8" stroke="rgba(69, 0, 131, 0.04)"></path>
            <path d="M640 984 a8 8 0 1 0 16 0 a8 8 0 1 0 -16 0zM592 72 a8 8 0 1 0 16 0 a8 8 0 1 0 -16 0z" fill="rgba(69, 0, 131, 0.04)"></path>
            <path d="M2424 696L2472 744L2472 1032" stroke-width="8" stroke="rgba(69, 0, 131, 0.04)"></path>
            <path d="M2416 696 a8 8 0 1 0 16 0 a8 8 0 1 0 -16 0zM2464 1032 a8 8 0 1 0 16 0 a8 8 0 1 0 -16 0z" fill="rgba(69, 0, 131, 0.04)"></path>
            <path d="M1752 648L1560 456L1320 456L936 840" stroke-width="8" stroke="rgba(69, 0, 131, 0.04)"></path>
            <path d="M1744 648 a8 8 0 1 0 16 0 a8 8 0 1 0 -16 0zM928 840 a8 8 0 1 0 16 0 a8 8 0 1 0 -16 0z" fill="rgba(69, 0, 131, 0.04)"></path>
            <path d="M2280 936L2184 1032" stroke-width="8" stroke="rgba(69, 0, 131, 0.04)"></path>
            <path d="M2272 936 a8 8 0 1 0 16 0 a8 8 0 1 0 -16 0zM2176 1032 a8 8 0 1 0 16 0 a8 8 0 1 0 -16 0z" fill="rgba(69, 0, 131, 0.04)"></path>
            <path d="M1992 696L1848 840L1848 1032" stroke-width="8" stroke="rgba(69, 0, 131, 0.04)"></path>
            <path d="M1984 696 a8 8 0 1 0 16 0 a8 8 0 1 0 -16 0zM1840 1032 a8 8 0 1 0 16 0 a8 8 0 1 0 -16 0z" fill="rgba(69, 0, 131, 0.04)"></path>
            <path d="M792 792L792 24" stroke-width="8" stroke="rgba(69, 0, 131, 0.04)"></path>
            <path d="M784 792 a8 8 0 1 0 16 0 a8 8 0 1 0 -16 0zM784 24 a8 8 0 1 0 16 0 a8 8 0 1 0 -16 0z" fill="rgba(69, 0, 131, 0.04)"></path>
            <path d="M2184 888L2328 888L2424 984L2424 1032" stroke-width="8" stroke="rgba(69, 0, 131, 0.04)"></path>
            <path d="M2176 888 a8 8 0 1 0 16 0 a8 8 0 1 0 -16 0zM2416 1032 a8 8 0 1 0 16 0 a8 8 0 1 0 -16 0z" fill="rgba(69, 0, 131, 0.04)"></path>
            <path d="M936 120L1032 120L1128 24L1272 24L1560 312L1560 360" stroke-width="8" stroke="rgba(69, 0, 131, 0.04)"></path>
            <path d="M928 120 a8 8 0 1 0 16 0 a8 8 0 1 0 -16 0zM1552 360 a8 8 0 1 0 16 0 a8 8 0 1 0 -16 0z" fill="rgba(69, 0, 131, 0.04)"></path>
            <path d="M2424 120L2328 24L1512 24" stroke-width="8" stroke="rgba(69, 0, 131, 0.04)"></path>
            <path d="M2416 120 a8 8 0 1 0 16 0 a8 8 0 1 0 -16 0zM1504 24 a8 8 0 1 0 16 0 a8 8 0 1 0 -16 0z" fill="rgba(69, 0, 131, 0.04)"></path>
            <path d="M984 1032L984 936" stroke-width="8" stroke="rgba(69, 0, 131, 0.04)"></path>
            <path d="M976 1032 a8 8 0 1 0 16 0 a8 8 0 1 0 -16 0zM976 936 a8 8 0 1 0 16 0 a8 8 0 1 0 -16 0z" fill="rgba(69, 0, 131, 0.04)"></path>
            <path d="M2040 696L2088 648L2088 600L1944 456L1608 456" stroke-width="8" stroke="rgba(69, 0, 131, 0.04)"></path>
            <path d="M2032 696 a8 8 0 1 0 16 0 a8 8 0 1 0 -16 0zM1600 456 a8 8 0 1 0 16 0 a8 8 0 1 0 -16 0z" fill="rgba(69, 0, 131, 0.04)"></path>
            <path d="M408 984L120 984L24 888L24 360" stroke-width="8" stroke="rgba(69, 0, 131, 0.04)"></path>
            <path d="M400 984 a8 8 0 1 0 16 0 a8 8 0 1 0 -16 0zM16 360 a8 8 0 1 0 16 0 a8 8 0 1 0 -16 0z" fill="rgba(69, 0, 131, 0.04)"></path>
            <path d="M1080 264L1176 168L1368 168L1512 312L1512 360" stroke-width="8" stroke="rgba(69, 0, 131, 0.04)"></path>
            <path d="M1072 264 a8 8 0 1 0 16 0 a8 8 0 1 0 -16 0zM1504 360 a8 8 0 1 0 16 0 a8 8 0 1 0 -16 0z" fill="rgba(69, 0, 131, 0.04)"></path>
            <path d="M2568 264L2472 168L2280 168L2184 72L2136 72L1944 264L1944 312L1848 408" stroke-width="8" stroke="rgba(69, 0, 131, 0.04)"></path>
            <path d="M2560 264 a8 8 0 1 0 16 0 a8 8 0 1 0 -16 0zM1840 408 a8 8 0 1 0 16 0 a8 8 0 1 0 -16 0z" fill="rgba(69, 0, 131, 0.04)"></path>
            <path d="M1224 792L1512 504L1560 504L1848 792" stroke-width="8" stroke="rgba(69, 0, 131, 0.04)"></path>
            <path d="M1216 792 a8 8 0 1 0 16 0 a8 8 0 1 0 -16 0zM1840 792 a8 8 0 1 0 16 0 a8 8 0 1 0 -16 0z" fill="rgba(69, 0, 131, 0.04)"></path>
            <path d="M1080 936L1176 936L1272 1032L1800 1032" stroke-width="8" stroke="rgba(69, 0, 131, 0.04)"></path>
            <path d="M1072 936 a8 8 0 1 0 16 0 a8 8 0 1 0 -16 0zM1792 1032 a8 8 0 1 0 16 0 a8 8 0 1 0 -16 0z" fill="rgba(69, 0, 131, 0.04)"></path>
            <path d="M264 216L168 120L24 120" stroke-width="8" stroke="rgba(69, 0, 131, 0.04)"></path>
            <path d="M256 216 a8 8 0 1 0 16 0 a8 8 0 1 0 -16 0zM16 120 a8 8 0 1 0 16 0 a8 8 0 1 0 -16 0z" fill="rgba(69, 0, 131, 0.04)"></path>
            <path d="M1032 216L840 216" stroke-width="8" stroke="rgba(69, 0, 131, 0.04)"></path>
            <path d="M1024 216 a8 8 0 1 0 16 0 a8 8 0 1 0 -16 0zM832 216 a8 8 0 1 0 16 0 a8 8 0 1 0 -16 0z" fill="rgba(69, 0, 131, 0.04)"></path>
            <path d="M1608 120L1656 72L1752 72L1896 216L1944 216L2088 72" stroke-width="8" stroke="rgba(69, 0, 131, 0.04)"></path>
            <path d="M1600 120 a8 8 0 1 0 16 0 a8 8 0 1 0 -16 0zM2080 72 a8 8 0 1 0 16 0 a8 8 0 1 0 -16 0z" fill="rgba(69, 0, 131, 0.04)"></path>
            <path d="M408 744L696 744" stroke-width="8" stroke="rgba(69, 0, 131, 0.04)"></path>
            <path d="M400 744 a8 8 0 1 0 16 0 a8 8 0 1 0 -16 0zM688 744 a8 8 0 1 0 16 0 a8 8 0 1 0 -16 0z" fill="rgba(69, 0, 131, 0.04)"></path>
            <path d="M2568 312L2472 216L2424 216L2136 504L2088 504L2040 456L2040 216L2136 120L2184 120" stroke-width="8" stroke="rgba(69, 0, 131, 0.04)"></path>
            <path d="M2560 312 a8 8 0 1 0 16 0 a8 8 0 1 0 -16 0zM2176 120 a8 8 0 1 0 16 0 a8 8 0 1 0 -16 0z" fill="rgba(69, 0, 131, 0.04)"></path>
            <path d="M2568 600L2328 360" stroke-width="8" stroke="rgba(69, 0, 131, 0.04)"></path>
            <path d="M2560 600 a8 8 0 1 0 16 0 a8 8 0 1 0 -16 0zM2320 360 a8 8 0 1 0 16 0 a8 8 0 1 0 -16 0z" fill="rgba(69, 0, 131, 0.04)"></path>
            <path d="M24 216L72 216L312 456L456 456L696 696" stroke-width="8" stroke="rgba(69, 0, 131, 0.04)"></path>
            <path d="M16 216 a8 8 0 1 0 16 0 a8 8 0 1 0 -16 0zM688 696 a8 8 0 1 0 16 0 a8 8 0 1 0 -16 0z" fill="rgba(69, 0, 131, 0.04)"></path>
            <path d="M648 696L264 696L72 504L72 408L120 360L120 312L72 264L24 264" stroke-width="8" stroke="rgba(69, 0, 131, 0.04)"></path>
            <path d="M640 696 a8 8 0 1 0 16 0 a8 8 0 1 0 -16 0zM16 264 a8 8 0 1 0 16 0 a8 8 0 1 0 -16 0z" fill="rgba(69, 0, 131, 0.04)"></path>
            <path d="M72 696L72 888L120 936L648 936L696 888L696 792" stroke-width="8" stroke="rgba(69, 0, 131, 0.04)"></path>
            <path d="M64 696 a8 8 0 1 0 16 0 a8 8 0 1 0 -16 0zM688 792 a8 8 0 1 0 16 0 a8 8 0 1 0 -16 0z" fill="rgba(69, 0, 131, 0.04)"></path>
            <path d="M1032 840L1080 888L1656 888L1752 792L1800 792" stroke-width="8" stroke="rgba(69, 0, 131, 0.04)"></path>
            <path d="M1024 840 a8 8 0 1 0 16 0 a8 8 0 1 0 -16 0zM1792 792 a8 8 0 1 0 16 0 a8 8 0 1 0 -16 0z" fill="rgba(69, 0, 131, 0.04)"></path>
            <path d="M1704 696L1704 792L1656 840L1080 840L1032 792" stroke-width="8" stroke="rgba(69, 0, 131, 0.04)"></path>
            <path d="M1696 696 a8 8 0 1 0 16 0 a8 8 0 1 0 -16 0zM1024 792 a8 8 0 1 0 16 0 a8 8 0 1 0 -16 0z" fill="rgba(69, 0, 131, 0.04)"></path>
            <path d="M1848 600L1944 696" stroke-width="8" stroke="rgba(69, 0, 131, 0.04)"></path>
            <path d="M1840 600 a8 8 0 1 0 16 0 a8 8 0 1 0 -16 0zM1936 696 a8 8 0 1 0 16 0 a8 8 0 1 0 -16 0z" fill="rgba(69, 0, 131, 0.04)"></path>
            <path d="M1368 936L1320 984L1272 984L1224 936" stroke-width="8" stroke="rgba(69, 0, 131, 0.04)"></path>
            <path d="M1360 936 a8 8 0 1 0 16 0 a8 8 0 1 0 -16 0zM1216 936 a8 8 0 1 0 16 0 a8 8 0 1 0 -16 0z" fill="rgba(69, 0, 131, 0.04)"></path>
            <path d="M2424 840L2184 840" stroke-width="8" stroke="rgba(69, 0, 131, 0.04)"></path>
            <path d="M2416 840 a8 8 0 1 0 16 0 a8 8 0 1 0 -16 0zM2176 840 a8 8 0 1 0 16 0 a8 8 0 1 0 -16 0z" fill="rgba(69, 0, 131, 0.04)"></path>
            <path d="M264 24L360 24" stroke-width="8" stroke="rgba(69, 0, 131, 0.04)"></path>
            <path d="M256 24 a8 8 0 1 0 16 0 a8 8 0 1 0 -16 0zM352 24 a8 8 0 1 0 16 0 a8 8 0 1 0 -16 0z" fill="rgba(69, 0, 131, 0.04)"></path>
            <path d="M1032 24L840 24" stroke-width="8" stroke="rgba(69, 0, 131, 0.04)"></path>
            <path d="M1024 24 a8 8 0 1 0 16 0 a8 8 0 1 0 -16 0zM832 24 a8 8 0 1 0 16 0 a8 8 0 1 0 -16 0z" fill="rgba(69, 0, 131, 0.04)"></path>
            <path d="M360 504L264 600L264 648" stroke-width="8" stroke="rgba(69, 0, 131, 0.04)"></path>
            <path d="M352 504 a8 8 0 1 0 16 0 a8 8 0 1 0 -16 0zM256 648 a8 8 0 1 0 16 0 a8 8 0 1 0 -16 0z" fill="rgba(69, 0, 131, 0.04)"></path>
            <path d="M1272 552L1080 744L1080 792" stroke-width="8" stroke="rgba(69, 0, 131, 0.04)"></path>
            <path d="M1264 552 a8 8 0 1 0 16 0 a8 8 0 1 0 -16 0zM1072 792 a8 8 0 1 0 16 0 a8 8 0 1 0 -16 0z" fill="rgba(69, 0, 131, 0.04)"></path>
            <path d="M1512 744L1416 648" stroke-width="8" stroke="rgba(69, 0, 131, 0.04)"></path>
            <path d="M1504 744 a8 8 0 1 0 16 0 a8 8 0 1 0 -16 0zM1408 648 a8 8 0 1 0 16 0 a8 8 0 1 0 -16 0z" fill="rgba(69, 0, 131, 0.04)"></path>
            <path d="M168 216L216 216L408 408L552 408L600 360L600 120L504 24" stroke-width="8" stroke="rgba(69, 0, 131, 0.04)"></path>
            <path d="M160 216 a8 8 0 1 0 16 0 a8 8 0 1 0 -16 0zM496 24 a8 8 0 1 0 16 0 a8 8 0 1 0 -16 0z" fill="rgba(69, 0, 131, 0.04)"></path>
            <path d="M984 504L1080 600" stroke-width="8" stroke="rgba(69, 0, 131, 0.04)"></path>
            <path d="M976 504 a8 8 0 1 0 16 0 a8 8 0 1 0 -16 0zM1072 600 a8 8 0 1 0 16 0 a8 8 0 1 0 -16 0z" fill="rgba(69, 0, 131, 0.04)"></path>
            <path d="M2184 648L2184 504L2280 408L2328 408L2568 648L2568 888" stroke-width="8" stroke="rgba(69, 0, 131, 0.04)"></path>
            <path d="M2176 648 a8 8 0 1 0 16 0 a8 8 0 1 0 -16 0zM2560 888 a8 8 0 1 0 16 0 a8 8 0 1 0 -16 0z" fill="rgba(69, 0, 131, 0.04)"></path>
            <path d="M2232 600L2472 600L2520 648L2520 888" stroke-width="8" stroke="rgba(69, 0, 131, 0.04)"></path>
            <path d="M2224 600 a8 8 0 1 0 16 0 a8 8 0 1 0 -16 0zM2512 888 a8 8 0 1 0 16 0 a8 8 0 1 0 -16 0z" fill="rgba(69, 0, 131, 0.04)"></path>
            <path d="M1944 600L1896 600L1800 504L1656 504" stroke-width="8" stroke="rgba(69, 0, 131, 0.04)"></path>
            <path d="M1936 600 a8 8 0 1 0 16 0 a8 8 0 1 0 -16 0zM1648 504 a8 8 0 1 0 16 0 a8 8 0 1 0 -16 0z" fill="rgba(69, 0, 131, 0.04)"></path>
            <path d="M1992 984L1896 888L1896 840L1992 744L2088 744" stroke-width="8" stroke="rgba(69, 0, 131, 0.04)"></path>
            <path d="M1984 984 a8 8 0 1 0 16 0 a8 8 0 1 0 -16 0zM2080 744 a8 8 0 1 0 16 0 a8 8 0 1 0 -16 0z" fill="rgba(69, 0, 131, 0.04)"></path>
            <path d="M552 1032L504 984L456 984L408 1032L24 1032" stroke-width="8" stroke="rgba(69, 0, 131, 0.04)"></path>
            <path d="M544 1032 a8 8 0 1 0 16 0 a8 8 0 1 0 -16 0zM16 1032 a8 8 0 1 0 16 0 a8 8 0 1 0 -16 0z" fill="rgba(69, 0, 131, 0.04)"></path>
            <path d="M1464 744L1416 696L1368 696L1272 792" stroke-width="8" stroke="rgba(69, 0, 131, 0.04)"></path>
            <path d="M1456 744 a8 8 0 1 0 16 0 a8 8 0 1 0 -16 0zM1264 792 a8 8 0 1 0 16 0 a8 8 0 1 0 -16 0z" fill="rgba(69, 0, 131, 0.04)"></path>
            <path d="M312 648L600 648" stroke-width="8" stroke="rgba(69, 0, 131, 0.04)"></path>
            <path d="M304 648 a8 8 0 1 0 16 0 a8 8 0 1 0 -16 0zM592 648 a8 8 0 1 0 16 0 a8 8 0 1 0 -16 0z" fill="rgba(69, 0, 131, 0.04)"></path>
            <path d="M2376 792L2184 792" stroke-width="8" stroke="rgba(69, 0, 131, 0.04)"></path>
            <path d="M2368 792 a8 8 0 1 0 16 0 a8 8 0 1 0 -16 0zM2176 792 a8 8 0 1 0 16 0 a8 8 0 1 0 -16 0z" fill="rgba(69, 0, 131, 0.04)"></path>
            <path d="M2472 72L2424 72L2376 24" stroke-width="8" stroke="rgba(69, 0, 131, 0.04)"></path>
            <path d="M2464 72 a8 8 0 1 0 16 0 a8 8 0 1 0 -16 0zM2368 24 a8 8 0 1 0 16 0 a8 8 0 1 0 -16 0z" fill="rgba(69, 0, 131, 0.04)"></path>
            <path d="M2088 216L2376 216" stroke-width="8" stroke="rgba(69, 0, 131, 0.04)"></path>
            <path d="M2080 216 a8 8 0 1 0 16 0 a8 8 0 1 0 -16 0zM2368 216 a8 8 0 1 0 16 0 a8 8 0 1 0 -16 0z" fill="rgba(69, 0, 131, 0.04)"></path>
            <path d="M2136 168L2232 168" stroke-width="8" stroke="rgba(69, 0, 131, 0.04)"></path>
            <path d="M2128 168 a8 8 0 1 0 16 0 a8 8 0 1 0 -16 0zM2224 168 a8 8 0 1 0 16 0 a8 8 0 1 0 -16 0z" fill="rgba(69, 0, 131, 0.04)"></path>
            <path d="M2328 264L2136 456L2088 456" stroke-width="8" stroke="rgba(69, 0, 131, 0.04)"></path>
            <path d="M2320 264 a8 8 0 1 0 16 0 a8 8 0 1 0 -16 0zM2080 456 a8 8 0 1 0 16 0 a8 8 0 1 0 -16 0z" fill="rgba(69, 0, 131, 0.04)"></path>
            <path d="M1752 840L1608 984L1560 984L1512 936L1416 936L1368 984" stroke-width="8" stroke="rgba(69, 0, 131, 0.04)"></path>
            <path d="M1744 840 a8 8 0 1 0 16 0 a8 8 0 1 0 -16 0zM1360 984 a8 8 0 1 0 16 0 a8 8 0 1 0 -16 0z" fill="rgba(69, 0, 131, 0.04)"></path>
            <path d="M1272 120L1128 120" stroke-width="8" stroke="rgba(69, 0, 131, 0.04)"></path>
            <path d="M1264 120 a8 8 0 1 0 16 0 a8 8 0 1 0 -16 0zM1120 120 a8 8 0 1 0 16 0 a8 8 0 1 0 -16 0z" fill="rgba(69, 0, 131, 0.04)"></path>
            <path d="M2568 72L2520 24L2424 24" stroke-width="8" stroke="rgba(69, 0, 131, 0.04)"></path>
            <path d="M2560 72 a8 8 0 1 0 16 0 a8 8 0 1 0 -16 0zM2416 24 a8 8 0 1 0 16 0 a8 8 0 1 0 -16 0z" fill="rgba(69, 0, 131, 0.04)"></path>
            <path d="M1800 168L1752 120L1656 120L1560 216L1512 216L1416 120L1416 24" stroke-width="8" stroke="rgba(69, 0, 131, 0.04)"></path>
            <path d="M1792 168 a8 8 0 1 0 16 0 a8 8 0 1 0 -16 0zM1408 24 a8 8 0 1 0 16 0 a8 8 0 1 0 -16 0z" fill="rgba(69, 0, 131, 0.04)"></path>
            <path d="M936 168L1032 168" stroke-width="8" stroke="rgba(69, 0, 131, 0.04)"></path>
            <path d="M928 168 a8 8 0 1 0 16 0 a8 8 0 1 0 -16 0zM1024 168 a8 8 0 1 0 16 0 a8 8 0 1 0 -16 0z" fill="rgba(69, 0, 131, 0.04)"></path>
            <path d="M1416 744L1464 792L1656 792" stroke-width="8" stroke="rgba(69, 0, 131, 0.04)"></path>
            <path d="M1408 744 a8 8 0 1 0 16 0 a8 8 0 1 0 -16 0zM1648 792 a8 8 0 1 0 16 0 a8 8 0 1 0 -16 0z" fill="rgba(69, 0, 131, 0.04)"></path>
            <path d="M1512 696L1464 648L1464 600L1512 552L1560 552L1656 648L1656 744" stroke-width="8" stroke="rgba(69, 0, 131, 0.04)"></path>
            <path d="M1504 696 a8 8 0 1 0 16 0 a8 8 0 1 0 -16 0zM1648 744 a8 8 0 1 0 16 0 a8 8 0 1 0 -16 0z" fill="rgba(69, 0, 131, 0.04)"></path>
            <path d="M1560 264L1608 216L1848 216L1896 264" stroke-width="8" stroke="rgba(69, 0, 131, 0.04)"></path>
            <path d="M1552 264 a8 8 0 1 0 16 0 a8 8 0 1 0 -16 0zM1888 264 a8 8 0 1 0 16 0 a8 8 0 1 0 -16 0z" fill="rgba(69, 0, 131, 0.04)"></path>
            <path d="M2184 360L2136 408L2088 408" stroke-width="8" stroke="rgba(69, 0, 131, 0.04)"></path>
            <path d="M2176 360 a8 8 0 1 0 16 0 a8 8 0 1 0 -16 0zM2080 408 a8 8 0 1 0 16 0 a8 8 0 1 0 -16 0z" fill="rgba(69, 0, 131, 0.04)"></path>
            <path d="M1032 600L1032 648L936 744L936 792" stroke-width="8" stroke="rgba(69, 0, 131, 0.04)"></path>
            <path d="M1024 600 a8 8 0 1 0 16 0 a8 8 0 1 0 -16 0zM928 792 a8 8 0 1 0 16 0 a8 8 0 1 0 -16 0z" fill="rgba(69, 0, 131, 0.04)"></path>
            <path d="M1992 120L1944 168L1896 168L1800 72" stroke-width="8" stroke="rgba(69, 0, 131, 0.04)"></path>
            <path d="M1984 120 a8 8 0 1 0 16 0 a8 8 0 1 0 -16 0zM1792 72 a8 8 0 1 0 16 0 a8 8 0 1 0 -16 0z" fill="rgba(69, 0, 131, 0.04)"></path>
            <path d="M1176 72L1272 72" stroke-width="8" stroke="rgba(69, 0, 131, 0.04)"></path>
            <path d="M1168 72 a8 8 0 1 0 16 0 a8 8 0 1 0 -16 0zM1264 72 a8 8 0 1 0 16 0 a8 8 0 1 0 -16 0z" fill="rgba(69, 0, 131, 0.04)"></path>
            <path d="M600 456L696 552L696 648" stroke-width="8" stroke="rgba(69, 0, 131, 0.04)"></path>
            <path d="M592 456 a8 8 0 1 0 16 0 a8 8 0 1 0 -16 0zM688 648 a8 8 0 1 0 16 0 a8 8 0 1 0 -16 0z" fill="rgba(69, 0, 131, 0.04)"></path>
            <path d="M408 216L408 72" stroke-width="8" stroke="rgba(69, 0, 131, 0.04)"></path>
            <path d="M400 216 a8 8 0 1 0 16 0 a8 8 0 1 0 -16 0zM400 72 a8 8 0 1 0 16 0 a8 8 0 1 0 -16 0z" fill="rgba(69, 0, 131, 0.04)"></path>
            <path d="M216 888L408 888L504 792L648 792" stroke-width="8" stroke="rgba(69, 0, 131, 0.04)"></path>
            <path d="M208 888 a8 8 0 1 0 16 0 a8 8 0 1 0 -16 0zM640 792 a8 8 0 1 0 16 0 a8 8 0 1 0 -16 0z" fill="rgba(69, 0, 131, 0.04)"></path>
            <path d="M2376 648L2328 696L2328 744" stroke-width="8" stroke="rgba(69, 0, 131, 0.04)"></path>
            <path d="M2368 648 a8 8 0 1 0 16 0 a8 8 0 1 0 -16 0zM2320 744 a8 8 0 1 0 16 0 a8 8 0 1 0 -16 0z" fill="rgba(69, 0, 131, 0.04)"></path>
            <path d="M360 216L360 120" stroke-width="8" stroke="rgba(69, 0, 131, 0.04)"></path>
            <path d="M352 216 a8 8 0 1 0 16 0 a8 8 0 1 0 -16 0zM352 120 a8 8 0 1 0 16 0 a8 8 0 1 0 -16 0z" fill="rgba(69, 0, 131, 0.04)"></path>
            <path d="M1704 552L1896 744" stroke-width="8" stroke="rgba(69, 0, 131, 0.04)"></path>
            <path d="M1696 552 a8 8 0 1 0 16 0 a8 8 0 1 0 -16 0zM1888 744 a8 8 0 1 0 16 0 a8 8 0 1 0 -16 0z" fill="rgba(69, 0, 131, 0.04)"></path>
            <path d="M1128 744L1176 696L1224 696" stroke-width="8" stroke="rgba(69, 0, 131, 0.04)"></path>
            <path d="M1120 744 a8 8 0 1 0 16 0 a8 8 0 1 0 -16 0zM1216 696 a8 8 0 1 0 16 0 a8 8 0 1 0 -16 0z" fill="rgba(69, 0, 131, 0.04)"></path>
            <path d="M168 792L216 840L408 840L456 792" stroke-width="8" stroke="rgba(69, 0, 131, 0.04)"></path>
            <path d="M160 792 a8 8 0 1 0 16 0 a8 8 0 1 0 -16 0zM448 792 a8 8 0 1 0 16 0 a8 8 0 1 0 -16 0z" fill="rgba(69, 0, 131, 0.04)"></path>
            <path d="M1656 264L1848 264" stroke-width="8" stroke="rgba(69, 0, 131, 0.04)"></path>
            <path d="M1648 264 a8 8 0 1 0 16 0 a8 8 0 1 0 -16 0zM1840 264 a8 8 0 1 0 16 0 a8 8 0 1 0 -16 0z" fill="rgba(69, 0, 131, 0.04)"></path>
            <path d="M552 216L504 264L504 360" stroke-width="8" stroke="rgba(69, 0, 131, 0.04)"></path>
            <path d="M544 216 a8 8 0 1 0 16 0 a8 8 0 1 0 -16 0zM496 360 a8 8 0 1 0 16 0 a8 8 0 1 0 -16 0z" fill="rgba(69, 0, 131, 0.04)"></path>
            <path d="M744 120L696 120L648 72L648 24" stroke-width="8" stroke="rgba(69, 0, 131, 0.04)"></path>
            <path d="M736 120 a8 8 0 1 0 16 0 a8 8 0 1 0 -16 0zM640 24 a8 8 0 1 0 16 0 a8 8 0 1 0 -16 0z" fill="rgba(69, 0, 131, 0.04)"></path>
            <path d="M2520 72L2568 120L2568 216" stroke-width="8" stroke="rgba(69, 0, 131, 0.04)"></path>
            <path d="M2512 72 a8 8 0 1 0 16 0 a8 8 0 1 0 -16 0zM2560 216 a8 8 0 1 0 16 0 a8 8 0 1 0 -16 0z" fill="rgba(69, 0, 131, 0.04)"></path>
            <path d="M1992 1032L2088 936L2088 792" stroke-width="8" stroke="rgba(69, 0, 131, 0.04)"></path>
            <path d="M1984 1032 a8 8 0 1 0 16 0 a8 8 0 1 0 -16 0zM2080 792 a8 8 0 1 0 16 0 a8 8 0 1 0 -16 0z" fill="rgba(69, 0, 131, 0.04)"></path>
            <path d="M552 168L408 312L360 312L312 264L312 120" stroke-width="8" stroke="rgba(69, 0, 131, 0.04)"></path>
            <path d="M544 168 a8 8 0 1 0 16 0 a8 8 0 1 0 -16 0zM304 120 a8 8 0 1 0 16 0 a8 8 0 1 0 -16 0z" fill="rgba(69, 0, 131, 0.04)"></path>
            <path d="M1608 312L1656 360L1752 360L1800 312L1848 312" stroke-width="8" stroke="rgba(69, 0, 131, 0.04)"></path>
            <path d="M1600 312 a8 8 0 1 0 16 0 a8 8 0 1 0 -16 0zM1840 312 a8 8 0 1 0 16 0 a8 8 0 1 0 -16 0z" fill="rgba(69, 0, 131, 0.04)"></path>
            <path d="M888 312L936 312L984 264" stroke-width="8" stroke="rgba(69, 0, 131, 0.04)"></path>
            <path d="M880 312 a8 8 0 1 0 16 0 a8 8 0 1 0 -16 0zM976 264 a8 8 0 1 0 16 0 a8 8 0 1 0 -16 0z" fill="rgba(69, 0, 131, 0.04)"></path>
            <path d="M2232 648L2232 744" stroke-width="8" stroke="rgba(69, 0, 131, 0.04)"></path>
            <path d="M2224 648 a8 8 0 1 0 16 0 a8 8 0 1 0 -16 0zM2224 744 a8 8 0 1 0 16 0 a8 8 0 1 0 -16 0z" fill="rgba(69, 0, 131, 0.04)"></path>
            <path d="M1368 216L1464 312L1464 360" stroke-width="8" stroke="rgba(69, 0, 131, 0.04)"></path>
            <path d="M1360 216 a8 8 0 1 0 16 0 a8 8 0 1 0 -16 0zM1456 360 a8 8 0 1 0 16 0 a8 8 0 1 0 -16 0z" fill="rgba(69, 0, 131, 0.04)"></path>
            <path d="M648 1032L744 936L888 936" stroke-width="8" stroke="rgba(69, 0, 131, 0.04)"></path>
            <path d="M640 1032 a8 8 0 1 0 16 0 a8 8 0 1 0 -16 0zM880 936 a8 8 0 1 0 16 0 a8 8 0 1 0 -16 0z" fill="rgba(69, 0, 131, 0.04)"></path>
            <path d="M456 504L360 600L312 600" stroke-width="8" stroke="rgba(69, 0, 131, 0.04)"></path>
            <path d="M448 504 a8 8 0 1 0 16 0 a8 8 0 1 0 -16 0zM304 600 a8 8 0 1 0 16 0 a8 8 0 1 0 -16 0z" fill="rgba(69, 0, 131, 0.04)"></path>
            <path d="M72 552L168 648L168 744L216 792L264 792" stroke-width="8" stroke="rgba(69, 0, 131, 0.04)"></path>
            <path d="M64 552 a8 8 0 1 0 16 0 a8 8 0 1 0 -16 0zM256 792 a8 8 0 1 0 16 0 a8 8 0 1 0 -16 0z" fill="rgba(69, 0, 131, 0.04)"></path>
            <path d="M72 648L120 696L120 888" stroke-width="8" stroke="rgba(69, 0, 131, 0.04)"></path>
            <path d="M64 648 a8 8 0 1 0 16 0 a8 8 0 1 0 -16 0zM112 888 a8 8 0 1 0 16 0 a8 8 0 1 0 -16 0z" fill="rgba(69, 0, 131, 0.04)"></path>
            <path d="M1320 264L1272 312L1032 312" stroke-width="8" stroke="rgba(69, 0, 131, 0.04)"></path>
            <path d="M1312 264 a8 8 0 1 0 16 0 a8 8 0 1 0 -16 0zM1024 312 a8 8 0 1 0 16 0 a8 8 0 1 0 -16 0z" fill="rgba(69, 0, 131, 0.04)"></path>
            <path d="M1464 72L1464 120L1512 168L1560 168" stroke-width="8" stroke="rgba(69, 0, 131, 0.04)"></path>
            <path d="M1456 72 a8 8 0 1 0 16 0 a8 8 0 1 0 -16 0zM1552 168 a8 8 0 1 0 16 0 a8 8 0 1 0 -16 0z" fill="rgba(69, 0, 131, 0.04)"></path>
            <path d="M504 888L600 888" stroke-width="8" stroke="rgba(69, 0, 131, 0.04)"></path>
            <path d="M496 888 a8 8 0 1 0 16 0 a8 8 0 1 0 -16 0zM592 888 a8 8 0 1 0 16 0 a8 8 0 1 0 -16 0z" fill="rgba(69, 0, 131, 0.04)"></path>
            <path d="M1944 408L1992 360L1992 264" stroke-width="8" stroke="rgba(69, 0, 131, 0.04)"></path>
            <path d="M1936 408 a8 8 0 1 0 16 0 a8 8 0 1 0 -16 0zM1984 264 a8 8 0 1 0 16 0 a8 8 0 1 0 -16 0z" fill="rgba(69, 0, 131, 0.04)"></path>
            <path d="M1320 600L1320 504" stroke-width="8" stroke="rgba(69, 0, 131, 0.04)"></path>
            <path d="M1312 600 a8 8 0 1 0 16 0 a8 8 0 1 0 -16 0zM1312 504 a8 8 0 1 0 16 0 a8 8 0 1 0 -16 0z" fill="rgba(69, 0, 131, 0.04)"></path>
            <path d="M2424 264L2376 312L2376 360L2472 456" stroke-width="8" stroke="rgba(69, 0, 131, 0.04)"></path>
            <path d="M2416 264 a8 8 0 1 0 16 0 a8 8 0 1 0 -16 0zM2464 456 a8 8 0 1 0 16 0 a8 8 0 1 0 -16 0z" fill="rgba(69, 0, 131, 0.04)"></path>
            <path d="M600 504L552 456L504 456" stroke-width="8" stroke="rgba(69, 0, 131, 0.04)"></path>
            <path d="M592 504 a8 8 0 1 0 16 0 a8 8 0 1 0 -16 0zM496 456 a8 8 0 1 0 16 0 a8 8 0 1 0 -16 0z" fill="rgba(69, 0, 131, 0.04)"></path>
            <path d="M1080 1032L1224 1032" stroke-width="8" stroke="rgba(69, 0, 131, 0.04)"></path>
            <path d="M1072 1032 a8 8 0 1 0 16 0 a8 8 0 1 0 -16 0zM1216 1032 a8 8 0 1 0 16 0 a8 8 0 1 0 -16 0z" fill="rgba(69, 0, 131, 0.04)"></path>
            <path d="M1032 504L1176 504L1272 408" stroke-width="8" stroke="rgba(69, 0, 131, 0.04)"></path>
            <path d="M1024 504 a8 8 0 1 0 16 0 a8 8 0 1 0 -16 0zM1264 408 a8 8 0 1 0 16 0 a8 8 0 1 0 -16 0z" fill="rgba(69, 0, 131, 0.04)"></path>
            <path d="M936 504L936 456L984 408L1032 408L1080 456L1128 456L1176 408L1224 408" stroke-width="8" stroke="rgba(69, 0, 131, 0.04)"></path>
            <path d="M928 504 a8 8 0 1 0 16 0 a8 8 0 1 0 -16 0zM1216 408 a8 8 0 1 0 16 0 a8 8 0 1 0 -16 0z" fill="rgba(69, 0, 131, 0.04)"></path>
            <path d="M2328 120L2280 72L2232 72" stroke-width="8" stroke="rgba(69, 0, 131, 0.04)"></path>
            <path d="M2320 120 a8 8 0 1 0 16 0 a8 8 0 1 0 -16 0zM2224 72 a8 8 0 1 0 16 0 a8 8 0 1 0 -16 0z" fill="rgba(69, 0, 131, 0.04)"></path>
            <path d="M2520 312L2472 360L2424 360" stroke-width="8" stroke="rgba(69, 0, 131, 0.04)"></path>
            <path d="M2512 312 a8 8 0 1 0 16 0 a8 8 0 1 0 -16 0zM2416 360 a8 8 0 1 0 16 0 a8 8 0 1 0 -16 0z" fill="rgba(69, 0, 131, 0.04)"></path>
            <path d="M696 264L696 408L744 456L744 504" stroke-width="8" stroke="rgba(69, 0, 131, 0.04)"></path>
            <path d="M688 264 a8 8 0 1 0 16 0 a8 8 0 1 0 -16 0zM736 504 a8 8 0 1 0 16 0 a8 8 0 1 0 -16 0z" fill="rgba(69, 0, 131, 0.04)"></path>
            <path d="M2376 1032L2232 1032" stroke-width="8" stroke="rgba(69, 0, 131, 0.04)"></path>
            <path d="M2368 1032 a8 8 0 1 0 16 0 a8 8 0 1 0 -16 0zM2224 1032 a8 8 0 1 0 16 0 a8 8 0 1 0 -16 0z" fill="rgba(69, 0, 131, 0.04)"></path>
            <path d="M840 264L840 408" stroke-width="8" stroke="rgba(69, 0, 131, 0.04)"></path>
            <path d="M832 264 a8 8 0 1 0 16 0 a8 8 0 1 0 -16 0zM832 408 a8 8 0 1 0 16 0 a8 8 0 1 0 -16 0z" fill="rgba(69, 0, 131, 0.04)"></path>
            <path d="M168 456L264 552" stroke-width="8" stroke="rgba(69, 0, 131, 0.04)"></path>
            <path d="M160 456 a8 8 0 1 0 16 0 a8 8 0 1 0 -16 0zM256 552 a8 8 0 1 0 16 0 a8 8 0 1 0 -16 0z" fill="rgba(69, 0, 131, 0.04)"></path>
            <path d="M1944 120L1896 120L1848 72" stroke-width="8" stroke="rgba(69, 0, 131, 0.04)"></path>
            <path d="M1936 120 a8 8 0 1 0 16 0 a8 8 0 1 0 -16 0zM1840 72 a8 8 0 1 0 16 0 a8 8 0 1 0 -16 0z" fill="rgba(69, 0, 131, 0.04)"></path>
            <path d="M456 72L504 120L552 120" stroke-width="8" stroke="rgba(69, 0, 131, 0.04)"></path>
            <path d="M448 72 a8 8 0 1 0 16 0 a8 8 0 1 0 -16 0zM544 120 a8 8 0 1 0 16 0 a8 8 0 1 0 -16 0z" fill="rgba(69, 0, 131, 0.04)"></path>
            <path d="M1944 72L2040 72" stroke-width="8" stroke="rgba(69, 0, 131, 0.04)"></path>
            <path d="M1936 72 a8 8 0 1 0 16 0 a8 8 0 1 0 -16 0zM2032 72 a8 8 0 1 0 16 0 a8 8 0 1 0 -16 0z" fill="rgba(69, 0, 131, 0.04)"></path>
            <path d="M2328 552L2232 552" stroke-width="8" stroke="rgba(69, 0, 131, 0.04)"></path>
            <path d="M2320 552 a8 8 0 1 0 16 0 a8 8 0 1 0 -16 0zM2224 552 a8 8 0 1 0 16 0 a8 8 0 1 0 -16 0z" fill="rgba(69, 0, 131, 0.04)"></path>
            <path d="M216 408L216 456L264 504L312 504" stroke-width="8" stroke="rgba(69, 0, 131, 0.04)"></path>
            <path d="M208 408 a8 8 0 1 0 16 0 a8 8 0 1 0 -16 0zM304 504 a8 8 0 1 0 16 0 a8 8 0 1 0 -16 0z" fill="rgba(69, 0, 131, 0.04)"></path>
            <path d="M456 216L456 120" stroke-width="8" stroke="rgba(69, 0, 131, 0.04)"></path>
            <path d="M448 216 a8 8 0 1 0 16 0 a8 8 0 1 0 -16 0zM448 120 a8 8 0 1 0 16 0 a8 8 0 1 0 -16 0z" fill="rgba(69, 0, 131, 0.04)"></path>
            <path d="M1320 216L1176 216" stroke-width="8" stroke="rgba(69, 0, 131, 0.04)"></path>
            <path d="M1312 216 a8 8 0 1 0 16 0 a8 8 0 1 0 -16 0zM1168 216 a8 8 0 1 0 16 0 a8 8 0 1 0 -16 0z" fill="rgba(69, 0, 131, 0.04)"></path>
            <path d="M312 360L264 360L216 312" stroke-width="8" stroke="rgba(69, 0, 131, 0.04)"></path>
            <path d="M304 360 a8 8 0 1 0 16 0 a8 8 0 1 0 -16 0zM208 312 a8 8 0 1 0 16 0 a8 8 0 1 0 -16 0z" fill="rgba(69, 0, 131, 0.04)"></path>
            <path d="M2136 360L2184 312L2184 264" stroke-width="8" stroke="rgba(69, 0, 131, 0.04)"></path>
            <path d="M2128 360 a8 8 0 1 0 16 0 a8 8 0 1 0 -16 0zM2176 264 a8 8 0 1 0 16 0 a8 8 0 1 0 -16 0z" fill="rgba(69, 0, 131, 0.04)"></path>
            <path d="M1512 648L1608 744" stroke-width="8" stroke="rgba(69, 0, 131, 0.04)"></path>
            <path d="M1504 648 a8 8 0 1 0 16 0 a8 8 0 1 0 -16 0zM1600 744 a8 8 0 1 0 16 0 a8 8 0 1 0 -16 0z" fill="rgba(69, 0, 131, 0.04)"></path>
            <path d="M1608 648L1560 600L1512 600" stroke-width="8" stroke="rgba(69, 0, 131, 0.04)"></path>
            <path d="M1600 648 a8 8 0 1 0 16 0 a8 8 0 1 0 -16 0zM1504 600 a8 8 0 1 0 16 0 a8 8 0 1 0 -16 0z" fill="rgba(69, 0, 131, 0.04)"></path>
            <path d="M120 24L216 24" stroke-width="8" stroke="rgba(69, 0, 131, 0.04)"></path>
            <path d="M112 24 a8 8 0 1 0 16 0 a8 8 0 1 0 -16 0zM208 24 a8 8 0 1 0 16 0 a8 8 0 1 0 -16 0z" fill="rgba(69, 0, 131, 0.04)"></path>
            <path d="M2232 504L2280 456L2328 456L2376 504" stroke-width="8" stroke="rgba(69, 0, 131, 0.04)"></path>
            <path d="M2224 504 a8 8 0 1 0 16 0 a8 8 0 1 0 -16 0zM2368 504 a8 8 0 1 0 16 0 a8 8 0 1 0 -16 0z" fill="rgba(69, 0, 131, 0.04)"></path>
        </g>
    </g>
    <defs>
        <mask id="SvgjsMask1057">
            <rect width="2560" height="1025" fill="#ffffff"></rect>
        </mask>
    </defs>
</svg>
