<?xml version="1.0" encoding="utf-8"?>
<svg id="ICON" viewBox="0 0 128 128" xmlns="http://www.w3.org/2000/svg">
  <title>dedicated-server-smb</title>
  <g id="dedicated-server-smb">
    <path d="M36,90a6,6,0,1,1,6-6A6,6,0,0,1,36,90Zm0-8a2,2,0,1,0,2,2A2,2,0,0,0,36,82Zm28,8V78a2,2,0,0,0-4,0V90a2,2,0,0,0,4,0Zm12,0V78a2,2,0,0,0-4,0V90a2,2,0,0,0,4,0Zm12,0V78a2,2,0,0,0-4,0V90a2,2,0,0,0,4,0Zm12,0V78a2,2,0,0,0-4,0V90a2,2,0,0,0,4,0ZM36,62a6,6,0,1,1,6-6A6,6,0,0,1,36,62Zm0-8a2,2,0,1,0,2,2A2,2,0,0,0,36,54Zm28,8V50a2,2,0,0,0-4,0V62a2,2,0,0,0,4,0Zm12,0V50a2,2,0,0,0-4,0V62a2,2,0,0,0,4,0Zm12,0V50a2,2,0,0,0-4,0V62a2,2,0,0,0,4,0Zm12,0V50a2,2,0,0,0-4,0V62a2,2,0,0,0,4,0ZM36,34a6,6,0,1,1,6-6A6,6,0,0,1,36,34Zm0-8a2,2,0,1,0,2,2A2,2,0,0,0,36,26Zm28,8V22a2,2,0,0,0-4,0V34a2,2,0,0,0,4,0Zm12,0V22a2,2,0,0,0-4,0V34a2,2,0,0,0,4,0Zm12,0V22a2,2,0,0,0-4,0V34a2,2,0,0,0,4,0Zm12,0V22a2,2,0,0,0-4,0V34a2,2,0,0,0,4,0Z" style="fill: rgb(144, 24, 161);"/>
    <path d="M126,118H92v-1a5,5,0,0,0-5-5H66v-6a2,2,0,0,0-4,0v6H41a5,5,0,0,0-5,5v1H2a2,2,0,0,0,0,4H36v1a5,5,0,0,0,5,5H87a5,5,0,0,0,5-5v-1h34a2,2,0,0,0,0-4Zm-38,5a1,1,0,0,1-1,1H41a1,1,0,0,1-1-1v-6a1,1,0,0,1,1-1H87a1,1,0,0,1,1,1ZM24,100h80a8,8,0,0,0,8-8V76a8,8,0,0,0-2.73-6A8,8,0,0,0,112,64V48a8,8,0,0,0-2.73-6A8,8,0,0,0,112,36V20a8,8,0,0,0-1.83-5.09,1.24,1.24,0,0,0-.17-.23L100,3.28C98.39,1.41,94.83,0,91.75,0H36.25C33.17,0,29.61,1.41,28,3.28L18,14.68a1.24,1.24,0,0,0-.17.23A8,8,0,0,0,16,20V36a8,8,0,0,0,2.73,6A8,8,0,0,0,16,48V64a8,8,0,0,0,2.73,6A8,8,0,0,0,16,76V92A8,8,0,0,0,24,100ZM31,5.92A8.26,8.26,0,0,1,36.25,4h55.5A8.26,8.26,0,0,1,97,5.92L102.34,12H25.66ZM20,20a4,4,0,0,1,4-4h80a4,4,0,0,1,4,4V36a4,4,0,0,1-4,4H24a4,4,0,0,1-4-4Zm0,28a4,4,0,0,1,4-4h80a4,4,0,0,1,4,4V64a4,4,0,0,1-4,4H24a4,4,0,0,1-4-4Zm0,28a4,4,0,0,1,4-4h80a4,4,0,0,1,4,4V92a4,4,0,0,1-4,4H24a4,4,0,0,1-4-4Z" style="fill:#001b41"/>
  </g>
</svg>