<?xml version="1.0" encoding="utf-8"?>
<svg id="ICON" viewBox="0 0 116 128" xmlns="http://www.w3.org/2000/svg">
  <title>security-validation</title>
  <g id="security-validation">
    <path d="M89,100.171l14.586-14.585a2,2,0,0,1,2.828,2.828l-16,16a2,2,0,0,1-2.828,0l-8-8a2,2,0,0,1,2.828-2.828ZM116,78V98c0,17.262-22.117,29.262-23.059,29.765a2,2,0,0,1-1.882,0C90.117,127.262,68,115.262,68,98V78a2,2,0,0,1,1.316-1.879l22-8a1.986,1.986,0,0,1,1.368,0l22,8A2,2,0,0,1,116,78Zm-4,1.4L92,72.128,72,79.4V98c0,13.046,15.918,23.287,20,25.7,4.079-2.414,20-12.676,20-25.7Z" style="fill: rgb(144, 24, 161);"/>
    <path d="M74,128H6a6.006,6.006,0,0,1-6-6V6A6.006,6.006,0,0,1,6,0H90a6.006,6.006,0,0,1,6,6V58a2,2,0,0,1-4,0V6a2,2,0,0,0-2-2H6A2,2,0,0,0,4,6V122a2,2,0,0,0,2,2H74a2,2,0,0,1,0,4ZM76,22a2,2,0,0,0-2-2H22a2,2,0,0,0,0,4H74A2,2,0,0,0,76,22Zm0,16a2,2,0,0,0-2-2H22a2,2,0,0,0,0,4H74A2,2,0,0,0,76,38Zm0,16a2,2,0,0,0-2-2H22a2,2,0,0,0,0,4H74A2,2,0,0,0,76,54ZM60,70a2,2,0,0,0-2-2H22a2,2,0,0,0,0,4H58A2,2,0,0,0,60,70ZM56,86a2,2,0,0,0-2-2H22a2,2,0,0,0,0,4H54A2,2,0,0,0,56,86Zm0,16a2,2,0,0,0-2-2H22a2,2,0,0,0,0,4H54A2,2,0,0,0,56,102Z" style="fill:#001b41"/>
  </g>
</svg>