<?xml version="1.0" encoding="utf-8"?>
<svg viewBox="0 0 120 128" xmlns="http://www.w3.org/2000/svg">
  <defs>
    <style>.a{fill:#001b41;}.b{fill:#0b9dcc;}</style>
  </defs>
  <path class="a" d="M120.07,28.45a.56.56,0,0,0,0-.12,1.38,1.38,0,0,0-.18-.39l0-.07a2,2,0,0,0-.32-.38l-.1-.07a1.74,1.74,0,0,0-.36-.24l-.05,0-11.33-5.28A2,2,0,1,0,106,25.48L113.41,29,106,32.43a2,2,0,0,0,.85,3.81,2.08,2.08,0,0,0,.84-.18l8.48-4v9.36a2,2,0,0,0,4,0V29A2.09,2.09,0,0,0,120.07,28.45Z"/>
  <path class="a" d="M118.14,54.29a2,2,0,0,0-2,2V71.13a2,2,0,0,0,4,0V56.29A2,2,0,0,0,118.14,54.29Z"/>
  <path class="a" d="M118.14,84a2,2,0,0,0-2,2V97.2L106,101.94a2,2,0,0,0,.85,3.82,1.94,1.94,0,0,0,.84-.19L119,100.28a2,2,0,0,0,1.15-1.81V86A2,2,0,0,0,118.14,84Z"/>
  <path class="a" d="M94.21,107.43l-11.76,5.49a2,2,0,0,0,.85,3.81,2,2,0,0,0,.85-.19l11.75-5.48a2,2,0,1,0-1.69-3.63Z"/>
  <path class="a" d="M70.7,118.4l-8.48,4V113a2,2,0,0,0-4,0v9.36l-8.49-4A2,2,0,0,0,48,122l11.33,5.29h0l.3.1.1,0a1.87,1.87,0,0,0,.42,0,1.84,1.84,0,0,0,.41,0l.1,0,.3-.1h0L72.39,122a2,2,0,0,0-1.69-3.63Z"/>
  <path class="a" d="M38,112.92l-11.76-5.49a2,2,0,1,0-1.69,3.63l11.75,5.48a2,2,0,0,0,2.66-1A2,2,0,0,0,38,112.92Z"/>
  <path class="a" d="M14.46,101.94,4.29,97.2V86a2,2,0,0,0-4,0v12.5a2,2,0,0,0,1.15,1.81l11.33,5.29a1.94,1.94,0,0,0,.84.19,2,2,0,0,0,.85-3.82Z"/>
  <path class="a" d="M2.29,73.13a2,2,0,0,0,2-2V56.29a2,2,0,0,0-4,0V71.13A2,2,0,0,0,2.29,73.13Z"/>
  <path class="a" d="M15.43,22.82a2,2,0,0,0-2.66-1L1.44,27.14l-.05,0a1.74,1.74,0,0,0-.36.24l-.1.07a2,2,0,0,0-.32.38l0,.07a1.38,1.38,0,0,0-.18.39.56.56,0,0,0,0,.12A2.09,2.09,0,0,0,.29,29v12.5a2,2,0,0,0,4,0V32.1l8.48,4a2.08,2.08,0,0,0,.84.18,2,2,0,0,0,.85-3.81L7,29l7.44-3.48A2,2,0,0,0,15.43,22.82Z"/>
  <path class="a" d="M36.28,10.88,24.53,16.37a2,2,0,0,0,.84,3.81,2.13,2.13,0,0,0,.85-.18L38,14.51a2,2,0,0,0-1.7-3.63Z"/>
  <path class="a" d="M72.39,5.4,61.06.11a2,2,0,0,0-1.69,0L48,5.4A2,2,0,0,0,49.73,9L60.22,4.13,70.7,9a1.94,1.94,0,0,0,.84.19,2,2,0,0,0,.85-3.81Z"/>
  <path class="a" d="M95.9,16.37,84.15,10.88a2,2,0,0,0-1.7,3.63L94.21,20a2.13,2.13,0,0,0,.85.18,2,2,0,0,0,.84-3.81Z"/>
  <path class="a" d="M94.21,37.92,82.45,43.4A2,2,0,1,0,84.15,47L95.9,41.54a2,2,0,1,0-1.69-3.62Z"/>
  <path class="a" d="M70.7,48.89,60.22,53.78,49.73,48.89A2,2,0,0,0,48,52.52l10.18,4.74V68.49a2,2,0,0,0,4,0V57.26l10.17-4.74a2,2,0,0,0-1.69-3.63Z"/>
  <path class="a" d="M38,43.4,26.22,37.92a2,2,0,1,0-1.69,3.62L36.28,47A2,2,0,0,0,38,43.4Z"/>
  <path class="a" d="M60.22,100.17a2,2,0,0,0,2-2h0V83.33h0a2,2,0,0,0-4,0h0V98.17h0A2,2,0,0,0,60.22,100.17Z"/>
  <path class="b" d="M81.05,90.8,80,91.32a1.29,1.29,0,0,0-.65.71l-3.47,9.66L74,95.82a1.27,1.27,0,0,0-1.76-.76l-1.08.52a1.27,1.27,0,0,0-.65,1.54L74,107.69a1.26,1.26,0,0,0,.71.77,1.26,1.26,0,0,0,1,0l1.05-.5a1.27,1.27,0,0,0,.64-.71l5.39-14.84a1.27,1.27,0,0,0-1.74-1.58Z" style="fill: rgb(144, 24, 161);"/>
  <path class="b" d="M100.28,83.14c-1-.75-2.34-.71-4.06.11a8.94,8.94,0,0,0-2.56,1.89,9.89,9.89,0,0,0-1,1.18l-.1,0a4.29,4.29,0,0,0-3.56.44,8.32,8.32,0,0,0-2.33,1.71l-.21.23a1.28,1.28,0,0,0-1,0l-.86.41a1.29,1.29,0,0,0-.72,1l-1,12.7a1.3,1.3,0,0,0,.55,1.15,1.27,1.27,0,0,0,.72.22,1.2,1.2,0,0,0,.55-.13l1-.5a1.27,1.27,0,0,0,.72-1l.53-7A8.33,8.33,0,0,1,88,92,4.78,4.78,0,0,1,90.13,90a3,3,0,0,1,.58-.22,3.38,3.38,0,0,1,0,.91l-.65,8.69a1.27,1.27,0,0,0,1.82,1.24l1.06-.52a1.26,1.26,0,0,0,.72-1.05l.56-7.44a7.13,7.13,0,0,1,.9-3.21,5.12,5.12,0,0,1,2.17-1.86,2.19,2.19,0,0,1,.54-.2,4.71,4.71,0,0,1,0,1.25l-.62,8.33a1.27,1.27,0,0,0,1.82,1.24l1-.5a1.29,1.29,0,0,0,.72-1.05l.62-8.31C101.55,86,101.54,84.11,100.28,83.14Z" style="fill: rgb(144, 24, 161);"/>
</svg>