<?xml version="1.0" encoding="utf-8"?><svg id="Logos" xmlns="http://www.w3.org/2000/svg" viewBox="0 0 200 126"><defs><style>.cls-1{fill:#12ae48;}.cls-2{fill:#181818;}</style></defs><title>tld-dotTech</title><g id="_.tech" data-name=".tech"><path class="cls-1" d="M14.2,74.51A10.08,10.08,0,0,1,24.47,84.85a10.32,10.32,0,1,1-20.63-.13v-.09A10.12,10.12,0,0,1,14.2,74.51Z"/><polygon class="cls-2" points="36.77 30.15 34.77 43.3 28.45 43.46 27.12 54.78 32.99 54.99 28.45 84.73 35.11 94.05 53.42 94.05 61.07 84.73 61.07 76.08 50.75 76.08 48.76 81.74 41.1 81.74 45.27 54.81 57.08 54.78 58.41 43.46 47.02 43.51 49.09 30.15 36.77 30.15"/><path class="cls-2" d="M78.71,72.42H100l9.32-9V50.78l-6-7.32h-24l-9.32,8L65.73,84.73l6,9.32H97l8.32-9.32V76.08L94,76.41l-2.33,5h-13l-1.33-2.66V74.41Zm5.33-19H95.69L97,55.6l0,4.49-1.67,2.34H83.7L82.05,60l0-4.57Z"/><polygon class="cls-2" points="135.63 81.4 123.31 81.4 122.31 78.74 125.01 57.11 127.97 54.78 139.95 54.78 140.63 59.77 153.27 59.77 153.27 50.78 147.28 43.46 123.31 43.46 113.99 51.45 109.67 84.73 115.66 94.05 140.95 94.05 149.27 84.73 149.27 76.08 137.96 76.41 135.63 81.4"/><polygon class="cls-2" points="162.25 30.15 151.6 94.05 163.59 94.05 169.79 57.94 173.34 55.72 183.08 55.68 183.69 58.13 179.56 93.72 191.21 94.05 196.2 50.45 191.54 43.46 175.9 43.46 171.91 46.45 172.24 44.13 174.57 30.15 162.25 30.15"/></g></svg>