<?xml version="1.0" encoding="UTF-8"?><svg id="a" xmlns="http://www.w3.org/2000/svg" viewBox="0 0 200 126"><defs><style>.q{fill:#d7d5d5;}.r{fill:#fff;}.s{fill:#491d55;}</style></defs><g id="b"/><g id="c"/><g id="d"><path class="s" d="M39.85,48.32c-30.07,3.96-23.69,46.36,3.89,46.52,15,.09,21.2,1.23,27.49-3.5,3.53,16.63,16.03,20.42,23.44,20.16,19.39-.68,29.48-16.89,30.51-19.57,2.76,1.55,5.25,2.13,10.33,2.13s14.5,.22,22.94,.11c7.15-.09,21.54-7.32,21.54-19.56s-.4-31.21-.52-36.89c-.17-8.53-8.1-19.22-19.05-19.22s-85.32-.02-100.94,.05c-24.12,.12-24.9,25.11-19.65,29.77Z"/><path class="q" d="M66.29,56.6l-10.08-12.41c-.69-.95-.95-1.81-.95-2.84,0-2.59,2.07-4.65,4.65-4.65,1.46,0,2.84,.69,3.71,1.81l8.1,11.12-5.43,6.98Z"/><path class="q" d="M77.35,57l10.43,13.1c.52,.78,.95,1.55,.95,2.84,0,2.58-2.07,4.65-4.65,4.65-1.29,0-2.84-.6-3.71-1.81-2.67-3.71-8.45-11.89-8.45-11.89l5.43-6.89Z"/><path class="q" d="M104.55,73.75l-13.27-30.59c-.17-.43-.35-1.03-.35-1.81,0-2.59,2.07-4.65,4.65-4.65s3.88,1.81,4.31,2.93l9.48,23.96-4.83,10.17Z"/><path class="q" d="M162.03,72.55c0-2.16-1.81-3.96-3.96-3.96h-15.68l-5.91,7.93h21.6c2.15,0,3.96-1.81,3.96-3.96Z"/><path class="q" d="M135.23,45.14h14.56l5.78-7.76h-20.35c-2.15,0-3.88,1.72-3.88,3.88s1.72,3.88,3.88,3.88Z"/><path class="r" d="M59.44,77.29c-.98,0-1.97-.31-2.8-.95-2.01-1.55-2.39-4.44-.84-6.45l24.16-31.4c1.55-2.01,4.44-2.39,6.45-.84,2.01,1.55,2.39,4.44,.84,6.45l-24.16,31.4c-.91,1.18-2.27,1.79-3.65,1.79Z"/><path class="r" d="M94.27,94.2c-.23,0-.46,0-.69-.01-2.54-.1-4.52-2.24-4.42-4.78s2.26-4.51,4.78-4.41c3.18,.12,5.44-1.61,7.94-5.97,1.78-3.11,15.08-34.08,17.04-39.39,.88-2.38,3.52-3.61,5.91-2.73,2.38,.88,3.6,3.52,2.73,5.91-1.64,4.44-15.33,36.67-17.68,40.78-1.52,2.66-6.06,10.62-15.6,10.62Z"/><path class="r" d="M134.16,76.5c-.96,0-1.8-.23-2.58-.9-1.75-1.49-1.71-3.95-.19-5.99l24.19-32.23c.86-.02,1.19,.02,1.73,.04,.88,.04,1.67,.27,2.52,.9,2.04,1.52,2.09,4.31,.62,6.02l-23.97,32.16c-.59,0-.91,0-2.31,0Z"/><path class="r" d="M43.89,65.83c2.65,0,5.44,.71,5.6,5.77,.16,5.06-3.55,5.54-5.8,5.6-2.37,.06-5.46-.82-5.49-5.6-.03-4.78,3.03-5.77,5.69-5.77Z"/></g><g id="e"/><g id="f"/><g id="g"/><g id="h"/><g id="i"/><g id="j"/><g id="k"/><g id="l"/><g id="m"><g id="n"/></g><g id="o"/><g id="p"/></svg>