<?xml version="1.0" encoding="utf-8"?>
<!-- Generator: Adobe Illustrator 25.2.0, SVG Export Plug-In . SVG Version: 6.00 Build 0)  -->
<svg version="1.1" id="Logos" xmlns="http://www.w3.org/2000/svg" xmlns:xlink="http://www.w3.org/1999/xlink" x="0px" y="0px"
	 viewBox="0 0 200 126" style="enable-background:new 0 0 200 126;" xml:space="preserve">
<style type="text/css">
	.st0{fill:#0033A0;}
</style>
<path id="dot-org" class="st0" d="M154.1,106.4h-2.4c-5.8,0.2-11.4-2-15.6-6c-2.1-1.9-3.7-4.3-4.7-7l13.1-7.6
	c0.1,2.2,1.1,4.3,2.7,5.7c1.6,1.6,3.7,2.4,5.9,2.4c1.8,0,3.5-0.5,4.9-1.5c1.4-0.9,2.5-2.3,3.1-3.9c0.3-0.6,0.4-1.3,0.4-2v-0.7l0,0
	v-4.5l-0.3,0.2l-0.4,0.1c-2.9,1.2-5.9,1.8-9,1.8c-13.1-0.2-23.5-10.8-23.5-23.9c-0.1-3.2,0.6-6.5,1.9-9.4
	c3.7-8.7,12.3-14.4,21.8-14.3c4.1-0.2,8.1,0.5,11.8,2.1c3.1,1.3,5.8,3.3,7.8,5.9C161.1,10.7,125.7-7.6,92.6,3
	c-18.6,6-33.4,20.3-40,38.7c2.2-1.8,4.7-3.2,7.3-4.3c6.1-2.3,12.9-2.3,19,0c3,1.1,5.8,2.7,8.1,4.9c2.3,2.1,4.3,4.7,5.6,7.6
	c2.6,5.9,2.6,12.7,0,18.7c-1.3,2.9-3.2,5.5-5.6,7.6c-2.4,2.1-5.1,3.8-8.1,4.9c-7.2,2.7-15.1,2.2-21.9-1.3c-2.7-1.4-5.1-3.3-7.1-5.6
	c6.1,34.2,38.7,57,72.9,50.9c13.3-2.4,25.5-9,34.8-18.8C156.4,106.4,155.3,106.5,154.1,106.4 M123.8,49c-0.8-0.5-1.8-0.8-2.8-0.8
	h-0.8c-3.5,0.1-5.2,2.6-5.2,7.3v26h-13.7v-26c0-12.5,6.3-19.1,19-19.7h0.8c0.9,0,1.9,0.1,2.8,0.3L123.8,49z M69.3,70.4
	c-3,0-5.9-1.2-8-3.3c-2.2-2-3.5-4.9-3.4-7.9c0-2,0.5-3.9,1.6-5.6c1.1-1.7,2.5-3,4.3-4c1.7-1,3.6-1.5,5.6-1.5c2,0,3.9,0.5,5.6,1.5
	c1.7,1,3.2,2.3,4.3,4c1.1,1.7,1.6,3.6,1.6,5.6c0,3-1.2,5.9-3.4,7.9C75.2,69.3,72.3,70.5,69.3,70.4 M162.6,53.9
	c2.6,4.3,1.8,9.9-1.9,13.3c-4.2,4.3-11.2,4.4-15.5,0.2c0,0,0,0,0,0c-0.1-0.1-0.1-0.1-0.2-0.2c-3.7-3.5-4.5-9-1.9-13.3
	c1-1.7,2.5-3.1,4.2-4c1.7-1,3.5-1.5,5.4-1.5C156.8,48.3,160.5,50.4,162.6,53.9 M44.2,75.2c0,4.4-3.5,8-7.9,8c-4.4,0-8-3.5-8-7.9
	c0-4.4,3.5-8,7.9-8h0.1C40.6,67.3,44.2,70.8,44.2,75.2C44.2,75.2,44.2,75.2,44.2,75.2L44.2,75.2"/>
</svg>
