<?xml version="1.0" encoding="utf-8"?>
<svg id="Logos" xmlns="http://www.w3.org/2000/svg" viewBox="0 0 200 126"><defs><style>.cls-1{fill:#e9531f;}.cls-2{fill:#262c48;}</style></defs><title>tld-DotShop</title><g id="_.shop" data-name=".shop"><path class="cls-1" d="M10.53,68.51A10.53,10.53,0,1,0,21.05,79,10.54,10.54,0,0,0,10.53,68.51"/><path class="cls-2" d="M46.83,60.73a37,37,0,0,0-4.44-.54c-4.53-.34-5.59-.91-6-2.17a1.89,1.89,0,0,1,.28-1.66c.79-1.18,2.78-1.85,5.44-1.83A17.9,17.9,0,0,1,49,56.45a5.88,5.88,0,0,0,8-2.58c1.13-2.31.8-5.73-2.82-7.88a23.37,23.37,0,0,0-12-3.42C32.91,42.5,28.5,47,26.69,49.7A13.9,13.9,0,0,0,25.3,62.63c3.53,8.45,11.4,9.1,16.11,9.48,1.16.1,2.26.19,3.12.36,2.41.47,2.36,2.26,2.32,2.61-.16,1.58-2.06,2.55-5,2.53A11.52,11.52,0,0,1,33.64,74a1.17,1.17,0,0,0-1.58-.11l-7.54,6a1.17,1.17,0,0,0-.15,1.69,23.38,23.38,0,0,0,17.43,8,18.14,18.14,0,0,0,11.78-3.75,14,14,0,0,0,5.17-9.54,14.21,14.21,0,0,0-2.64-9.77,14.92,14.92,0,0,0-9.28-5.78"/><path class="cls-2" d="M94.17,45.7a23.68,23.68,0,0,0-17-2.51V31a6.49,6.49,0,1,0-13,0V51.31a23.17,23.17,0,0,0-4.28,8.21,6.44,6.44,0,0,0,4.28,7.9V87.05a1.18,1.18,0,0,0,1.18,1.18H76a1.18,1.18,0,0,0,1.18-1.18V57a10,10,0,0,1,8.39-1c4,1.43,4,6,4,11.73V87.05a1.18,1.18,0,0,0,1.18,1.18h10.61a1.17,1.17,0,0,0,1.18-1.18V64.47c0-14.67-8.36-18.77-8.36-18.77"/><path class="cls-2" d="M129.48,42.57A23.5,23.5,0,1,0,153,66.06a23.52,23.52,0,0,0-23.5-23.49m0,34A10.53,10.53,0,1,1,140,66.06a10.54,10.54,0,0,1-10.52,10.53"/><path class="cls-2" d="M200,65.14a23.49,23.49,0,0,0-32.12-20.93c-5.64,2.25-9.24,7.27-9.24,15.07V65A6.06,6.06,0,0,0,154,72.69a23.67,23.67,0,0,0,4.65,8.58h0v19.21a1.17,1.17,0,0,0,1.17,1.17h10.62a1.17,1.17,0,0,0,1.18-1.17V89A23.49,23.49,0,0,0,200,65.14m-13,1.61a10.56,10.56,0,0,1-9.91,9.82,10.35,10.35,0,0,1-5.51-1.2V61.55c0-4.08,2.18-6,4.86-6h.05A10.55,10.55,0,0,1,187,66.75"/></g></svg>