<?xml version="1.0" encoding="utf-8"?>
<svg id="Logos" xmlns="http://www.w3.org/2000/svg" viewBox="0 0 200 126"><defs><style>.cls-1{fill:#6aaa2e;}.cls-2{fill:#fff;}</style></defs><title>tld-DotIo</title><path class="cls-1" d="M137.92,98.58H68.78V86.19H56.21V43.81H68.78V31.42h69.14a8.31,8.31,0,0,1,8.29,8.29V90.29a8.31,8.31,0,0,1-8.29,8.29"/><polygon class="cls-2" points="76.6 68.94 69.27 68.94 68.83 68.5 68.83 61.17 69.27 60.73 76.6 60.73 77.04 61.17 77.04 68.5 76.6 68.94 76.6 68.94"/><polygon class="cls-2" points="90.55 44.55 84.02 44.55 83.63 44.16 83.63 37.63 84.02 37.24 90.55 37.24 90.94 37.63 90.94 44.16 90.55 44.55 90.55 44.55"/><polygon class="cls-2" points="90 92.34 84.5 92.34 84.1 91.95 84.1 54.38 84.5 53.91 90 53.12 90.39 53.43 90.39 91.95 90 92.34 90 92.34"/><path class="cls-2" d="M104.84,57.84V72.68c0,9.4,5.92,13.74,14,13.74,8.21,0,14.06-4.34,14.06-13.74V57.84C132.87,48.68,127,44,118.81,44c-8,0-14,4.66-14,13.82ZM98.2,73.39V57.28c0-12.79,8-19.58,20.61-19.58,12.79,0,20.69,6.79,20.69,19.58V73.39c0,12.71-7.9,19.35-20.69,19.35-12.63,0-20.61-6.64-20.61-19.35Z"/></svg>