<?xml version="1.0" encoding="utf-8"?><svg id="Logos" xmlns="http://www.w3.org/2000/svg" viewBox="0 0 200 126"><defs><style>.cls-1{fill:#ec6608;}.cls-2{fill:#fff;}</style></defs><title>tld-DotCo</title><path class="cls-1" d="M127.74,17H59.53A5.53,5.53,0,0,0,54,22.53v82.94A5.53,5.53,0,0,0,59.53,111h82.94a5.54,5.54,0,0,0,5.53-5.53V36a2.62,2.62,0,0,0-.91-2.24l-15-15A4.74,4.74,0,0,0,127.74,17"/><path class="cls-2" d="M124.48,96.21a9,9,0,1,1,9-9,9,9,0,0,1-9,9m0-26.49a17.46,17.46,0,1,0,17.45,17.45,17.46,17.46,0,0,0-17.45-17.45"/><path class="cls-2" d="M96.7,90.88a6.33,6.33,0,0,0-1.42,1.41,9,9,0,1,1,0-10.23,6.33,6.33,0,0,0,1.42,1.41c2.15,1.44,5.49,1.41,8.35,1.16a17.46,17.46,0,1,0,0,5.09c-2.86-.26-6.2-.29-8.35,1.16"/><path class="cls-2" d="M68.12,98.71a4,4,0,1,1-4-4,4,4,0,0,1,4,4"/><polygon class="cls-1" points="152.44 110.92 152.44 107.68 151.28 107.68 151.28 107.02 154.39 107.02 154.39 107.68 153.23 107.68 153.23 110.92 152.44 110.92 152.44 110.92"/><polygon class="cls-1" points="154.88 110.92 154.88 107.02 156.06 107.02 156.77 109.68 157.47 107.02 158.66 107.02 158.66 110.92 157.92 110.92 157.92 107.85 157.15 110.92 156.39 110.92 155.62 107.85 155.62 110.92 154.88 110.92 154.88 110.92"/></svg>