<?xml version="1.0" encoding="utf-8"?><svg id="Logos" xmlns="http://www.w3.org/2000/svg" viewBox="0 0 242 126"><defs><style>.cls-1{fill:#3e3e3d;}.cls-2{fill:#10a44a;}</style></defs><title>tld-DotOnline</title><path class="cls-1" d="M65.84,65c0-5.49-.18-10.17-.36-14H77.35L78,57h.27a16.1,16.1,0,0,1,13.58-7c9,0,15.74,5.93,15.74,18.89V95H93.9V70.61c0-5.67-2-9.53-6.92-9.53a7.3,7.3,0,0,0-6.93,5.13,9.31,9.31,0,0,0-.54,3.41V95H65.84Z"/><path class="cls-1" d="M114.05,31.13h13.67V95H114.05Z"/><path class="cls-1" d="M148.41,38.77c0,3.78-2.88,6.84-7.39,6.84-4.31,0-7.19-3.06-7.1-6.84-.09-4,2.79-6.92,7.2-6.92S148.32,34.81,148.41,38.77ZM134.29,95V51H148V95Z"/><path class="cls-1" d="M154.43,65c0-5.49-.17-10.17-.35-14H166l.63,6h.28a16.09,16.09,0,0,1,13.58-7c9,0,15.74,5.93,15.74,18.89V95H182.51V70.61c0-5.67-2-9.53-6.93-9.53a7.28,7.28,0,0,0-6.92,5.13,9.29,9.29,0,0,0-.55,3.41V95H154.43Z"/><path class="cls-1" d="M213.17,77.36c.45,5.66,6,8.36,12.41,8.36a38.65,38.65,0,0,0,12.14-1.8l1.8,9.27a43.39,43.39,0,0,1-15.92,2.7c-14.93,0-23.48-8.64-23.48-22.4,0-11.15,6.93-23.47,22.22-23.47C236.55,50,242,61.08,242,72a32.61,32.61,0,0,1-.45,5.4ZM229.27,68c0-3.32-1.44-8.9-7.73-8.9-5.77,0-8.09,5.22-8.46,8.9Z"/><path class="cls-1" d="M39.39,50C25.27,50,15.92,59.1,15.92,73.31c0,.37,0,.74,0,1.1a14.17,14.17,0,0,1,6.84,12.13,14,14,0,0,1-.41,3.35C26.46,93.83,32.19,96,38.67,96,50.46,96,61.89,88.6,61.89,72.5,61.88,59.28,52.88,50,39.39,50ZM39,86.17c-5.84,0-9-5.67-9-13.22,0-6.47,2.43-13.22,9-13.22,6.21,0,8.72,6.65,8.72,13.22C47.76,80.87,44.34,86.17,39,86.17Z"/><path class="cls-2" d="M18.92,86.22a9.49,9.49,0,1,1-9.49-9.49A9.49,9.49,0,0,1,18.92,86.22Z"/></svg>