<?xml version="1.0" encoding="utf-8"?><svg id="logo" xmlns="http://www.w3.org/2000/svg" viewBox="0 0 168 128"><g id="dot-info"><path d="M160.586,32.26a1.693,1.693,0,0,1-.27.947,1.767,1.767,0,0,1-.78.643,2.894,2.894,0,0,1-1.2.229,4.871,4.871,0,0,1-.96-.08,3.6,3.6,0,0,1-.808-.28v-1.38a4.635,4.635,0,0,0,.921.354,3.436,3.436,0,0,0,.878.128.851.851,0,0,0,.506-.12.367.367,0,0,0,.161-.308.336.336,0,0,0-.065-.2.74.74,0,0,0-.208-.179,8.436,8.436,0,0,0-.762-.368,3.676,3.676,0,0,1-.841-.494,1.535,1.535,0,0,1-.416-.549,1.827,1.827,0,0,1-.135-.733,1.469,1.469,0,0,1,.576-1.235,2.546,2.546,0,0,1,1.584-.443,3.4,3.4,0,0,1,1.6.322l-.006,1.286a4.539,4.539,0,0,0-1.642-.369.721.721,0,0,0-.439.106.32.32,0,0,0-.137.262.379.379,0,0,0,.174.3,6.658,6.658,0,0,0,.947.486,2.614,2.614,0,0,1,1.029.716A1.553,1.553,0,0,1,160.586,32.26ZM163.97,34,162.8,29.873h-.036q.083,1.055.083,1.638V34h-1.373V28.269h2.063l1.195,4.07h.032l1.172-4.07H168V34h-1.423V31.488q0-.2.006-.435c0-.16.021-.55.053-1.173H166.6L165.444,34Zm-9.633,51.856V42.143a15.658,15.658,0,0,0-15.612-15.612H15.612A15.657,15.657,0,0,0,0,42.143V85.857a15.657,15.657,0,0,0,15.612,15.612H138.725A15.658,15.658,0,0,0,154.337,85.857Z" style="fill:#09547f"/><path d="M22.712,84.484A9.382,9.382,0,1,1,13.331,75.1,9.382,9.382,0,0,1,22.712,84.484ZM33.873,35.66c-3.837,0-6.947,2.844-6.947,6.353s3.11,6.354,6.947,6.354,6.947-2.845,6.947-6.354S37.71,35.66,33.873,35.66ZM39.7,54.187H27.656V93.44H39.7Zm29.273-.711a14.476,14.476,0,0,0-12.791,7.218V54.187H44.137V93.44H56.181V71.285s0-8.584,7.431-8.584c6.534,0,6.107,8.584,6.107,8.584V93.44H81.763V71.285C81.763,67.783,83.172,53.476,68.972,53.476Zm80.6,20.458c0,11.368-7,20.584-21.207,20.584S107.162,85.3,107.162,73.934a22.664,22.664,0,0,1,2.447-10.616h-8.884V93.44H88.681V63.318h-6.6V54.4h6.6V49.13s-.555-14.347,16.366-14.347a26.683,26.683,0,0,1,6.025.689V44.93a14.95,14.95,0,0,0-4.5-.978c-5.851,0-5.851,5.178-5.851,5.178V54.4h9.009v8.69c3.189-5.845,9.364-9.737,18.635-9.737C142.636,53.35,149.576,62.566,149.576,73.934Zm-12.44,0c0-8.286-3.526-11.266-8.767-11.266s-8.767,2.98-8.767,11.266c0,8.583,3.925,11.267,8.767,11.267S137.136,82.517,137.136,73.934Z" style="fill:#fff"/></g></svg>