<?xml version="1.0" encoding="utf-8"?>
<svg id="ICON" xmlns="http://www.w3.org/2000/svg" viewBox="0 0 128 128"><title>plug-and-play</title><g id="plug-and-play"><path d="M120,128H8a8,8,0,0,1-8-8V72H4v48a4,4,0,0,0,4,4H120a4,4,0,0,0,4-4V72h4v48A8,8,0,0,1,120,128Zm8-72V8a8,8,0,0,0-8-8H8A8,8,0,0,0,0,8V56H4V8A4,4,0,0,1,8,4H120a4,4,0,0,1,4,4V56Z" style="fill:#001b41"/><path d="M48,60v8H58a2,2,0,0,1,2,2v8a2,2,0,0,1-2,2H48v6a2,2,0,0,1-2,2A24.09,24.09,0,0,1,23.37,72H0V70a2,2,0,0,1,2-2H24.83a2,2,0,0,1,2,1.59A20.08,20.08,0,0,0,44,83.9V78a2,2,0,0,1,2-2H56V72H46a2,2,0,0,1-2-2V58a2,2,0,0,1,2-2H56V52H46a2,2,0,0,1-2-2V44.1A20.1,20.1,0,0,0,26.77,58.47,2,2,0,0,1,24.83,60H2a2,2,0,0,1-2-2V56H23.37A24.09,24.09,0,0,1,46,40a2,2,0,0,1,2,2v6H58a2,2,0,0,1,2,2v8a2,2,0,0,1-2,2Zm53.2-1.61a2,2,0,0,0,2,1.61H126a2,2,0,0,0,2-2V56H104.63A24.09,24.09,0,0,0,82,40a2,2,0,0,0-2,2V86a2,2,0,0,0,2,2,24.09,24.09,0,0,0,22.63-16H128V70a2,2,0,0,0-2-2H103.17a2,2,0,0,0-2,1.55A20.09,20.09,0,0,1,84,83.9V44.1A20.07,20.07,0,0,1,101.2,58.39Z" style="fill:#0b9dcc"/></g></svg>