<?xml version="1.0" encoding="utf-8"?>
<!-- Generator: Adobe Illustrator 22.0.1, SVG Export Plug-In . SVG Version: 6.00 Build 0)  -->
<svg version="1.1" xmlns="http://www.w3.org/2000/svg" xmlns:xlink="http://www.w3.org/1999/xlink" x="0px" y="0px" width="552px"
	 height="574px" viewBox="0 0 552 574" style="enable-background:new 0 0 552 574;" xml:space="preserve">
<style type="text/css">
	.st0{display:none;}
	.st1{display:inline;}
	.st2{fill:none;stroke:#CFF3FA;stroke-linecap:round;stroke-miterlimit:10;}
	.st3{fill:none;stroke:#CFF3FA;stroke-linecap:round;stroke-miterlimit:10;stroke-dasharray:6.9021,7.8881;}
	.st4{clip-path:url(#SVGID_2_);}
	.st5{clip-path:url(#SVGID_4_);fill:#28CCE8;}
	.st6{clip-path:url(#SVGID_6_);}
	.st7{clip-path:url(#SVGID_8_);fill:#28CCE8;}
	.st8{clip-path:url(#SVGID_10_);}
	.st9{clip-path:url(#SVGID_12_);fill:#001B41;}
	.st10{clip-path:url(#SVGID_14_);}
	.st11{clip-path:url(#SVGID_16_);fill:#001B41;}
	.st12{clip-path:url(#SVGID_18_);}
	.st13{clip-path:url(#SVGID_20_);fill:#28CCE8;}
	.st14{clip-path:url(#SVGID_22_);}
	.st15{clip-path:url(#SVGID_24_);fill:#28CCE8;}
	.st16{clip-path:url(#SVGID_26_);}
	.st17{clip-path:url(#SVGID_28_);fill:#001B41;}
	.st18{clip-path:url(#SVGID_30_);}
	.st19{clip-path:url(#SVGID_32_);fill:#001B41;}
	.st20{clip-path:url(#SVGID_34_);}
	.st21{clip-path:url(#SVGID_36_);fill:#28CCE8;}
	.st22{clip-path:url(#SVGID_38_);}
	.st23{clip-path:url(#SVGID_40_);fill:#28CCE8;}
	.st24{clip-path:url(#SVGID_42_);}
	.st25{clip-path:url(#SVGID_44_);fill:#001B41;}
	.st26{clip-path:url(#SVGID_46_);}
	.st27{clip-path:url(#SVGID_48_);fill:#001B41;}
	.st28{fill:#FFFFFF;}
	.st29{fill:#DFE2E7;}
	.st30{opacity:0.8;}
	.st31{clip-path:url(#SVGID_50_);fill:#DFE2E7;}
	.st32{fill:#11C7E6;}
	.st33{clip-path:url(#SVGID_52_);fill:#DFE2E7;}
	.st34{clip-path:url(#SVGID_54_);fill:#DFE2E7;}
	.st35{fill:#0FB9DD;}
	.st36{clip-path:url(#SVGID_56_);fill:#DFE2E7;}
	.st37{clip-path:url(#SVGID_58_);fill:#DFE2E7;}
	.st38{clip-path:url(#SVGID_60_);fill:#DFE2E7;}
	.st39{clip-path:url(#SVGID_62_);fill:#DFE2E7;}
	.st40{fill:#003D8F;}
	.st41{opacity:0.4;fill:#0FB9DD;}
	.st42{opacity:0.7;fill:url(#SVGID_63_);}
	.st43{fill:url(#SVGID_64_);}
	.st44{fill:#E7F9FC;}
	.st45{fill:url(#SVGID_65_);}
	.st46{fill:#3AE0C0;}
	.st47{fill:#FED22C;}
	.st48{fill:#F965A8;}
	.st49{clip-path:url(#SVGID_67_);fill:#00C0E5;}
	.st50{clip-path:url(#SVGID_69_);fill:#DFE2E7;}
	.st51{clip-path:url(#SVGID_71_);fill:#DFE2E7;}
	.st52{clip-path:url(#SVGID_73_);fill:#DFE2E7;}
	.st53{clip-path:url(#SVGID_75_);fill:#DFE2E7;}
</style>
<g id="_x38_0x80_Grid">
	<g>
	</g>
</g>
<g id="Raster" class="st0">
	<g class="st1">
		<g>
			<g>
				<polyline class="st2" points="98.9,209 95.9,207.2 98.9,205.5 				"/>
				<line class="st3" x1="105.8" y1="201.5" x2="140.8" y2="181.3"/>
				<polyline class="st2" points="144.2,179.3 147.2,177.6 150.2,179.3 				"/>
				<line class="st3" x1="157.1" y1="183.3" x2="192.1" y2="203.5"/>
				<polyline class="st2" points="195.5,205.5 198.5,207.2 195.5,209 				"/>
				<line class="st3" x1="188.7" y1="212.9" x2="153.7" y2="233.1"/>
				<polyline class="st2" points="150.2,235.1 147.2,236.8 144.2,235.1 				"/>
				<line class="st3" x1="137.3" y1="231.1" x2="102.3" y2="210.9"/>
			</g>
		</g>
		<g>
			<g>
				<polyline class="st2" points="150.3,297.8 147.2,296.1 150.3,294.3 				"/>
				<line class="st3" x1="157.1" y1="290.4" x2="192.1" y2="270.2"/>
				<polyline class="st2" points="195.5,268.2 198.5,266.5 201.6,268.2 				"/>
				<line class="st3" x1="208.4" y1="272.2" x2="243.4" y2="292.4"/>
				<polyline class="st2" points="246.8,294.3 249.9,296.1 246.8,297.8 				"/>
				<line class="st3" x1="240" y1="301.8" x2="205" y2="322"/>
				<polyline class="st2" points="201.6,324 198.5,325.7 195.5,324 				"/>
				<line class="st3" x1="188.7" y1="320" x2="153.7" y2="299.8"/>
			</g>
		</g>
		<g>
			<g>
				<polyline class="st2" points="150.3,238.6 147.2,236.8 150.3,235.1 				"/>
				<line class="st3" x1="157.1" y1="231.1" x2="192.1" y2="210.9"/>
				<polyline class="st2" points="195.5,209 198.5,207.2 201.6,209 				"/>
				<line class="st3" x1="208.4" y1="212.9" x2="243.4" y2="233.1"/>
				<polyline class="st2" points="246.8,235.1 249.9,236.8 246.8,238.6 				"/>
				<line class="st3" x1="240" y1="242.5" x2="205" y2="262.7"/>
				<polyline class="st2" points="201.6,264.7 198.5,266.5 195.5,264.7 				"/>
				<line class="st3" x1="188.7" y1="260.8" x2="153.7" y2="240.6"/>
			</g>
		</g>
		<g>
			<g>
				<polyline class="st2" points="201.8,209 198.8,207.2 201.8,205.5 				"/>
				<line class="st3" x1="208.6" y1="201.5" x2="243.7" y2="181.3"/>
				<polyline class="st2" points="247.1,179.3 250.1,177.6 253.1,179.3 				"/>
				<line class="st3" x1="260" y1="183.3" x2="295" y2="203.5"/>
				<polyline class="st2" points="298.4,205.5 301.4,207.2 298.4,209 				"/>
				<line class="st3" x1="291.6" y1="212.9" x2="256.5" y2="233.1"/>
				<polyline class="st2" points="253.1,235.1 250.1,236.8 247.1,235.1 				"/>
				<line class="st3" x1="240.2" y1="231.1" x2="205.2" y2="210.9"/>
			</g>
		</g>
		<g>
			<g>
				<polyline class="st2" points="252.9,297.8 249.9,296.1 252.9,294.3 				"/>
				<line class="st3" x1="259.7" y1="290.4" x2="294.7" y2="270.2"/>
				<polyline class="st2" points="298.1,268.2 301.2,266.5 304.2,268.2 				"/>
				<line class="st3" x1="311" y1="272.2" x2="346" y2="292.4"/>
				<polyline class="st2" points="349.5,294.3 352.5,296.1 349.5,297.8 				"/>
				<line class="st3" x1="342.6" y1="301.8" x2="307.6" y2="322"/>
				<polyline class="st2" points="304.2,324 301.2,325.7 298.1,324 				"/>
				<line class="st3" x1="291.3" y1="320" x2="256.3" y2="299.8"/>
			</g>
		</g>
		<g>
			<g>
				<polyline class="st2" points="98.9,386.7 95.9,385 98.9,383.2 				"/>
				<line class="st3" x1="105.8" y1="379.3" x2="140.8" y2="359.1"/>
				<polyline class="st2" points="144.2,357.1 147.2,355.4 150.2,357.1 				"/>
				<line class="st3" x1="157.1" y1="361.1" x2="192.1" y2="381.3"/>
				<polyline class="st2" points="195.5,383.2 198.5,385 195.5,386.7 				"/>
				<line class="st3" x1="188.7" y1="390.7" x2="153.7" y2="410.9"/>
				<polyline class="st2" points="150.2,412.9 147.2,414.6 144.2,412.9 				"/>
				<line class="st3" x1="137.3" y1="408.9" x2="102.3" y2="388.7"/>
			</g>
		</g>
		<g>
			<g>
				<polyline class="st2" points="252.9,357.1 249.9,355.4 252.9,353.6 				"/>
				<line class="st3" x1="259.7" y1="349.7" x2="294.7" y2="329.4"/>
				<polyline class="st2" points="298.1,327.5 301.2,325.7 304.2,327.5 				"/>
				<line class="st3" x1="311" y1="331.4" x2="346" y2="351.6"/>
				<polyline class="st2" points="349.5,353.6 352.5,355.4 349.5,357.1 				"/>
				<line class="st3" x1="342.6" y1="361" x2="307.6" y2="381.3"/>
				<polyline class="st2" points="304.2,383.2 301.2,385 298.1,383.2 				"/>
				<line class="st3" x1="291.3" y1="379.3" x2="256.3" y2="359.1"/>
			</g>
		</g>
		<g>
			<g>
				<polyline class="st2" points="201.6,327.5 198.5,325.7 201.6,324 				"/>
				<line class="st3" x1="208.4" y1="320" x2="243.4" y2="299.8"/>
				<polyline class="st2" points="246.8,297.8 249.9,296.1 252.9,297.8 				"/>
				<line class="st3" x1="259.7" y1="301.8" x2="294.7" y2="322"/>
				<polyline class="st2" points="298.1,324 301.2,325.7 298.1,327.5 				"/>
				<line class="st3" x1="291.3" y1="331.4" x2="256.3" y2="351.6"/>
				<polyline class="st2" points="252.9,353.6 249.9,355.4 246.8,353.6 				"/>
				<line class="st3" x1="240" y1="349.7" x2="205" y2="329.4"/>
			</g>
		</g>
		<g>
			<g>
				<polyline class="st2" points="150.3,297.8 147.2,296.1 150.3,294.3 				"/>
				<line class="st3" x1="157.1" y1="290.4" x2="192.1" y2="270.2"/>
				<polyline class="st2" points="195.5,268.2 198.5,266.5 201.6,268.2 				"/>
				<line class="st3" x1="208.4" y1="272.2" x2="243.4" y2="292.4"/>
				<polyline class="st2" points="246.8,294.3 249.9,296.1 246.8,297.8 				"/>
				<line class="st3" x1="240" y1="301.8" x2="205" y2="322"/>
				<polyline class="st2" points="201.6,324 198.5,325.7 195.5,324 				"/>
				<line class="st3" x1="188.7" y1="320" x2="153.7" y2="299.8"/>
			</g>
		</g>
		<g>
			<g>
				<polyline class="st2" points="98.9,268.2 95.9,266.5 98.9,264.7 				"/>
				<line class="st3" x1="105.8" y1="260.8" x2="140.8" y2="240.6"/>
				<polyline class="st2" points="144.2,238.6 147.2,236.8 150.3,238.6 				"/>
				<line class="st3" x1="157.1" y1="242.5" x2="192.1" y2="262.7"/>
				<polyline class="st2" points="195.5,264.7 198.5,266.5 195.5,268.2 				"/>
				<line class="st3" x1="188.7" y1="272.2" x2="153.7" y2="292.4"/>
				<polyline class="st2" points="150.3,294.3 147.2,296.1 144.2,294.3 				"/>
				<line class="st3" x1="137.4" y1="290.4" x2="102.3" y2="270.2"/>
			</g>
		</g>
		<g>
			<g>
				<polyline class="st2" points="98.9,327.5 95.9,325.7 98.9,324 				"/>
				<line class="st3" x1="105.8" y1="320" x2="140.8" y2="299.8"/>
				<polyline class="st2" points="144.2,297.8 147.2,296.1 150.3,297.8 				"/>
				<line class="st3" x1="157.1" y1="301.8" x2="192.1" y2="322"/>
				<polyline class="st2" points="195.5,324 198.5,325.7 195.5,327.5 				"/>
				<line class="st3" x1="188.7" y1="331.4" x2="153.7" y2="351.6"/>
				<polyline class="st2" points="150.3,353.6 147.2,355.4 144.2,353.6 				"/>
				<line class="st3" x1="137.4" y1="349.7" x2="102.3" y2="329.4"/>
			</g>
		</g>
		<g>
			<g>
				<polyline class="st2" points="355.5,297.8 352.5,296.1 355.5,294.3 				"/>
				<line class="st3" x1="362.4" y1="290.4" x2="397.4" y2="270.2"/>
				<polyline class="st2" points="400.8,268.2 403.8,266.5 406.8,268.2 				"/>
				<line class="st3" x1="413.7" y1="272.2" x2="448.7" y2="292.4"/>
				<polyline class="st2" points="452.1,294.3 455.1,296.1 452.1,297.8 				"/>
				<line class="st3" x1="445.3" y1="301.8" x2="410.3" y2="322"/>
				<polyline class="st2" points="406.8,324 403.8,325.7 400.8,324 				"/>
				<line class="st3" x1="394" y1="320" x2="358.9" y2="299.8"/>
			</g>
		</g>
		<g>
			<g>
				<polyline class="st2" points="252.9,297.8 249.9,296.1 252.9,294.3 				"/>
				<line class="st3" x1="259.7" y1="290.4" x2="294.7" y2="270.2"/>
				<polyline class="st2" points="298.1,268.2 301.2,266.5 304.2,268.2 				"/>
				<line class="st3" x1="311" y1="272.2" x2="346" y2="292.4"/>
				<polyline class="st2" points="349.5,294.3 352.5,296.1 349.5,297.8 				"/>
				<line class="st3" x1="342.6" y1="301.8" x2="307.6" y2="322"/>
				<polyline class="st2" points="304.2,324 301.2,325.7 298.1,324 				"/>
				<line class="st3" x1="291.3" y1="320" x2="256.3" y2="299.8"/>
			</g>
		</g>
		<g>
			<g>
				<polyline class="st2" points="252.9,297.8 249.9,296.1 252.9,294.3 				"/>
				<line class="st3" x1="259.7" y1="290.4" x2="294.7" y2="270.2"/>
				<polyline class="st2" points="298.1,268.2 301.2,266.5 304.2,268.2 				"/>
				<line class="st3" x1="311" y1="272.2" x2="346.1" y2="292.4"/>
				<polyline class="st2" points="349.5,294.3 352.5,296.1 349.5,297.8 				"/>
				<line class="st3" x1="342.6" y1="301.8" x2="307.6" y2="322"/>
				<polyline class="st2" points="304.2,324 301.2,325.7 298.1,324 				"/>
				<line class="st3" x1="291.3" y1="320" x2="256.3" y2="299.8"/>
			</g>
		</g>
		<g>
			<g>
				<polyline class="st2" points="304.2,386.7 301.2,385 304.2,383.2 				"/>
				<line class="st3" x1="311" y1="379.3" x2="346.1" y2="359.1"/>
				<polyline class="st2" points="349.5,357.1 352.5,355.4 355.5,357.1 				"/>
				<line class="st3" x1="362.4" y1="361" x2="397.4" y2="381.3"/>
				<polyline class="st2" points="400.8,383.2 403.8,385 400.8,386.7 				"/>
				<line class="st3" x1="394" y1="390.7" x2="358.9" y2="410.9"/>
				<polyline class="st2" points="355.5,412.9 352.5,414.6 349.5,412.9 				"/>
				<line class="st3" x1="342.6" y1="408.9" x2="307.6" y2="388.7"/>
			</g>
		</g>
		<g>
			<g>
				<polyline class="st2" points="252.9,416.4 249.9,414.6 252.9,412.9 				"/>
				<line class="st3" x1="259.7" y1="408.9" x2="294.7" y2="388.7"/>
				<polyline class="st2" points="298.1,386.7 301.2,385 304.2,386.7 				"/>
				<line class="st3" x1="311" y1="390.7" x2="346.1" y2="410.9"/>
				<polyline class="st2" points="349.5,412.9 352.5,414.6 349.5,416.4 				"/>
				<line class="st3" x1="342.6" y1="420.3" x2="307.6" y2="440.5"/>
				<polyline class="st2" points="304.2,442.5 301.2,444.2 298.1,442.5 				"/>
				<line class="st3" x1="291.3" y1="438.5" x2="256.3" y2="418.3"/>
			</g>
		</g>
		<g>
			<g>
				<polyline class="st2" points="355.5,357.1 352.5,355.4 355.5,353.6 				"/>
				<line class="st3" x1="362.4" y1="349.7" x2="397.4" y2="329.4"/>
				<polyline class="st2" points="400.8,327.5 403.8,325.7 406.9,327.5 				"/>
				<line class="st3" x1="413.7" y1="331.4" x2="448.7" y2="351.6"/>
				<polyline class="st2" points="452.1,353.6 455.1,355.4 452.1,357.1 				"/>
				<line class="st3" x1="445.3" y1="361" x2="410.3" y2="381.3"/>
				<polyline class="st2" points="406.9,383.2 403.8,385 400.8,383.2 				"/>
				<line class="st3" x1="394" y1="379.3" x2="358.9" y2="359.1"/>
			</g>
		</g>
		<g>
			<g>
				<polyline class="st2" points="304.2,268.2 301.2,266.5 304.2,264.7 				"/>
				<line class="st3" x1="311" y1="260.8" x2="346.1" y2="240.6"/>
				<polyline class="st2" points="349.5,238.6 352.5,236.8 355.5,238.6 				"/>
				<line class="st3" x1="362.4" y1="242.5" x2="397.4" y2="262.7"/>
				<polyline class="st2" points="400.8,264.7 403.8,266.5 400.8,268.2 				"/>
				<line class="st3" x1="394" y1="272.2" x2="358.9" y2="292.4"/>
				<polyline class="st2" points="355.5,294.3 352.5,296.1 349.5,294.3 				"/>
				<line class="st3" x1="342.6" y1="290.4" x2="307.6" y2="270.2"/>
			</g>
		</g>
		<g>
			<g>
				<polyline class="st2" points="355.5,238.6 352.5,236.8 355.5,235.1 				"/>
				<line class="st3" x1="362.4" y1="231.1" x2="397.4" y2="210.9"/>
				<polyline class="st2" points="400.8,209 403.8,207.2 406.8,209 				"/>
				<line class="st3" x1="413.7" y1="212.9" x2="448.7" y2="233.1"/>
				<polyline class="st2" points="452.1,235.1 455.1,236.8 452.1,238.6 				"/>
				<line class="st3" x1="445.3" y1="242.5" x2="410.3" y2="262.7"/>
				<polyline class="st2" points="406.8,264.7 403.8,266.5 400.8,264.7 				"/>
				<line class="st3" x1="394" y1="260.8" x2="358.9" y2="240.6"/>
			</g>
		</g>
		<g>
			<g>
				<polyline class="st2" points="150.2,357.1 147.2,355.4 150.2,353.6 				"/>
				<line class="st3" x1="157.1" y1="349.7" x2="192.1" y2="329.4"/>
				<polyline class="st2" points="195.5,327.5 198.5,325.7 201.6,327.5 				"/>
				<line class="st3" x1="208.4" y1="331.4" x2="243.4" y2="351.6"/>
				<polyline class="st2" points="246.8,353.6 249.8,355.4 246.8,357.1 				"/>
				<line class="st3" x1="240" y1="361" x2="205" y2="381.3"/>
				<polyline class="st2" points="201.6,383.2 198.5,385 195.5,383.2 				"/>
				<line class="st3" x1="188.7" y1="379.3" x2="153.7" y2="359.1"/>
			</g>
		</g>
		<g>
			<g>
				<polyline class="st2" points="150.3,179.3 147.2,177.6 150.3,175.8 				"/>
				<line class="st3" x1="157.1" y1="171.9" x2="192.1" y2="151.7"/>
				<polyline class="st2" points="195.5,149.7 198.5,147.9 201.6,149.7 				"/>
				<line class="st3" x1="208.4" y1="153.6" x2="243.4" y2="173.9"/>
				<polyline class="st2" points="246.8,175.8 249.9,177.6 246.8,179.3 				"/>
				<line class="st3" x1="240" y1="183.3" x2="205" y2="203.5"/>
				<polyline class="st2" points="201.6,205.5 198.5,207.2 195.5,205.5 				"/>
				<line class="st3" x1="188.7" y1="201.5" x2="153.7" y2="181.3"/>
			</g>
		</g>
		<g>
			<g>
				<polyline class="st2" points="201.6,149.7 198.5,148 201.6,146.2 				"/>
				<line class="st3" x1="208.4" y1="142.3" x2="243.4" y2="122"/>
				<polyline class="st2" points="246.8,120.1 249.8,118.3 252.9,120.1 				"/>
				<line class="st3" x1="259.7" y1="124" x2="294.7" y2="144.2"/>
				<polyline class="st2" points="298.1,146.2 301.2,148 298.1,149.7 				"/>
				<line class="st3" x1="291.3" y1="153.6" x2="256.3" y2="173.9"/>
				<polyline class="st2" points="252.9,175.8 249.8,177.6 246.8,175.8 				"/>
				<line class="st3" x1="240" y1="171.9" x2="205" y2="151.7"/>
			</g>
		</g>
		<g>
			<g>
				<polyline class="st2" points="304.2,209 301.2,207.2 304.2,205.5 				"/>
				<line class="st3" x1="311" y1="201.5" x2="346" y2="181.3"/>
				<polyline class="st2" points="349.5,179.3 352.5,177.6 355.5,179.3 				"/>
				<line class="st3" x1="362.4" y1="183.3" x2="397.4" y2="203.5"/>
				<polyline class="st2" points="400.8,205.5 403.8,207.2 400.8,209 				"/>
				<line class="st3" x1="394" y1="212.9" x2="358.9" y2="233.1"/>
				<polyline class="st2" points="355.5,235.1 352.5,236.8 349.5,235.1 				"/>
				<line class="st3" x1="342.6" y1="231.1" x2="307.6" y2="210.9"/>
			</g>
		</g>
		<g>
			<g>
				<polyline class="st2" points="304.2,149.7 301.2,147.9 304.2,146.2 				"/>
				<line class="st3" x1="311" y1="142.3" x2="346" y2="122"/>
				<polyline class="st2" points="349.5,120.1 352.5,118.3 355.5,120.1 				"/>
				<line class="st3" x1="362.4" y1="124" x2="397.4" y2="144.2"/>
				<polyline class="st2" points="400.8,146.2 403.8,147.9 400.8,149.7 				"/>
				<line class="st3" x1="394" y1="153.6" x2="358.9" y2="173.9"/>
				<polyline class="st2" points="355.5,175.8 352.5,177.6 349.5,175.8 				"/>
				<line class="st3" x1="342.6" y1="171.9" x2="307.6" y2="151.7"/>
			</g>
		</g>
		<g>
			<g>
				<polyline class="st2" points="253.1,238.6 250.1,236.8 253.1,235.1 				"/>
				<line class="st3" x1="260" y1="231.1" x2="295" y2="210.9"/>
				<polyline class="st2" points="298.4,209 301.4,207.2 304.5,209 				"/>
				<line class="st3" x1="311.3" y1="212.9" x2="346.3" y2="233.1"/>
				<polyline class="st2" points="349.7,235.1 352.7,236.8 349.7,238.6 				"/>
				<line class="st3" x1="342.9" y1="242.5" x2="307.9" y2="262.7"/>
				<polyline class="st2" points="304.5,264.7 301.4,266.5 298.4,264.7 				"/>
				<line class="st3" x1="291.6" y1="260.8" x2="256.5" y2="240.6"/>
			</g>
		</g>
	</g>
</g>
<g id="Ebene_1">
	<g>
		<defs>
			
				<ellipse id="SVGID_1_" transform="matrix(0.9202 -0.3915 0.3915 0.9202 -603.9178 320.511)" cx="483.9" cy="1641.1" rx="32.2" ry="55.7"/>
		</defs>
		<clipPath id="SVGID_2_">
			<use xlink:href="#SVGID_1_"  style="overflow:visible;"/>
		</clipPath>
		<g class="st4">
			<defs>
				<rect id="SVGID_3_" x="-543.3" y="-2484.5" width="1440" height="5402"/>
			</defs>
			<clipPath id="SVGID_4_">
				<use xlink:href="#SVGID_3_"  style="overflow:visible;"/>
			</clipPath>
			
				<rect x="446.8" y="1580.4" transform="matrix(0.9202 -0.3915 0.3915 0.9202 -603.9153 320.5089)" class="st5" width="74.3" height="121.4"/>
		</g>
	</g>
	<g>
		<defs>
			<path id="SVGID_5_" d="M483.7,1704.7c30.7,19.1,56.3,57.6,67,96.6c-18.5,11.3-43,10-69.5-6.5c-27.4-17.1-51.6-47.3-68.2-81.9
				C427,1690.5,453.8,1686,483.7,1704.7z"/>
		</defs>
		<clipPath id="SVGID_6_">
			<use xlink:href="#SVGID_5_"  style="overflow:visible;"/>
		</clipPath>
		<g class="st6">
			<defs>
				<rect id="SVGID_7_" x="-543.3" y="-2484.5" width="1440" height="5402"/>
			</defs>
			<clipPath id="SVGID_8_">
				<use xlink:href="#SVGID_7_"  style="overflow:visible;"/>
			</clipPath>
			
				<rect x="420.6" y="1675.4" transform="matrix(3.489948e-02 -0.9994 0.9994 3.489948e-02 -1284.3741 2171.3975)" class="st7" width="123" height="150.7"/>
		</g>
	</g>
	<g>
		<defs>
			<path id="SVGID_9_" d="M476.6,1705.4c30.8,19.2,56.5,57.8,67.3,97c-18.5,11.3-43.2,10.1-69.7-6.5c-27.5-17.2-51.8-47.4-68.4-82.3
				C419.7,1691.3,446.6,1686.7,476.6,1705.4z"/>
		</defs>
		<clipPath id="SVGID_10_">
			<use xlink:href="#SVGID_9_"  style="overflow:visible;"/>
		</clipPath>
		<g class="st8">
			<defs>
				<rect id="SVGID_11_" x="-543.3" y="-2484.5" width="1440" height="5402"/>
			</defs>
			<clipPath id="SVGID_12_">
				<use xlink:href="#SVGID_11_"  style="overflow:visible;"/>
			</clipPath>
			
				<rect x="413.4" y="1676.1" transform="matrix(3.489913e-02 -0.9994 0.9994 3.489913e-02 -1292.0411 2165.345)" class="st9" width="123.4" height="151.1"/>
		</g>
	</g>
	<g>
		<defs>
			<path id="SVGID_13_" d="M481.4,1594.7c20.4,12.7,36,44.4,34.8,70.7c-1.1,26.3-18.6,37.4-38.9,24.6c-20.4-12.7-36-44.4-34.8-70.7
				C443.6,1593.1,460.9,1582,481.4,1594.7z"/>
		</defs>
		<clipPath id="SVGID_14_">
			<use xlink:href="#SVGID_13_"  style="overflow:visible;"/>
		</clipPath>
		<g class="st10">
			<defs>
				<rect id="SVGID_15_" x="-543.3" y="-2484.5" width="1440" height="5402"/>
			</defs>
			<clipPath id="SVGID_16_">
				<use xlink:href="#SVGID_15_"  style="overflow:visible;"/>
			</clipPath>
			
				<rect x="421.9" y="1599.7" transform="matrix(3.490045e-02 -0.9994 0.9994 3.490045e-02 -1178.7605 2064.0874)" class="st11" width="114.8" height="85.3"/>
		</g>
	</g>
	<g>
		<defs>
			
				<ellipse id="SVGID_17_" transform="matrix(0.9202 -0.3915 0.3915 0.9202 -603.5732 412.2008)" cx="708.9" cy="1686.1" rx="32.2" ry="55.7"/>
		</defs>
		<clipPath id="SVGID_18_">
			<use xlink:href="#SVGID_17_"  style="overflow:visible;"/>
		</clipPath>
		<g class="st12">
			<defs>
				<rect id="SVGID_19_" x="-318.3" y="-2439.5" width="1440" height="5402"/>
			</defs>
			<clipPath id="SVGID_20_">
				<use xlink:href="#SVGID_19_"  style="overflow:visible;"/>
			</clipPath>
			
				<rect x="671.8" y="1625.4" transform="matrix(0.9202 -0.3915 0.3915 0.9202 -603.5709 412.1984)" class="st13" width="74.3" height="121.4"/>
		</g>
	</g>
	<g>
		<defs>
			<path id="SVGID_21_" d="M708.7,1749.7c30.7,19.1,56.3,57.6,67,96.6c-18.5,11.3-43,10-69.5-6.5c-27.4-17.1-51.6-47.3-68.2-81.9
				C652,1735.5,678.8,1731,708.7,1749.7z"/>
		</defs>
		<clipPath id="SVGID_22_">
			<use xlink:href="#SVGID_21_"  style="overflow:visible;"/>
		</clipPath>
		<g class="st14">
			<defs>
				<rect id="SVGID_23_" x="-318.3" y="-2439.5" width="1440" height="5402"/>
			</defs>
			<clipPath id="SVGID_24_">
				<use xlink:href="#SVGID_23_"  style="overflow:visible;"/>
			</clipPath>
			
				<rect x="645.6" y="1720.4" transform="matrix(3.489948e-02 -0.9994 0.9994 3.489948e-02 -1112.1991 2439.6899)" class="st15" width="123" height="150.7"/>
		</g>
	</g>
	<g>
		<defs>
			<path id="SVGID_25_" d="M701.6,1750.4c30.8,19.2,56.5,57.8,67.3,97c-18.5,11.3-43.2,10.1-69.7-6.5
				c-27.5-17.2-51.8-47.4-68.4-82.3C644.7,1736.3,671.6,1731.7,701.6,1750.4z"/>
		</defs>
		<clipPath id="SVGID_26_">
			<use xlink:href="#SVGID_25_"  style="overflow:visible;"/>
		</clipPath>
		<g class="st16">
			<defs>
				<rect id="SVGID_27_" x="-318.3" y="-2439.5" width="1440" height="5402"/>
			</defs>
			<clipPath id="SVGID_28_">
				<use xlink:href="#SVGID_27_"  style="overflow:visible;"/>
			</clipPath>
			
				<rect x="638.4" y="1721.1" transform="matrix(3.489913e-02 -0.9994 0.9994 3.489913e-02 -1119.866 2433.6375)" class="st17" width="123.4" height="151.1"/>
		</g>
	</g>
	<g>
		<defs>
			<path id="SVGID_29_" d="M706.4,1639.7c20.4,12.7,36,44.4,34.8,70.7c-1.1,26.3-18.6,37.4-38.9,24.6c-20.4-12.7-36-44.4-34.8-70.7
				C668.6,1638.1,685.9,1627,706.4,1639.7z"/>
		</defs>
		<clipPath id="SVGID_30_">
			<use xlink:href="#SVGID_29_"  style="overflow:visible;"/>
		</clipPath>
		<g class="st18">
			<defs>
				<rect id="SVGID_31_" x="-318.3" y="-2439.5" width="1440" height="5402"/>
			</defs>
			<clipPath id="SVGID_32_">
				<use xlink:href="#SVGID_31_"  style="overflow:visible;"/>
			</clipPath>
			
				<rect x="646.9" y="1644.7" transform="matrix(3.490045e-02 -0.9994 0.9994 3.490045e-02 -1006.5857 2332.3796)" class="st19" width="114.8" height="85.3"/>
		</g>
	</g>
	<g>
		<defs>
			
				<ellipse id="SVGID_33_" transform="matrix(0.9202 -0.3915 0.3915 0.9202 -603.5732 412.2008)" cx="708.9" cy="1686.1" rx="32.2" ry="55.7"/>
		</defs>
		<clipPath id="SVGID_34_">
			<use xlink:href="#SVGID_33_"  style="overflow:visible;"/>
		</clipPath>
		<g class="st20">
			<defs>
				<rect id="SVGID_35_" x="-318.3" y="-2439.5" width="1440" height="5402"/>
			</defs>
			<clipPath id="SVGID_36_">
				<use xlink:href="#SVGID_35_"  style="overflow:visible;"/>
			</clipPath>
			
				<rect x="671.8" y="1625.4" transform="matrix(0.9202 -0.3915 0.3915 0.9202 -603.5709 412.1984)" class="st21" width="74.3" height="121.4"/>
		</g>
	</g>
	<g>
		<defs>
			<path id="SVGID_37_" d="M708.7,1749.7c30.7,19.1,56.3,57.6,67,96.6c-18.5,11.3-43,10-69.5-6.5c-27.4-17.1-51.6-47.3-68.2-81.9
				C652,1735.5,678.8,1731,708.7,1749.7z"/>
		</defs>
		<clipPath id="SVGID_38_">
			<use xlink:href="#SVGID_37_"  style="overflow:visible;"/>
		</clipPath>
		<g class="st22">
			<defs>
				<rect id="SVGID_39_" x="-318.3" y="-2439.5" width="1440" height="5402"/>
			</defs>
			<clipPath id="SVGID_40_">
				<use xlink:href="#SVGID_39_"  style="overflow:visible;"/>
			</clipPath>
			
				<rect x="645.6" y="1720.4" transform="matrix(3.489948e-02 -0.9994 0.9994 3.489948e-02 -1112.1991 2439.6899)" class="st23" width="123" height="150.7"/>
		</g>
	</g>
	<g>
		<defs>
			<path id="SVGID_41_" d="M701.6,1750.4c30.8,19.2,56.5,57.8,67.3,97c-18.5,11.3-43.2,10.1-69.7-6.5
				c-27.5-17.2-51.8-47.4-68.4-82.3C644.7,1736.3,671.6,1731.7,701.6,1750.4z"/>
		</defs>
		<clipPath id="SVGID_42_">
			<use xlink:href="#SVGID_41_"  style="overflow:visible;"/>
		</clipPath>
		<g class="st24">
			<defs>
				<rect id="SVGID_43_" x="-318.3" y="-2439.5" width="1440" height="5402"/>
			</defs>
			<clipPath id="SVGID_44_">
				<use xlink:href="#SVGID_43_"  style="overflow:visible;"/>
			</clipPath>
			
				<rect x="638.4" y="1721.1" transform="matrix(3.489913e-02 -0.9994 0.9994 3.489913e-02 -1119.866 2433.6375)" class="st25" width="123.4" height="151.1"/>
		</g>
	</g>
	<g>
		<defs>
			<path id="SVGID_45_" d="M706.4,1639.7c20.4,12.7,36,44.4,34.8,70.7c-1.1,26.3-18.6,37.4-38.9,24.6c-20.4-12.7-36-44.4-34.8-70.7
				C668.6,1638.1,685.9,1627,706.4,1639.7z"/>
		</defs>
		<clipPath id="SVGID_46_">
			<use xlink:href="#SVGID_45_"  style="overflow:visible;"/>
		</clipPath>
		<g class="st26">
			<defs>
				<rect id="SVGID_47_" x="-318.3" y="-2439.5" width="1440" height="5402"/>
			</defs>
			<clipPath id="SVGID_48_">
				<use xlink:href="#SVGID_47_"  style="overflow:visible;"/>
			</clipPath>
			
				<rect x="646.9" y="1644.7" transform="matrix(3.490045e-02 -0.9994 0.9994 3.490045e-02 -1006.5857 2332.3796)" class="st27" width="114.8" height="85.3"/>
		</g>
	</g>
	<g>
		<polygon class="st28" points="5.5,186.5 113.3,124.3 221.1,186.5 113.3,248.8 		"/>
		<g>
			<g>
				<ellipse id="Oval_30_" class="st29" cx="128.6" cy="142.3" rx="2.9" ry="1.7"/>
				<ellipse id="Oval_29_" class="st29" cx="121.7" cy="138.3" rx="2.9" ry="1.7"/>
				<ellipse id="Oval_28_" class="st29" cx="114.6" cy="134.2" rx="2.9" ry="1.7"/>
			</g>
			<path class="st29" d="M183.9,195.1l-85.4-49.3c-1.4-0.8-1.2-2.2,0.4-3.2l6-3.5c1.6-0.9,4.1-1,5.5-0.2l85.4,49.3
				c1.4,0.8,1.2,2.2-0.4,3.2l-6,3.5C187.7,195.8,185.3,195.9,183.9,195.1z"/>
			<g class="st30">
				<defs>
					<path id="SVGID_49_" class="st30" d="M103.3,204c4.2-3.1-1.1-5.7-1.1-5.7c2-1.3,2.7-1.6,3-1.7c4-0.4,7.5-2.2,7.5-2.2
						c0.5,1.6,2.4,1.7,9-0.6c6.7-2.4,3.4-2.9,3.4-2.9c8.5-4.6,8.1-6.6,8.1-6.6s0.8-0.1,1.5-2.7c0.7-2.6-0.3-5.4-1.4-7.2
						c-1.2-1.8-5.3-3.9-5.3-3.9c-0.3-0.9-2.1-2.4-2.7-2.8c-0.6-0.4-3.6,0.6-3.6,0.6c-1-0.6-5.1,0.3-5.1,0.3
						c-0.9-0.4-2.8-0.1-2.8-0.1c1.5,0.9-0.4,1.9-2.2,1.4c-1.8-0.4-2.5,0.3-6,0.9c-3.5,0.6-7.5,5.1-7.5,5.1c-1.7-1.3-4.7,2.5-6.9,4.4
						c-2.2,2,0.8,2.5,0.8,2.5c-3,1.2-3,4.5-3.2,4.9c-0.2,0.4-2.6,1.5-2.6,1.5c-8.4-4.9-10.6,1.2-15.2-0.5c-3-1.1-15-3.7-22.8-5.3
						c-0.3,1.8-0.4,3.5-0.2,5.3c0.7,7.5,5.9,14.8,15.4,20.7c0.4,0.2,0.7,0.4,1.1,0.6c0.4,0.2,0.7,0.4,1.1,0.6
						c10.2,5.6,23.2,8.6,36.3,8.9c1.2,0,2.4,0,3.6,0c-0.3-3.5-0.7-6.8-0.9-8.2C103.8,208.2,99.1,207.1,103.3,204z"/>
				</defs>
				<use xlink:href="#SVGID_49_"  style="overflow:visible;fill:#DFE2E7;"/>
				<clipPath id="SVGID_50_">
					<use xlink:href="#SVGID_49_"  style="overflow:visible;"/>
				</clipPath>
				<path class="st31" d="M144.4,163.9c-22.1-12.8-58-12.8-80.1,0c-9.5,5.5-14.9,12.4-16.2,19.6c7.7,1.6,19.7,4.2,22.8,5.3
					c4.6,1.7,6.8-4.4,15.2,0.5c0,0,2.5-1.1,2.6-1.5c0.2-0.4,0.2-3.6,3.2-4.9c0,0-3-0.6-0.8-2.5c2.2-2,5.2-5.8,6.9-4.4
					c0,0,4.1-4.5,7.5-5.1c3.5-0.6,4.2-1.4,6-0.9c1.8,0.4,3.6-0.5,2.2-1.4c0,0,1.9-0.3,2.8,0.1c0,0,4-0.9,5.1-0.3c0,0,3-1,3.6-0.6
					c0.6,0.4,2.4,2,2.7,2.8c0,0,4.2,2.1,5.3,3.9c1.2,1.8,2.2,4.6,1.4,7.2c-0.7,2.6-1.5,2.7-1.5,2.7s0.4,2-8.1,6.6
					c0,0,3.2,0.5-3.4,2.9c-6.7,2.4-8.5,2.2-9,0.6c0,0-3.5,1.9-7.5,2.2c-0.3,0-0.9,0.3-3,1.7c0,0,5.3,2.6,1.1,5.7
					c-4.2,3.1,0.5,4.1,1.2,7.5c0.3,1.3,0.6,4.6,0.9,8.2c14.1-0.1,28.2-3.3,39-9.6C166.6,197.4,166.6,176.7,144.4,163.9z"/>
			</g>
		</g>
		<g>
			
				<image style="overflow:visible;opacity:0.15;" width="127" height="89" xlink:href="7E511FF3.png"  transform="matrix(1 0 0 1 -4.0045 176.8963)">
			</image>
			<g>
				<polygon class="st32" points="5.5,194.3 5.5,186.5 113.3,248.7 113.3,256.6 				"/>
			</g>
		</g>
		<polygon class="st28" points="5.5,311 113.3,248.8 221.1,311 113.3,373.2 		"/>
		<polygon class="st28" points="113.3,124.3 221.1,62 328.9,124.3 221.1,186.5 		"/>
		<g>
			<g>
				<ellipse id="Oval_27_" class="st29" cx="229.9" cy="80.1" rx="2.9" ry="1.7"/>
				<ellipse id="Oval_26_" class="st29" cx="223" cy="76.1" rx="2.9" ry="1.7"/>
				<ellipse id="Oval_25_" class="st29" cx="215.9" cy="72" rx="2.9" ry="1.7"/>
			</g>
			<path class="st29" d="M285.2,132.9l-85.4-49.3c-1.4-0.8-1.2-2.2,0.4-3.2l6-3.5c1.6-0.9,4.1-1,5.5-0.2l85.4,49.3
				c1.4,0.8,1.2,2.2-0.4,3.2l-6,3.5C289,133.6,286.6,133.7,285.2,132.9z"/>
			<g class="st30">
				<defs>
					<path id="SVGID_51_" class="st30" d="M204.6,141.8c4.2-3.1-1.1-5.7-1.1-5.7c2-1.3,2.7-1.6,3-1.7c4-0.4,7.5-2.2,7.5-2.2
						c0.5,1.6,2.4,1.7,9-0.6c6.7-2.4,3.4-2.9,3.4-2.9c8.5-4.6,8.1-6.6,8.1-6.6s0.8-0.1,1.5-2.7c0.7-2.6-0.3-5.4-1.4-7.2
						c-1.2-1.8-5.3-3.9-5.3-3.9c-0.3-0.9-2.1-2.4-2.7-2.8c-0.6-0.4-3.6,0.6-3.6,0.6c-1-0.6-5.1,0.3-5.1,0.3
						c-0.9-0.4-2.8-0.1-2.8-0.1c1.5,0.9-0.4,1.9-2.2,1.4c-1.8-0.4-2.5,0.3-6,0.9c-3.5,0.6-7.5,5.1-7.5,5.1c-1.7-1.3-4.7,2.5-6.9,4.4
						c-2.2,2,0.8,2.5,0.8,2.5c-3,1.2-3,4.5-3.2,4.9c-0.2,0.4-2.6,1.5-2.6,1.5c-8.4-4.9-10.6,1.2-15.2-0.5c-3-1.1-15-3.7-22.8-5.3
						c-0.3,1.8-0.4,3.5-0.2,5.3c0.7,7.5,5.9,14.8,15.4,20.7c0.4,0.2,0.7,0.4,1.1,0.6c0.4,0.2,0.7,0.4,1.1,0.6
						c10.2,5.6,23.2,8.6,36.3,8.9c1.2,0,2.4,0,3.6,0c-0.3-3.5-0.7-6.8-0.9-8.2C205.2,146,200.5,144.9,204.6,141.8z"/>
				</defs>
				<use xlink:href="#SVGID_51_"  style="overflow:visible;fill:#DFE2E7;"/>
				<clipPath id="SVGID_52_">
					<use xlink:href="#SVGID_51_"  style="overflow:visible;"/>
				</clipPath>
				<path class="st33" d="M245.8,101.7c-22.1-12.8-58-12.8-80.1,0c-9.5,5.5-14.9,12.4-16.2,19.6c7.7,1.6,19.7,4.2,22.8,5.3
					c4.6,1.7,6.8-4.4,15.2,0.5c0,0,2.5-1.1,2.6-1.5c0.2-0.4,0.2-3.6,3.2-4.9c0,0-3-0.6-0.8-2.5c2.2-2,5.2-5.8,6.9-4.4
					c0,0,4.1-4.5,7.5-5.1c3.5-0.6,4.2-1.4,6-0.9c1.8,0.4,3.6-0.5,2.2-1.4c0,0,1.9-0.3,2.8,0.1c0,0,4-0.9,5.1-0.3c0,0,3-1,3.6-0.6
					c0.6,0.4,2.4,2,2.7,2.8c0,0,4.2,2.1,5.3,3.9c1.2,1.8,2.2,4.6,1.4,7.2c-0.7,2.6-1.5,2.7-1.5,2.7s0.4,2-8.1,6.6
					c0,0,3.2,0.5-3.4,2.9c-6.7,2.4-8.5,2.2-9,0.6c0,0-3.5,1.9-7.5,2.2c-0.3,0-0.9,0.3-3,1.7c0,0,5.3,2.6,1.1,5.7
					c-4.2,3.1,0.5,4.1,1.2,7.5c0.3,1.3,0.6,4.6,0.9,8.2c14.1-0.1,28.2-3.3,39-9.6C267.9,135.2,267.9,114.5,245.8,101.7z"/>
			</g>
		</g>
		<g>
			<g>
				<ellipse id="Oval_33_" class="st29" cx="135" cy="261.6" rx="2.9" ry="1.7"/>
				<ellipse id="Oval_32_" class="st29" cx="128" cy="257.6" rx="2.9" ry="1.7"/>
				<ellipse id="Oval_31_" class="st29" cx="121" cy="253.5" rx="2.9" ry="1.7"/>
			</g>
			<path class="st29" d="M190.2,314.4l-85.4-49.3c-1.4-0.8-1.2-2.2,0.4-3.2l6-3.5c1.6-0.9,4.1-1,5.5-0.2l85.4,49.3
				c1.4,0.8,1.2,2.2-0.4,3.2l-6,3.5C194.1,315.1,191.6,315.2,190.2,314.4z"/>
			<g class="st30">
				<defs>
					<path id="SVGID_53_" class="st30" d="M109.7,323.3c4.2-3.1-1.1-5.7-1.1-5.7c2-1.3,2.7-1.6,3-1.7c4-0.4,7.5-2.2,7.5-2.2
						c0.5,1.6,2.4,1.7,9-0.6c6.7-2.4,3.4-2.9,3.4-2.9c8.5-4.6,8.1-6.6,8.1-6.6s0.8-0.1,1.5-2.7c0.7-2.6-0.3-5.4-1.4-7.2
						c-1.2-1.8-5.3-3.9-5.3-3.9c-0.3-0.9-2.1-2.4-2.7-2.8c-0.6-0.4-3.6,0.6-3.6,0.6c-1-0.6-5.1,0.3-5.1,0.3
						c-0.9-0.4-2.8-0.1-2.8-0.1c1.5,0.9-0.4,1.9-2.2,1.4c-1.8-0.4-2.5,0.3-6,0.9c-3.5,0.6-7.5,5.1-7.5,5.1c-1.7-1.3-4.7,2.5-6.9,4.4
						c-2.2,2,0.8,2.5,0.8,2.5c-3,1.2-3,4.5-3.2,4.9c-0.2,0.4-2.6,1.5-2.6,1.5c-8.4-4.9-10.6,1.2-15.2-0.5c-3-1.1-15-3.7-22.8-5.3
						c-0.3,1.8-0.4,3.5-0.2,5.3c0.7,7.5,5.9,14.8,15.4,20.7c0.4,0.2,0.7,0.4,1.1,0.6c0.4,0.2,0.7,0.4,1.1,0.6
						c10.2,5.6,23.2,8.6,36.3,8.9c1.2,0,2.4,0,3.6,0c-0.3-3.5-0.7-6.8-0.9-8.2C110.2,327.4,105.5,326.4,109.7,323.3z"/>
				</defs>
				<use xlink:href="#SVGID_53_"  style="overflow:visible;fill:#DFE2E7;"/>
				<clipPath id="SVGID_54_">
					<use xlink:href="#SVGID_53_"  style="overflow:visible;"/>
				</clipPath>
				<path class="st34" d="M150.8,283.2c-22.1-12.8-58-12.8-80.1,0c-9.5,5.5-14.9,12.4-16.2,19.6c7.7,1.6,19.7,4.2,22.8,5.3
					c4.6,1.7,6.8-4.4,15.2,0.5c0,0,2.5-1.1,2.6-1.5c0.2-0.4,0.2-3.6,3.2-4.9c0,0-3-0.6-0.8-2.5c2.2-2,5.2-5.8,6.9-4.4
					c0,0,4.1-4.5,7.5-5.1c3.5-0.6,4.2-1.4,6-0.9c1.8,0.4,3.6-0.5,2.2-1.4c0,0,1.9-0.3,2.8,0.1c0,0,4-0.9,5.1-0.3c0,0,3-1,3.6-0.6
					c0.6,0.4,2.4,2,2.7,2.8c0,0,4.2,2.1,5.3,3.9c1.2,1.8,2.2,4.6,1.4,7.2c-0.7,2.6-1.5,2.7-1.5,2.7s0.4,2-8.1,6.6
					c0,0,3.2,0.5-3.4,2.9c-6.7,2.4-8.5,2.2-9,0.6c0,0-3.5,1.9-7.5,2.2c-0.3,0-0.9,0.3-3,1.7c0,0,5.3,2.6,1.1,5.7
					c-4.2,3.1,0.5,4.1,1.2,7.5c0.3,1.3,0.6,4.6,0.9,8.2c14.1-0.1,28.2-3.3,39-9.6C172.9,316.7,172.9,296,150.8,283.2z"/>
			</g>
		</g>
		<polygon class="st28" points="221.1,62 328.9,-0.2 436.6,62 328.9,124.3 		"/>
		<polygon class="st32" points="328.8,124.2 328.8,132.1 436.6,69.9 436.6,62 		"/>
		<polygon class="st28" points="221,186.5 328.8,124.2 436.6,186.5 328.8,248.7 		"/>
		<g>
			
				<image style="overflow:visible;opacity:0.15;" width="127" height="89" xlink:href="7E511FF1.png"  transform="matrix(1 0 0 1 318.9955 238.8963)">
			</image>
			<g>
				<polygon class="st35" points="328.8,256.6 328.8,248.7 436.6,310.9 436.6,318.8 				"/>
			</g>
		</g>
		<polygon class="st32" points="436.6,310.9 436.6,318.8 544.4,256.6 544.4,248.7 		"/>
		<polygon class="st28" points="328.8,248.7 436.6,186.5 544.4,248.7 436.6,310.9 		"/>
		<g>
			
				<image style="overflow:visible;opacity:0.15;" width="127" height="89" xlink:href="7E511FF7.png"  transform="matrix(1 0 0 1 318.9955 363.8964)">
			</image>
			<g>
				<polygon class="st35" points="328.9,381 328.9,373.2 436.6,435.4 436.6,443.3 				"/>
			</g>
		</g>
		<polygon class="st32" points="436.6,435.4 436.6,443.3 544.4,381 544.4,373.2 		"/>
		<polygon class="st28" points="328.9,373.2 436.6,310.9 544.4,373.2 436.6,435.4 		"/>
		<g>
			
				<image style="overflow:visible;opacity:0.15;" width="126" height="89" xlink:href="7E511FF0.png"  transform="matrix(1 0 0 1 211.9955 301.8964)">
			</image>
			<g>
				<polygon class="st35" points="221,318.9 221,311 328.8,373.2 328.8,381.1 				"/>
			</g>
		</g>
		<polygon class="st28" points="221,311 328.8,248.8 436.6,311 328.8,373.2 		"/>
		<g>
			<g>
				<ellipse id="Oval_15_" class="st29" cx="336.5" cy="263.7" rx="2.9" ry="1.7"/>
				<ellipse id="Oval_14_" class="st29" cx="329.6" cy="259.7" rx="2.9" ry="1.7"/>
				<ellipse id="Oval_13_" class="st29" cx="322.5" cy="255.6" rx="2.9" ry="1.7"/>
			</g>
			<path class="st29" d="M391.8,316.5l-85.4-49.3c-1.4-0.8-1.2-2.2,0.4-3.2l6-3.5c1.6-0.9,4.1-1,5.5-0.2l85.4,49.3
				c1.4,0.8,1.2,2.2-0.4,3.2l-6,3.5C395.6,317.2,393.2,317.3,391.8,316.5z"/>
			<g class="st30">
				<defs>
					<path id="SVGID_55_" class="st30" d="M311.2,325.4c4.2-3.1-1.1-5.7-1.1-5.7c2-1.3,2.7-1.6,3-1.7c4-0.4,7.5-2.2,7.5-2.2
						c0.5,1.6,2.4,1.7,9-0.6c6.7-2.4,3.4-2.9,3.4-2.9c8.5-4.6,8.1-6.6,8.1-6.6s0.8-0.1,1.5-2.7c0.7-2.6-0.3-5.4-1.4-7.2
						c-1.2-1.8-5.3-3.9-5.3-3.9c-0.3-0.9-2.1-2.4-2.7-2.8c-0.6-0.4-3.6,0.6-3.6,0.6c-1-0.6-5.1,0.3-5.1,0.3
						c-0.9-0.4-2.8-0.1-2.8-0.1c1.5,0.9-0.4,1.9-2.2,1.4c-1.8-0.4-2.5,0.3-6,0.9c-3.5,0.6-7.5,5.1-7.5,5.1c-1.7-1.3-4.7,2.5-6.9,4.4
						c-2.2,2,0.8,2.5,0.8,2.5c-3,1.2-3,4.5-3.2,4.9c-0.2,0.4-2.6,1.5-2.6,1.5c-8.4-4.9-10.6,1.2-15.2-0.5c-3-1.1-15-3.7-22.8-5.3
						c-0.3,1.8-0.4,3.5-0.2,5.3c0.7,7.5,5.9,14.8,15.4,20.7c0.4,0.2,0.7,0.4,1.1,0.6c0.4,0.2,0.7,0.4,1.1,0.6
						c10.2,5.6,23.2,8.6,36.3,8.9c1.2,0,2.4,0,3.6,0c-0.3-3.5-0.7-6.8-0.9-8.2C311.7,329.6,307,328.5,311.2,325.4z"/>
				</defs>
				<use xlink:href="#SVGID_55_"  style="overflow:visible;fill:#DFE2E7;"/>
				<clipPath id="SVGID_56_">
					<use xlink:href="#SVGID_55_"  style="overflow:visible;"/>
				</clipPath>
				<path class="st36" d="M352.3,285.3c-22.1-12.8-58-12.8-80.1,0c-9.5,5.5-14.9,12.4-16.2,19.6c7.7,1.6,19.7,4.2,22.8,5.3
					c4.6,1.7,6.8-4.4,15.2,0.5c0,0,2.5-1.1,2.6-1.5c0.2-0.4,0.2-3.6,3.2-4.9c0,0-3-0.6-0.8-2.5c2.2-2,5.2-5.8,6.9-4.4
					c0,0,4.1-4.5,7.5-5.1c3.5-0.6,4.2-1.4,6-0.9c1.8,0.4,3.6-0.5,2.2-1.4c0,0,1.9-0.3,2.8,0.1c0,0,4-0.9,5.1-0.3c0,0,3-1,3.6-0.6
					c0.6,0.4,2.4,2,2.7,2.8c0,0,4.2,2.1,5.3,3.9c1.2,1.8,2.2,4.6,1.4,7.2c-0.7,2.6-1.5,2.7-1.5,2.7s0.4,2-8.1,6.6
					c0,0,3.2,0.5-3.4,2.9c-6.7,2.4-8.5,2.2-9,0.6c0,0-3.5,1.9-7.5,2.2c-0.3,0-0.9,0.3-3,1.7c0,0,5.3,2.6,1.1,5.7
					c-4.2,3.1,0.5,4.1,1.2,7.5c0.3,1.3,0.6,4.6,0.9,8.2c14.1-0.1,28.2-3.3,39-9.6C374.4,318.8,374.4,298.1,352.3,285.3z"/>
			</g>
		</g>
		<g>
			<g>
				<ellipse id="Oval_18_" class="st29" cx="443" cy="199.3" rx="2.9" ry="1.7"/>
				<ellipse id="Oval_17_" class="st29" cx="436" cy="195.4" rx="2.9" ry="1.7"/>
				<ellipse id="Oval_16_" class="st29" cx="428.9" cy="191.3" rx="2.9" ry="1.7"/>
			</g>
			<path class="st29" d="M498.2,252.2l-85.4-49.3c-1.4-0.8-1.2-2.2,0.4-3.2l6-3.5c1.6-0.9,4.1-1,5.5-0.2l85.4,49.3
				c1.4,0.8,1.2,2.2-0.4,3.2l-6,3.5C502.1,252.9,499.6,253,498.2,252.2z"/>
			<g class="st30">
				<defs>
					<path id="SVGID_57_" class="st30" d="M417.7,261.1c4.2-3.1-1.1-5.7-1.1-5.7c2-1.3,2.7-1.6,3-1.7c4-0.4,7.5-2.2,7.5-2.2
						c0.5,1.6,2.4,1.7,9-0.6c6.7-2.4,3.4-2.9,3.4-2.9c8.5-4.6,8.1-6.6,8.1-6.6s0.8-0.1,1.5-2.7c0.7-2.6-0.3-5.4-1.4-7.2
						c-1.2-1.8-5.3-3.9-5.3-3.9c-0.3-0.9-2.1-2.4-2.7-2.8c-0.6-0.4-3.6,0.6-3.6,0.6c-1-0.6-5.1,0.3-5.1,0.3
						c-0.9-0.4-2.8-0.1-2.8-0.1c1.5,0.9-0.4,1.9-2.2,1.4c-1.8-0.4-2.5,0.3-6,0.9c-3.5,0.6-7.5,5.1-7.5,5.1c-1.7-1.3-4.7,2.5-6.9,4.4
						c-2.2,2,0.8,2.5,0.8,2.5c-3,1.2-3,4.5-3.2,4.9c-0.2,0.4-2.6,1.5-2.6,1.5c-8.4-4.9-10.6,1.2-15.2-0.5c-3-1.1-15-3.7-22.8-5.3
						c-0.3,1.8-0.4,3.5-0.2,5.3c0.7,7.5,5.9,14.8,15.4,20.7c0.4,0.2,0.7,0.4,1.1,0.6c0.4,0.2,0.7,0.4,1.1,0.6
						c10.2,5.6,23.2,8.6,36.3,8.9c1.2,0,2.4,0,3.6,0c-0.3-3.5-0.7-6.8-0.9-8.2C418.2,265.2,413.5,264.2,417.7,261.1z"/>
				</defs>
				<use xlink:href="#SVGID_57_"  style="overflow:visible;fill:#DFE2E7;"/>
				<clipPath id="SVGID_58_">
					<use xlink:href="#SVGID_57_"  style="overflow:visible;"/>
				</clipPath>
				<path class="st37" d="M458.8,221c-22.1-12.8-58-12.8-80.1,0c-9.5,5.5-14.9,12.4-16.2,19.6c7.7,1.6,19.7,4.2,22.8,5.3
					c4.6,1.7,6.8-4.4,15.2,0.5c0,0,2.5-1.1,2.6-1.5c0.2-0.4,0.2-3.6,3.2-4.9c0,0-3-0.6-0.8-2.5c2.2-2,5.2-5.8,6.9-4.4
					c0,0,4.1-4.5,7.5-5.1c3.5-0.6,4.2-1.4,6-0.9c1.8,0.4,3.6-0.5,2.2-1.4c0,0,1.9-0.3,2.8,0.1c0,0,4-0.9,5.1-0.3c0,0,3-1,3.6-0.6
					c0.6,0.4,2.4,2,2.7,2.8c0,0,4.2,2.1,5.3,3.9c1.2,1.8,2.2,4.6,1.4,7.2c-0.7,2.6-1.5,2.7-1.5,2.7s0.4,2-8.1,6.6
					c0,0,3.2,0.5-3.4,2.9c-6.7,2.4-8.5,2.2-9,0.6c0,0-3.5,1.9-7.5,2.2c-0.3,0-0.9,0.3-3,1.7c0,0,5.3,2.6,1.1,5.7
					c-4.2,3.1,0.5,4.1,1.2,7.5c0.3,1.3,0.6,4.6,0.9,8.2c14.1-0.1,28.2-3.3,39-9.6C480.9,254.4,480.9,233.7,458.8,221z"/>
			</g>
		</g>
		<g>
			<g>
				<ellipse id="Oval_21_" class="st29" cx="337.6" cy="139.2" rx="2.9" ry="1.7"/>
				<ellipse id="Oval_20_" class="st29" cx="330.6" cy="135.3" rx="2.9" ry="1.7"/>
				<ellipse id="Oval_19_" class="st29" cx="323.5" cy="131.2" rx="2.9" ry="1.7"/>
			</g>
			<path class="st29" d="M392.8,192.1l-85.4-49.3c-1.4-0.8-1.2-2.2,0.4-3.2l6-3.5c1.6-0.9,4.1-1,5.5-0.2l85.4,49.3
				c1.4,0.8,1.2,2.2-0.4,3.2l-6,3.5C396.7,192.8,394.2,192.9,392.8,192.1z"/>
			<g class="st30">
				<defs>
					<path id="SVGID_59_" class="st30" d="M312.3,201c4.2-3.1-1.1-5.7-1.1-5.7c2-1.3,2.7-1.6,3-1.7c4-0.4,7.5-2.2,7.5-2.2
						c0.5,1.6,2.4,1.7,9-0.6c6.7-2.4,3.4-2.9,3.4-2.9c8.5-4.6,8.1-6.6,8.1-6.6s0.8-0.1,1.5-2.7c0.7-2.6-0.3-5.4-1.4-7.2
						c-1.2-1.8-5.3-3.9-5.3-3.9c-0.3-0.9-2.1-2.4-2.7-2.8c-0.6-0.4-3.6,0.6-3.6,0.6c-1-0.6-5.1,0.3-5.1,0.3
						c-0.9-0.4-2.8-0.1-2.8-0.1c1.5,0.9-0.4,1.9-2.2,1.4c-1.8-0.4-2.5,0.3-6,0.9c-3.5,0.6-7.5,5.1-7.5,5.1c-1.7-1.3-4.7,2.5-6.9,4.4
						c-2.2,2,0.8,2.5,0.8,2.5c-3,1.2-3,4.5-3.2,4.9c-0.2,0.4-2.6,1.5-2.6,1.5c-8.4-4.9-10.6,1.2-15.2-0.5c-3-1.1-15-3.7-22.8-5.3
						c-0.3,1.8-0.4,3.5-0.2,5.3c0.7,7.5,5.9,14.8,15.4,20.7c0.4,0.2,0.7,0.4,1.1,0.6c0.4,0.2,0.7,0.4,1.1,0.6
						c10.2,5.6,23.2,8.6,36.3,8.9c1.2,0,2.4,0,3.6,0c-0.3-3.5-0.7-6.8-0.9-8.2C312.8,205.1,308.1,204.1,312.3,201z"/>
				</defs>
				<use xlink:href="#SVGID_59_"  style="overflow:visible;fill:#DFE2E7;"/>
				<clipPath id="SVGID_60_">
					<use xlink:href="#SVGID_59_"  style="overflow:visible;"/>
				</clipPath>
				<path class="st38" d="M353.4,160.9c-22.1-12.8-58-12.8-80.1,0c-9.5,5.5-14.9,12.4-16.2,19.6c7.7,1.6,19.7,4.2,22.8,5.3
					c4.6,1.7,6.8-4.4,15.2,0.5c0,0,2.5-1.1,2.6-1.5c0.2-0.4,0.2-3.6,3.2-4.9c0,0-3-0.6-0.8-2.5c2.2-2,5.2-5.8,6.9-4.4
					c0,0,4.1-4.5,7.5-5.1c3.5-0.6,4.2-1.4,6-0.9c1.8,0.4,3.6-0.5,2.2-1.4c0,0,1.9-0.3,2.8,0.1c0,0,4-0.9,5.1-0.3c0,0,3-1,3.6-0.6
					c0.6,0.4,2.4,2,2.7,2.8c0,0,4.2,2.1,5.3,3.9c1.2,1.8,2.2,4.6,1.4,7.2c-0.7,2.6-1.5,2.7-1.5,2.7s0.4,2-8.1,6.6
					c0,0,3.2,0.5-3.4,2.9c-6.7,2.4-8.5,2.2-9,0.6c0,0-3.5,1.9-7.5,2.2c-0.3,0-0.9,0.3-3,1.7c0,0,5.3,2.6,1.1,5.7
					c-4.2,3.1,0.5,4.1,1.2,7.5c0.3,1.3,0.6,4.6,0.9,8.2c14.1-0.1,28.2-3.3,39-9.6C375.5,194.3,375.5,173.6,353.4,160.9z"/>
			</g>
		</g>
		<g>
			<g>
				<ellipse id="Oval_24_" class="st29" cx="341" cy="17.8" rx="2.9" ry="1.7"/>
				<ellipse id="Oval_23_" class="st29" cx="334.1" cy="13.9" rx="2.9" ry="1.7"/>
				<ellipse id="Oval_22_" class="st29" cx="327" cy="9.8" rx="2.9" ry="1.7"/>
			</g>
			<path class="st29" d="M396.3,70.7l-85.4-49.3c-1.4-0.8-1.2-2.2,0.4-3.2l6-3.5c1.6-0.9,4.1-1,5.5-0.2l85.4,49.3
				c1.4,0.8,1.2,2.2-0.4,3.2l-6,3.5C400.1,71.4,397.7,71.5,396.3,70.7z"/>
			<g class="st30">
				<defs>
					<path id="SVGID_61_" class="st30" d="M315.7,79.6c4.2-3.1-1.1-5.7-1.1-5.7c2-1.3,2.7-1.6,3-1.7c4-0.4,7.5-2.2,7.5-2.2
						c0.5,1.6,2.4,1.7,9-0.6c6.7-2.4,3.4-2.9,3.4-2.9c8.5-4.6,8.1-6.6,8.1-6.6s0.8-0.1,1.5-2.7c0.7-2.6-0.3-5.4-1.4-7.2
						c-1.2-1.8-5.3-3.9-5.3-3.9c-0.3-0.9-2.1-2.4-2.7-2.8c-0.6-0.4-3.6,0.6-3.6,0.6c-1-0.6-5.1,0.3-5.1,0.3
						c-0.9-0.4-2.8-0.1-2.8-0.1c1.5,0.9-0.4,1.9-2.2,1.4c-1.8-0.4-2.5,0.3-6,0.9c-3.5,0.6-7.5,5.1-7.5,5.1c-1.7-1.3-4.7,2.5-6.9,4.4
						c-2.2,2,0.8,2.5,0.8,2.5c-3,1.2-3,4.5-3.2,4.9c-0.2,0.4-2.6,1.5-2.6,1.5c-8.4-4.9-10.6,1.2-15.2-0.5c-3-1.1-15-3.7-22.8-5.3
						c-0.3,1.8-0.4,3.5-0.2,5.3c0.7,7.5,5.9,14.8,15.4,20.7c0.4,0.2,0.7,0.4,1.1,0.6c0.4,0.2,0.7,0.4,1.1,0.6
						c10.2,5.6,23.2,8.6,36.3,8.9c1.2,0,2.4,0,3.6,0c-0.3-3.5-0.7-6.8-0.9-8.2C316.2,83.7,311.5,82.7,315.7,79.6z"/>
				</defs>
				<use xlink:href="#SVGID_61_"  style="overflow:visible;fill:#DFE2E7;"/>
				<clipPath id="SVGID_62_">
					<use xlink:href="#SVGID_61_"  style="overflow:visible;"/>
				</clipPath>
				<path class="st39" d="M356.8,39.5c-22.1-12.8-58-12.8-80.1,0c-9.5,5.5-14.9,12.4-16.2,19.6c7.7,1.6,19.7,4.2,22.8,5.3
					c4.6,1.7,6.8-4.4,15.2,0.5c0,0,2.5-1.1,2.6-1.5c0.2-0.4,0.2-3.6,3.2-4.9c0,0-3-0.6-0.8-2.5c2.2-2,5.2-5.8,6.9-4.4
					c0,0,4.1-4.5,7.5-5.1c3.5-0.6,4.2-1.4,6-0.9c1.8,0.4,3.6-0.5,2.2-1.4c0,0,1.9-0.3,2.8,0.1c0,0,4-0.9,5.1-0.3c0,0,3-1,3.6-0.6
					c0.6,0.4,2.4,2,2.7,2.8c0,0,4.2,2.1,5.3,3.9c1.2,1.8,2.2,4.6,1.4,7.2c-0.7,2.6-1.5,2.7-1.5,2.7s0.4,2-8.1,6.6
					c0,0,3.2,0.5-3.4,2.9c-6.7,2.4-8.5,2.2-9,0.6c0,0-3.5,1.9-7.5,2.2c-0.3,0-0.9,0.3-3,1.7c0,0,5.3,2.6,1.1,5.7
					c-4.2,3.1,0.5,4.1,1.2,7.5c0.3,1.3,0.6,4.6,0.9,8.2c14.1-0.1,28.2-3.3,39-9.6C378.9,72.9,378.9,52.2,356.8,39.5z"/>
			</g>
		</g>
		<g>
			
				<image style="overflow:visible;opacity:0.15;" width="127" height="89" xlink:href="7E511FFE.png"  transform="matrix(1 0 0 1 -4.0045 301.8964)">
			</image>
			<g>
				<polygon class="st32" points="5.5,318.9 5.5,311 113.3,373.2 113.3,381.1 				"/>
			</g>
		</g>
		<polygon class="st35" points="113.3,373.2 113.3,381.1 221.1,318.9 221.1,311 		"/>
		<polygon class="st40" points="113.3,302.3 221.1,240.1 328.9,302.3 221.1,364.5 		"/>
		<polygon class="st41" points="113.3,344.3 221.1,282.1 328.9,344.3 221.1,406.5 		"/>
		<polygon class="st40" points="113.3,248.7 221,186.5 328.8,248.7 221,310.9 		"/>
		<linearGradient id="SVGID_63_" gradientUnits="userSpaceOnUse" x1="248.4697" y1="196.7455" x2="286.2725" y2="374.5587">
			<stop  offset="0" style="stop-color:#E7F9FC;stop-opacity:0"/>
			<stop  offset="0.2414" style="stop-color:#E7F9FC"/>
			<stop  offset="0.3246" style="stop-color:#E1F7FB;stop-opacity:0.9451"/>
			<stop  offset="0.4399" style="stop-color:#CFF3F9;stop-opacity:0.8691"/>
			<stop  offset="0.574" style="stop-color:#B1ECF6;stop-opacity:0.7808"/>
			<stop  offset="0.7221" style="stop-color:#88E3F2;stop-opacity:0.6831"/>
			<stop  offset="0.88" style="stop-color:#54D6ED;stop-opacity:0.5791"/>
			<stop  offset="1" style="stop-color:#28CCE8;stop-opacity:0.5"/>
		</linearGradient>
		<polygon class="st42" points="221.1,269.4 221.1,435.4 328.8,373.2 328.8,207.2 		"/>
		<linearGradient id="SVGID_64_" gradientUnits="userSpaceOnUse" x1="169.8408" y1="179.8604" x2="166.4124" y2="361.5671">
			<stop  offset="0" style="stop-color:#E7F9FC;stop-opacity:0"/>
			<stop  offset="0.2414" style="stop-color:#E7F9FC"/>
			<stop  offset="0.3246" style="stop-color:#E1F7FB;stop-opacity:0.9451"/>
			<stop  offset="0.4399" style="stop-color:#CFF3F9;stop-opacity:0.8691"/>
			<stop  offset="0.574" style="stop-color:#B1ECF6;stop-opacity:0.7808"/>
			<stop  offset="0.7221" style="stop-color:#88E3F2;stop-opacity:0.6831"/>
			<stop  offset="0.88" style="stop-color:#54D6ED;stop-opacity:0.5791"/>
			<stop  offset="1" style="stop-color:#28CCE8;stop-opacity:0.5"/>
		</linearGradient>
		<polygon class="st43" points="113.3,207.2 113.3,373.2 221.1,435.4 221.1,269.4 		"/>
		<polygon class="st44" points="328.8,497.6 328.8,505.5 436.6,443.3 436.6,435.4 		"/>
		<polygon class="st28" points="221.1,435.4 328.8,373.2 436.6,435.4 328.8,497.6 		"/>
		<g>
			
				<image style="overflow:visible;opacity:0.15;" width="127" height="89" xlink:href="7E511FFF.png"  transform="matrix(1 0 0 1 -4.0045 425.8964)">
			</image>
			<g>
				<polygon class="st32" points="5.5,443.3 5.5,435.4 113.3,497.6 113.3,505.5 				"/>
			</g>
		</g>
		<polygon class="st32" points="113.3,497.6 113.3,505.5 221.1,443.3 221.1,435.4 		"/>
		<polygon class="st28" points="5.5,435.4 113.3,373.2 221.1,435.4 113.3,497.6 		"/>
		<g>
			
				<image style="overflow:visible;opacity:0.15;" width="127" height="89" xlink:href="7E511FF2.png"  transform="matrix(1 0 0 1 318.9955 487.8964)">
			</image>
			<g>
				<polygon class="st32" points="328.8,505.5 328.8,497.6 436.6,559.8 436.6,567.7 				"/>
			</g>
		</g>
		<polygon class="st32" points="436.6,559.8 436.6,567.7 544.4,505.5 544.4,497.6 		"/>
		<polygon class="st28" points="328.8,497.6 436.6,435.4 544.4,497.6 436.6,559.8 		"/>
		<linearGradient id="SVGID_65_" gradientUnits="userSpaceOnUse" x1="113.2826" y1="207.2144" x2="328.8414" y2="207.2144">
			<stop  offset="0" style="stop-color:#009EB3"/>
			<stop  offset="0.2584" style="stop-color:#0A90C4"/>
			<stop  offset="0.5906" style="stop-color:#604EE6"/>
			<stop  offset="1" style="stop-color:#4A00E0"/>
		</linearGradient>
		<polygon class="st45" points="113.3,207.2 221.1,145 328.8,207.2 221.1,269.4 		"/>
		<g>
			<ellipse id="Oval_2_" class="st46" cx="233.5" cy="162.9" rx="2.9" ry="1.7"/>
			<ellipse id="Oval_3_" class="st47" cx="226.5" cy="158.9" rx="2.9" ry="1.7"/>
			<ellipse id="Oval_4_" class="st48" cx="219.4" cy="154.8" rx="2.9" ry="1.7"/>
		</g>
		<path class="st28" d="M288.7,215.7l-85.4-49.3c-1.4-0.8-1.2-2.2,0.4-3.2l6-3.5c1.6-0.9,4.1-1,5.5-0.2l85.4,49.3
			c1.4,0.8,1.2,2.2-0.4,3.2l-6,3.5C292.6,216.4,290.1,216.5,288.7,215.7z"/>
		<g>
			<defs>
				<path id="SVGID_66_" d="M208.1,224.7c4.2-3.1-1.1-5.7-1.1-5.7c2-1.3,2.7-1.6,3-1.7c4-0.4,7.5-2.2,7.5-2.2c0.5,1.6,2.4,1.7,9-0.6
					c6.7-2.4,3.4-2.9,3.4-2.9c8.5-4.6,8.1-6.6,8.1-6.6s0.8-0.1,1.5-2.7c0.7-2.6-0.3-5.4-1.4-7.2c-1.2-1.8-5.3-3.9-5.3-3.9
					c-0.3-0.9-2.1-2.4-2.7-2.8c-0.6-0.4-3.6,0.6-3.6,0.6c-1-0.6-5.1,0.3-5.1,0.3c-0.9-0.4-2.8-0.1-2.8-0.1c1.5,0.9-0.4,1.9-2.2,1.4
					c-1.8-0.4-2.5,0.3-6,0.9c-3.5,0.6-7.5,5.1-7.5,5.1c-1.7-1.3-4.7,2.5-6.9,4.4c-2.2,2,0.8,2.5,0.8,2.5c-3,1.2-3,4.5-3.2,4.9
					c-0.2,0.4-2.6,1.5-2.6,1.5c-8.4-4.9-10.6,1.2-15.2-0.5c-3-1.1-15-3.7-22.8-5.3c-0.3,1.8-0.4,3.5-0.2,5.3
					c0.7,7.5,5.9,14.8,15.4,20.7c0.4,0.2,0.7,0.4,1.1,0.6c0.4,0.2,0.7,0.4,1.1,0.6c10.2,5.6,23.2,8.6,36.3,8.9c1.2,0,2.4,0,3.6,0
					c-0.3-3.5-0.7-6.8-0.9-8.2C208.7,228.8,204,227.8,208.1,224.7z"/>
			</defs>
			<use xlink:href="#SVGID_66_"  style="overflow:visible;fill:#00C0E5;"/>
			<clipPath id="SVGID_67_">
				<use xlink:href="#SVGID_66_"  style="overflow:visible;"/>
			</clipPath>
			<path class="st49" d="M249.3,184.5c-22.1-12.8-58-12.8-80.1,0c-9.5,5.5-14.9,12.4-16.2,19.6c7.7,1.6,19.7,4.2,22.8,5.3
				c4.6,1.7,6.8-4.4,15.2,0.5c0,0,2.5-1.1,2.6-1.5c0.2-0.4,0.2-3.6,3.2-4.9c0,0-3-0.6-0.8-2.5c2.2-2,5.2-5.8,6.9-4.4
				c0,0,4.1-4.5,7.5-5.1c3.5-0.6,4.2-1.4,6-0.9c1.8,0.4,3.6-0.5,2.2-1.4c0,0,1.9-0.3,2.8,0.1c0,0,4-0.9,5.1-0.3c0,0,3-1,3.6-0.6
				c0.6,0.4,2.4,2,2.7,2.8c0,0,4.2,2.1,5.3,3.9c1.2,1.8,2.2,4.6,1.4,7.2c-0.7,2.6-1.5,2.7-1.5,2.7s0.4,2-8.1,6.6
				c0,0,3.2,0.5-3.4,2.9c-6.7,2.4-8.5,2.2-9,0.6c0,0-3.5,1.9-7.5,2.2c-0.3,0-0.9,0.3-3,1.7c0,0,5.3,2.6,1.1,5.7
				c-4.2,3.1,0.5,4.1,1.2,7.5c0.3,1.3,0.6,4.6,0.9,8.2c14.1-0.1,28.2-3.3,39-9.6C271.4,218,271.4,197.3,249.3,184.5z"/>
		</g>
		<g>
			<g>
				<ellipse id="Oval_6_" class="st29" cx="452" cy="453.4" rx="2.9" ry="1.7"/>
				<ellipse id="Oval_5_" class="st29" cx="445" cy="449.5" rx="2.9" ry="1.7"/>
				<ellipse id="Oval_1_" class="st29" cx="437.9" cy="445.4" rx="2.9" ry="1.7"/>
			</g>
			<path class="st29" d="M507.2,506.2l-85.4-49.3c-1.4-0.8-1.2-2.2,0.4-3.2l6-3.5c1.6-0.9,4.1-1,5.5-0.2l85.4,49.3
				c1.4,0.8,1.2,2.2-0.4,3.2l-6,3.5C511.1,507,508.6,507.1,507.2,506.2z"/>
			<g class="st30">
				<defs>
					<path id="SVGID_68_" class="st30" d="M426.7,515.2c4.2-3.1-1.1-5.7-1.1-5.7c2-1.3,2.7-1.6,3-1.7c4-0.4,7.5-2.2,7.5-2.2
						c0.5,1.6,2.4,1.7,9-0.6c6.7-2.4,3.4-2.9,3.4-2.9c8.5-4.6,8.1-6.6,8.1-6.6s0.8-0.1,1.5-2.7c0.7-2.6-0.3-5.4-1.4-7.2
						c-1.2-1.8-5.3-3.9-5.3-3.9c-0.3-0.9-2.1-2.4-2.7-2.8c-0.6-0.4-3.6,0.6-3.6,0.6c-1-0.6-5.1,0.3-5.1,0.3
						c-0.9-0.4-2.8-0.1-2.8-0.1c1.5,0.9-0.4,1.9-2.2,1.4c-1.8-0.4-2.5,0.3-6,0.9c-3.5,0.6-7.5,5.1-7.5,5.1c-1.7-1.3-4.7,2.5-6.9,4.4
						c-2.2,2,0.8,2.5,0.8,2.5c-3,1.2-3,4.5-3.2,4.9c-0.2,0.4-2.6,1.5-2.6,1.5c-8.4-4.9-10.6,1.2-15.2-0.5c-3-1.1-15-3.7-22.8-5.3
						c-0.3,1.8-0.4,3.5-0.2,5.3c0.7,7.5,5.9,14.8,15.4,20.7c0.4,0.2,0.7,0.4,1.1,0.6c0.4,0.2,0.7,0.4,1.1,0.6
						c10.2,5.6,23.2,8.6,36.3,8.9c1.2,0,2.4,0,3.6,0c-0.3-3.5-0.7-6.8-0.9-8.2C427.2,519.3,422.5,518.3,426.7,515.2z"/>
				</defs>
				<use xlink:href="#SVGID_68_"  style="overflow:visible;fill:#DFE2E7;"/>
				<clipPath id="SVGID_69_">
					<use xlink:href="#SVGID_68_"  style="overflow:visible;"/>
				</clipPath>
				<path class="st50" d="M467.8,475.1c-22.1-12.8-58-12.8-80.1,0c-9.5,5.5-14.9,12.4-16.2,19.6c7.7,1.6,19.7,4.2,22.8,5.3
					c4.6,1.7,6.8-4.4,15.2,0.5c0,0,2.5-1.1,2.6-1.5c0.2-0.4,0.2-3.6,3.2-4.9c0,0-3-0.6-0.8-2.5c2.2-2,5.2-5.8,6.9-4.4
					c0,0,4.1-4.5,7.5-5.1c3.5-0.6,4.2-1.4,6-0.9c1.8,0.4,3.6-0.5,2.2-1.4c0,0,1.9-0.3,2.8,0.1c0,0,4-0.9,5.1-0.3c0,0,3-1,3.6-0.6
					c0.6,0.4,2.4,2,2.7,2.8c0,0,4.2,2.1,5.3,3.9c1.2,1.8,2.2,4.6,1.4,7.2c-0.7,2.6-1.5,2.7-1.5,2.7s0.4,2-8.1,6.6
					c0,0,3.2,0.5-3.4,2.9c-6.7,2.4-8.5,2.2-9,0.6c0,0-3.5,1.9-7.5,2.2c-0.3,0-0.9,0.3-3,1.7c0,0,5.3,2.6,1.1,5.7
					c-4.2,3.1,0.5,4.1,1.2,7.5c0.3,1.3,0.6,4.6,0.9,8.2c14.1-0.1,28.2-3.3,39-9.6C489.9,508.5,489.9,487.8,467.8,475.1z"/>
			</g>
		</g>
		<g>
			<g>
				<ellipse id="Oval_9_" class="st29" cx="344.2" cy="391.2" rx="2.9" ry="1.7"/>
				<ellipse id="Oval_8_" class="st29" cx="337.2" cy="387.2" rx="2.9" ry="1.7"/>
				<ellipse id="Oval_7_" class="st29" cx="330.1" cy="383.1" rx="2.9" ry="1.7"/>
			</g>
			<path class="st29" d="M399.4,444L314,394.7c-1.4-0.8-1.2-2.2,0.4-3.2l6-3.5c1.6-0.9,4.1-1,5.5-0.2l85.4,49.3
				c1.4,0.8,1.2,2.2-0.4,3.2l-6,3.5C403.3,444.7,400.8,444.8,399.4,444z"/>
			<g class="st30">
				<defs>
					<path id="SVGID_70_" class="st30" d="M318.9,452.9c4.2-3.1-1.1-5.7-1.1-5.7c2-1.3,2.7-1.6,3-1.7c4-0.4,7.5-2.2,7.5-2.2
						c0.5,1.6,2.4,1.7,9-0.6c6.7-2.4,3.4-2.9,3.4-2.9c8.5-4.6,8.1-6.6,8.1-6.6s0.8-0.1,1.5-2.7c0.7-2.6-0.3-5.4-1.4-7.2
						c-1.2-1.8-5.3-3.9-5.3-3.9c-0.3-0.9-2.1-2.4-2.7-2.8c-0.6-0.4-3.6,0.6-3.6,0.6c-1-0.6-5.1,0.3-5.1,0.3
						c-0.9-0.4-2.8-0.1-2.8-0.1c1.5,0.9-0.4,1.9-2.2,1.4c-1.8-0.4-2.5,0.3-6,0.9c-3.5,0.6-7.5,5.1-7.5,5.1c-1.7-1.3-4.7,2.5-6.9,4.4
						c-2.2,2,0.8,2.5,0.8,2.5c-3,1.2-3,4.5-3.2,4.9c-0.2,0.4-2.6,1.5-2.6,1.5c-8.4-4.9-10.6,1.2-15.2-0.5c-3-1.1-15-3.7-22.8-5.3
						c-0.3,1.8-0.4,3.5-0.2,5.3c0.7,7.5,5.9,14.8,15.4,20.7c0.4,0.2,0.7,0.4,1.1,0.6c0.4,0.2,0.7,0.4,1.1,0.6
						c10.2,5.6,23.2,8.6,36.3,8.9c1.2,0,2.4,0,3.6,0c-0.3-3.5-0.7-6.8-0.9-8.2C319.4,457.1,314.7,456,318.9,452.9z"/>
				</defs>
				<use xlink:href="#SVGID_70_"  style="overflow:visible;fill:#DFE2E7;"/>
				<clipPath id="SVGID_71_">
					<use xlink:href="#SVGID_70_"  style="overflow:visible;"/>
				</clipPath>
				<path class="st51" d="M360,412.8c-22.1-12.8-58-12.8-80.1,0c-9.5,5.5-14.9,12.4-16.2,19.6c7.7,1.6,19.7,4.2,22.8,5.3
					c4.6,1.7,6.8-4.4,15.2,0.5c0,0,2.5-1.1,2.6-1.5c0.2-0.4,0.2-3.6,3.2-4.9c0,0-3-0.6-0.8-2.5c2.2-2,5.2-5.8,6.9-4.4
					c0,0,4.1-4.5,7.5-5.1c3.5-0.6,4.2-1.4,6-0.9c1.8,0.4,3.6-0.5,2.2-1.4c0,0,1.9-0.3,2.8,0.1c0,0,4-0.9,5.1-0.3c0,0,3-1,3.6-0.6
					c0.6,0.4,2.4,2,2.7,2.8c0,0,4.2,2.1,5.3,3.9c1.2,1.8,2.2,4.6,1.4,7.2c-0.7,2.6-1.5,2.7-1.5,2.7s0.4,2-8.1,6.6
					c0,0,3.2,0.5-3.4,2.9c-6.7,2.4-8.5,2.2-9,0.6c0,0-3.5,1.9-7.5,2.2c-0.3,0-0.9,0.3-3,1.7c0,0,5.3,2.6,1.1,5.7
					c-4.2,3.1,0.5,4.1,1.2,7.5c0.3,1.3,0.6,4.6,0.9,8.2c14.1-0.1,28.2-3.3,39-9.6C382.1,446.3,382.1,425.6,360,412.8z"/>
			</g>
		</g>
		<g>
			<g>
				<ellipse id="Oval_36_" class="st29" cx="127.3" cy="391.2" rx="2.9" ry="1.7"/>
				<ellipse id="Oval_35_" class="st29" cx="120.4" cy="387.2" rx="2.9" ry="1.7"/>
				<ellipse id="Oval_34_" class="st29" cx="113.3" cy="383.1" rx="2.9" ry="1.7"/>
			</g>
			<path class="st29" d="M182.6,444l-85.4-49.3c-1.4-0.8-1.2-2.2,0.4-3.2l6-3.5c1.6-0.9,4.1-1,5.5-0.2l85.4,49.3
				c1.4,0.8,1.2,2.2-0.4,3.2l-6,3.5C186.4,444.7,184,444.8,182.6,444z"/>
			<g class="st30">
				<defs>
					<path id="SVGID_72_" class="st30" d="M102,452.9c4.2-3.1-1.1-5.7-1.1-5.7c2-1.3,2.7-1.6,3-1.7c4-0.4,7.5-2.2,7.5-2.2
						c0.5,1.6,2.4,1.7,9-0.6c6.7-2.4,3.4-2.9,3.4-2.9c8.5-4.6,8.1-6.6,8.1-6.6s0.8-0.1,1.5-2.7c0.7-2.6-0.3-5.4-1.4-7.2
						c-1.2-1.8-5.3-3.9-5.3-3.9c-0.3-0.9-2.1-2.4-2.7-2.8c-0.6-0.4-3.6,0.6-3.6,0.6c-1-0.6-5.1,0.3-5.1,0.3
						c-0.9-0.4-2.8-0.1-2.8-0.1c1.5,0.9-0.4,1.9-2.2,1.4c-1.8-0.4-2.5,0.3-6,0.9c-3.5,0.6-7.5,5.1-7.5,5.1c-1.7-1.3-4.7,2.5-6.9,4.4
						c-2.2,2,0.8,2.5,0.8,2.5c-3,1.2-3,4.5-3.2,4.9c-0.2,0.4-2.6,1.5-2.6,1.5c-8.4-4.9-10.6,1.2-15.2-0.5c-3-1.1-15-3.7-22.8-5.3
						c-0.3,1.8-0.4,3.5-0.2,5.3c0.7,7.5,5.9,14.8,15.4,20.7c0.4,0.2,0.7,0.4,1.1,0.6c0.4,0.2,0.7,0.4,1.1,0.6
						c10.2,5.6,23.2,8.6,36.3,8.9c1.2,0,2.4,0,3.6,0c-0.3-3.5-0.7-6.8-0.9-8.2C102.5,457.1,97.9,456,102,452.9z"/>
				</defs>
				<use xlink:href="#SVGID_72_"  style="overflow:visible;fill:#DFE2E7;"/>
				<clipPath id="SVGID_73_">
					<use xlink:href="#SVGID_72_"  style="overflow:visible;"/>
				</clipPath>
				<path class="st52" d="M143.1,412.8c-22.1-12.8-58-12.8-80.1,0c-9.5,5.5-14.9,12.4-16.2,19.6c7.7,1.6,19.7,4.2,22.8,5.3
					c4.6,1.7,6.8-4.4,15.2,0.5c0,0,2.5-1.1,2.6-1.5c0.2-0.4,0.2-3.6,3.2-4.9c0,0-3-0.6-0.8-2.5c2.2-2,5.2-5.8,6.9-4.4
					c0,0,4.1-4.5,7.5-5.1c3.5-0.6,4.2-1.4,6-0.9c1.8,0.4,3.6-0.5,2.2-1.4c0,0,1.9-0.3,2.8,0.1c0,0,4-0.9,5.1-0.3c0,0,3-1,3.6-0.6
					c0.6,0.4,2.4,2,2.7,2.8c0,0,4.2,2.1,5.3,3.9c1.2,1.8,2.2,4.6,1.4,7.2c-0.7,2.6-1.5,2.7-1.5,2.7s0.4,2-8.1,6.6
					c0,0,3.2,0.5-3.4,2.9c-6.7,2.4-8.5,2.2-9,0.6c0,0-3.5,1.9-7.5,2.2c-0.3,0-0.9,0.3-3,1.7c0,0,5.3,2.6,1.1,5.7
					c-4.2,3.1,0.5,4.1,1.2,7.5c0.3,1.3,0.6,4.6,0.9,8.2c14.1-0.1,28.2-3.3,39-9.6C165.3,446.3,165.3,425.6,143.1,412.8z"/>
			</g>
		</g>
		<g>
			<g>
				<ellipse id="Oval_12_" class="st29" cx="448.5" cy="329" rx="2.9" ry="1.7"/>
				<ellipse id="Oval_11_" class="st29" cx="441.5" cy="325" rx="2.9" ry="1.7"/>
				<ellipse id="Oval_10_" class="st29" cx="434.4" cy="320.9" rx="2.9" ry="1.7"/>
			</g>
			<path class="st29" d="M503.7,381.8l-85.4-49.3c-1.4-0.8-1.2-2.2,0.4-3.2l6-3.5c1.6-0.9,4.1-1,5.5-0.2l85.4,49.3
				c1.4,0.8,1.2,2.2-0.4,3.2l-6,3.5C507.6,382.5,505.1,382.6,503.7,381.8z"/>
			<g class="st30">
				<defs>
					<path id="SVGID_74_" class="st30" d="M423.2,390.7c4.2-3.1-1.1-5.7-1.1-5.7c2-1.3,2.7-1.6,3-1.7c4-0.4,7.5-2.2,7.5-2.2
						c0.5,1.6,2.4,1.7,9-0.6c6.7-2.4,3.4-2.9,3.4-2.9c8.5-4.6,8.1-6.6,8.1-6.6s0.8-0.1,1.5-2.7c0.7-2.6-0.3-5.4-1.4-7.2
						c-1.2-1.8-5.3-3.9-5.3-3.9c-0.3-0.9-2.1-2.4-2.7-2.8c-0.6-0.4-3.6,0.6-3.6,0.6c-1-0.6-5.1,0.3-5.1,0.3
						c-0.9-0.4-2.8-0.1-2.8-0.1c1.5,0.9-0.4,1.9-2.2,1.4c-1.8-0.4-2.5,0.3-6,0.9c-3.5,0.6-7.5,5.1-7.5,5.1c-1.7-1.3-4.7,2.5-6.9,4.4
						c-2.2,2,0.8,2.5,0.8,2.5c-3,1.2-3,4.5-3.2,4.9c-0.2,0.4-2.6,1.5-2.6,1.5c-8.4-4.9-10.6,1.2-15.2-0.5c-3-1.1-15-3.7-22.8-5.3
						c-0.3,1.8-0.4,3.5-0.2,5.3c0.7,7.5,5.9,14.8,15.4,20.7c0.4,0.2,0.7,0.4,1.1,0.6c0.4,0.2,0.7,0.4,1.1,0.6
						c10.2,5.6,23.2,8.6,36.3,8.9c1.2,0,2.4,0,3.6,0c-0.3-3.5-0.7-6.8-0.9-8.2C423.7,394.9,419,393.8,423.2,390.7z"/>
				</defs>
				<use xlink:href="#SVGID_74_"  style="overflow:visible;fill:#DFE2E7;"/>
				<clipPath id="SVGID_75_">
					<use xlink:href="#SVGID_74_"  style="overflow:visible;"/>
				</clipPath>
				<path class="st53" d="M464.3,350.6c-22.1-12.8-58-12.8-80.1,0c-9.5,5.5-14.9,12.4-16.2,19.6c7.7,1.6,19.7,4.2,22.8,5.3
					c4.6,1.7,6.8-4.4,15.2,0.5c0,0,2.5-1.1,2.6-1.5c0.2-0.4,0.2-3.6,3.2-4.9c0,0-3-0.6-0.8-2.5c2.2-2,5.2-5.8,6.9-4.4
					c0,0,4.1-4.5,7.5-5.1c3.5-0.6,4.2-1.4,6-0.9c1.8,0.4,3.6-0.5,2.2-1.4c0,0,1.9-0.3,2.8,0.1c0,0,4-0.9,5.1-0.3c0,0,3-1,3.6-0.6
					c0.6,0.4,2.4,2,2.7,2.8c0,0,4.2,2.1,5.3,3.9c1.2,1.8,2.2,4.6,1.4,7.2c-0.7,2.6-1.5,2.7-1.5,2.7s0.4,2-8.1,6.6
					c0,0,3.2,0.5-3.4,2.9c-6.7,2.4-8.5,2.2-9,0.6c0,0-3.5,1.9-7.5,2.2c-0.3,0-0.9,0.3-3,1.7c0,0,5.3,2.6,1.1,5.7
					c-4.2,3.1,0.5,4.1,1.2,7.5c0.3,1.3,0.6,4.6,0.9,8.2c14.1-0.1,28.2-3.3,39-9.6C486.4,384.1,486.4,363.4,464.3,350.6z"/>
			</g>
		</g>
		<polygon class="st32" points="221.1,443.3 221.1,435.4 328.8,497.6 328.8,505.5 		"/>
	</g>
</g>
</svg>
