<?xml version="1.0" encoding="utf-8"?>
<svg xmlns="http://www.w3.org/2000/svg" xmlns:xlink="http://www.w3.org/1999/xlink" viewBox="0 0 392.25 433.56"><defs><style>.cls-1{opacity:0.7;}.cls-2,.cls-26{fill:#001b41;}.cls-3{fill:url(#Unbenannter_Verlauf_12);}.cls-4{fill:url(#Unbenannter_Verlauf_12-2);}.cls-5{fill:url(#Unbenannter_Verlauf_12-3);}.cls-6{fill:#dfe2e7;}.cls-7{fill:#95a0b0;}.cls-8{fill:url(#Unbenannter_Verlauf_12-4);}.cls-9{fill:url(#Unbenannter_Verlauf_12-5);}.cls-10{fill:url(#Unbenannter_Verlauf_12-6);}.cls-11{fill:url(#Unbenannter_Verlauf_12-7);}.cls-12,.cls-15,.cls-16,.cls-17,.cls-18,.cls-37,.cls-38,.cls-39,.cls-40{opacity:0.6;}.cls-13{fill:#e7f9fc;}.cls-14,.cls-36{fill:none;stroke:#95a0b0;}.cls-14{stroke-miterlimit:10;stroke-width:1.16px;}.cls-15{fill:url(#Neues_Verlaufsfeld_13);}.cls-16{fill:url(#Neues_Verlaufsfeld_13-2);}.cls-17{fill:url(#Neues_Verlaufsfeld_13-3);}.cls-18{fill:url(#Neues_Verlaufsfeld_13-4);}.cls-19{fill:#3ae0c0;}.cls-20{fill:#f765a6;}.cls-21{fill:#fcd02c;}.cls-22{fill:aqua;}.cls-23{fill:url(#Verlauf_Visual_Icontiefe);}.cls-24{fill:url(#Verlauf_Visual_Icontiefe-2);}.cls-25{fill:url(#Unbenannter_Verlauf_757);}.cls-26,.cls-27{opacity:0.8;}.cls-27,.cls-28{fill:#b8eef7;}.cls-29{fill:#014a97;}.cls-30{fill:#9fe8f5;}.cls-31{fill:url(#Unbenannter_Verlauf_12-8);}.cls-32{fill:url(#Unbenannter_Verlauf_12-9);}.cls-33{fill:url(#Unbenannter_Verlauf_12-10);}.cls-34{fill:url(#Unbenannter_Verlauf_12-11);}.cls-35{fill:url(#Unbenannter_Verlauf_12-12);}.cls-36{stroke-linecap:round;stroke-linejoin:round;stroke-width:2px;}.cls-37{fill:url(#Neues_Verlaufsfeld_13-5);}.cls-38{fill:url(#Neues_Verlaufsfeld_13-6);}.cls-39{fill:url(#Neues_Verlaufsfeld_13-7);}.cls-40{fill:url(#Neues_Verlaufsfeld_13-8);}.cls-41{fill:url(#Verlauf_Visual_Icontiefe-3);}.cls-42{fill:url(#Verlauf_Visual_Icontiefe-4);}.cls-43{fill:url(#Unbenannter_Verlauf_757-2);}.cls-44{fill:#fab592;}.cls-45{fill:#4b4b4b;}.cls-46{fill:#fcd959;}.cls-47{fill:#432312;}.cls-48{fill:#35190d;}.cls-49{fill:#343254;}.cls-50{fill:#6e6e6e;}</style><linearGradient id="Unbenannter_Verlauf_12" x1="185.3" y1="192.65" x2="354.63" y2="192.65" gradientUnits="userSpaceOnUse"><stop offset="0" stop-color="#f6f7f8"/><stop offset="1" stop-color="#95a0b0"/></linearGradient><linearGradient id="Unbenannter_Verlauf_12-2" x1="204.72" y1="215.27" x2="244.28" y2="207.06" xlink:href="#Unbenannter_Verlauf_12"/><linearGradient id="Unbenannter_Verlauf_12-3" x1="251.7" y1="227.97" x2="218.45" y2="210.45" xlink:href="#Unbenannter_Verlauf_12"/><linearGradient id="Unbenannter_Verlauf_12-4" x1="98.16" y1="213.33" x2="137.72" y2="205.12" gradientTransform="matrix(-1, 0, 0, 1, 437.41, 0)" xlink:href="#Unbenannter_Verlauf_12"/><linearGradient id="Unbenannter_Verlauf_12-5" x1="145.14" y1="226.04" x2="111.89" y2="208.51" gradientTransform="matrix(-1, 0, 0, 1, 437.41, 0)" xlink:href="#Unbenannter_Verlauf_12"/><linearGradient id="Unbenannter_Verlauf_12-6" x1="220.43" y1="379.05" x2="239.17" y2="375.16" gradientTransform="matrix(-1, 0, 0, 1, 403.2, 0)" xlink:href="#Unbenannter_Verlauf_12"/><linearGradient id="Unbenannter_Verlauf_12-7" x1="242.68" y1="385.06" x2="226.94" y2="376.76" gradientTransform="matrix(-1, 0, 0, 1, 403.2, 0)" xlink:href="#Unbenannter_Verlauf_12"/><linearGradient id="Neues_Verlaufsfeld_13" x1="202.46" y1="162.97" x2="336.78" y2="162.97" gradientUnits="userSpaceOnUse"><stop offset="0" stop-color="#8c2de0"/><stop offset="0" stop-color="#8a34e1"/><stop offset="1" stop-color="#4a00de"/></linearGradient><linearGradient id="Neues_Verlaufsfeld_13-2" x1="202.46" y1="140.12" x2="336.78" y2="140.12" xlink:href="#Neues_Verlaufsfeld_13"/><linearGradient id="Neues_Verlaufsfeld_13-3" x1="202.46" y1="116.28" x2="336.78" y2="116.28" xlink:href="#Neues_Verlaufsfeld_13"/><linearGradient id="Neues_Verlaufsfeld_13-4" x1="202.46" y1="93.42" x2="336.78" y2="93.42" xlink:href="#Neues_Verlaufsfeld_13"/><linearGradient id="Verlauf_Visual_Icontiefe" x1="214.76" y1="-50.23" x2="283.75" y2="71.13" gradientUnits="userSpaceOnUse"><stop offset="0" stop-color="#e5f7fa" stop-opacity="0"/><stop offset="1" stop-color="#28cce8" stop-opacity="0.5"/></linearGradient><linearGradient id="Verlauf_Visual_Icontiefe-2" x1="230.44" y1="244.81" x2="227.41" y2="24.83" xlink:href="#Verlauf_Visual_Icontiefe"/><linearGradient id="Unbenannter_Verlauf_757" x1="372.68" y1="172.8" x2="227.49" y2="91.91" gradientUnits="userSpaceOnUse"><stop offset="0" stop-color="#e5f7fa" stop-opacity="0"/><stop offset="0.34" stop-color="#28cce8" stop-opacity="0.5"/></linearGradient><linearGradient id="Unbenannter_Verlauf_12-8" x1="38.75" y1="356.82" x2="208.08" y2="356.82" xlink:href="#Unbenannter_Verlauf_12"/><linearGradient id="Unbenannter_Verlauf_12-9" x1="58.17" y1="379.44" x2="97.73" y2="371.23" xlink:href="#Unbenannter_Verlauf_12"/><linearGradient id="Unbenannter_Verlauf_12-10" x1="105.15" y1="392.14" x2="71.9" y2="374.61" xlink:href="#Unbenannter_Verlauf_12"/><linearGradient id="Unbenannter_Verlauf_12-11" x1="244.71" y1="377.5" x2="284.27" y2="369.29" gradientTransform="matrix(-1, 0, 0, 1, 437.41, 0)" xlink:href="#Unbenannter_Verlauf_12"/><linearGradient id="Unbenannter_Verlauf_12-12" x1="291.69" y1="390.2" x2="258.44" y2="372.68" gradientTransform="matrix(-1, 0, 0, 1, 437.41, 0)" xlink:href="#Unbenannter_Verlauf_12"/><linearGradient id="Neues_Verlaufsfeld_13-5" x1="55.91" y1="327.14" x2="190.23" y2="327.14" xlink:href="#Neues_Verlaufsfeld_13"/><linearGradient id="Neues_Verlaufsfeld_13-6" x1="55.91" y1="304.29" x2="190.23" y2="304.29" xlink:href="#Neues_Verlaufsfeld_13"/><linearGradient id="Neues_Verlaufsfeld_13-7" x1="55.91" y1="280.45" x2="190.23" y2="280.45" xlink:href="#Neues_Verlaufsfeld_13"/><linearGradient id="Neues_Verlaufsfeld_13-8" x1="55.91" y1="257.59" x2="190.23" y2="257.59" xlink:href="#Neues_Verlaufsfeld_13"/><linearGradient id="Verlauf_Visual_Icontiefe-3" x1="68.21" y1="113.94" x2="137.19" y2="235.3" xlink:href="#Verlauf_Visual_Icontiefe"/><linearGradient id="Verlauf_Visual_Icontiefe-4" x1="83.89" y1="408.98" x2="80.85" y2="189" xlink:href="#Verlauf_Visual_Icontiefe"/><linearGradient id="Unbenannter_Verlauf_757-2" x1="226.13" y1="336.97" x2="80.94" y2="256.08" xlink:href="#Unbenannter_Verlauf_757"/></defs><title>georedundant-infrastructure</title><g id="Ebene_1" data-name="Ebene 1"><g class="cls-1"><path class="cls-2" d="M267.2,166.66a6,6,0,0,1,5.42,0l80.8,46.65c1.49.86,1.49,2.27,0,3.13l-80.8,46.65a6,6,0,0,1-5.42,0l-80.8-46.65c-1.5-.86-1.5-2.27,0-3.13Z"/></g><path class="cls-3" d="M188.06,177.42a5.75,5.75,0,0,0-2.76,4.6v16.64a6,6,0,0,0,2.71,4.7l79.19,45.72a6,6,0,0,0,5.42,0l79.19-45.72a6.07,6.07,0,0,0,2.73-4.7l.09-13.82a5.79,5.79,0,0,0-2.72-4.63l-80.69-44a6.51,6.51,0,0,0-5.51,0Z"/><path class="cls-4" d="M216,209.93c-1.49-.86-1.49-2.27,0-3.13l3.13-1.81a6,6,0,0,1,5.43,0l11.68,6.75c1.49.86,1.49,2.27,0,3.13l-3.13,1.8a6,6,0,0,1-5.42,0Z"/><path class="cls-5" d="M234.82,212.5c1.53-.79,2.76,0,2.72,1.69l0,3.19a6.18,6.18,0,0,1-2.77,4.69l-3.13,1.81c-1.49.86-2.71.16-2.71-1.56V218.7a5.66,5.66,0,0,1,2.78-4.57Z"/><path class="cls-6" d="M214.83,208.86c0-1.72,1.22-2.42,2.71-1.56L229.22,214a6,6,0,0,1,2.72,4.7v3.61c0,1.73-1.22,2.43-2.71,1.57l-11.69-6.75a6,6,0,0,1-2.71-4.69Z"/><ellipse class="cls-2" cx="222.93" cy="216.24" rx="1.84" ry="3.18" transform="translate(-78.25 140.44) rotate(-30)"/><path class="cls-7" d="M276.3,237.14a2.65,2.65,0,0,0-1.2,2.08c0,.76.53,1.07,1.2.69a2.65,2.65,0,0,0,1.2-2.08C277.5,237.07,277,236.76,276.3,237.14Z"/><path class="cls-7" d="M279.77,235.13a2.65,2.65,0,0,0-1.2,2.08c0,.76.54,1.07,1.2.69a2.62,2.62,0,0,0,1.2-2.08C281,235.06,280.44,234.75,279.77,235.13Z"/><path class="cls-7" d="M283.25,233.13a2.65,2.65,0,0,0-1.2,2.07c0,.77.54,1.08,1.2.7a2.68,2.68,0,0,0,1.2-2.08C284.45,233.05,283.91,232.74,283.25,233.13Z"/><path class="cls-7" d="M276.3,240.88a2.62,2.62,0,0,0-1.2,2.08c0,.76.53,1.07,1.2.69a2.65,2.65,0,0,0,1.2-2.08C277.5,240.81,277,240.5,276.3,240.88Z"/><path class="cls-7" d="M279.77,238.88a2.65,2.65,0,0,0-1.2,2.07c0,.77.54,1.08,1.2.7a2.68,2.68,0,0,0,1.2-2.08C281,238.8,280.44,238.49,279.77,238.88Z"/><path class="cls-7" d="M283.25,236.87a2.65,2.65,0,0,0-1.2,2.08c0,.76.53,1.07,1.2.69a2.65,2.65,0,0,0,1.2-2.08C284.45,236.8,283.91,236.49,283.25,236.87Z"/><path class="cls-7" d="M286.69,231.14a2.65,2.65,0,0,0-1.2,2.08c0,.76.54,1.07,1.2.69a2.65,2.65,0,0,0,1.2-2.08C287.89,231.07,287.35,230.76,286.69,231.14Z"/><path class="cls-7" d="M290.17,229.13a2.62,2.62,0,0,0-1.2,2.08c0,.76.53,1.07,1.2.69a2.65,2.65,0,0,0,1.2-2.08C291.37,229.06,290.83,228.75,290.17,229.13Z"/><path class="cls-7" d="M293.64,227.13a2.65,2.65,0,0,0-1.2,2.07c0,.77.54,1.08,1.2.7a2.68,2.68,0,0,0,1.2-2.08C294.84,227.05,294.31,226.74,293.64,227.13Z"/><path class="cls-7" d="M286.69,234.88a2.65,2.65,0,0,0-1.2,2.08c0,.76.54,1.07,1.2.69a2.65,2.65,0,0,0,1.2-2.08C287.89,234.81,287.35,234.5,286.69,234.88Z"/><ellipse class="cls-7" cx="290.16" cy="234.26" rx="1.7" ry="0.98" transform="translate(-57.89 368.18) rotate(-59.96)"/><path class="cls-7" d="M293.64,230.87a2.65,2.65,0,0,0-1.2,2.08c0,.76.54,1.07,1.2.69a2.65,2.65,0,0,0,1.2-2.08C294.84,230.8,294.3,230.49,293.64,230.87Z"/><path class="cls-7" d="M297.08,225.14a2.65,2.65,0,0,0-1.2,2.08c0,.76.54,1.07,1.2.69a2.65,2.65,0,0,0,1.2-2.08C298.28,225.07,297.75,224.76,297.08,225.14Z"/><path class="cls-7" d="M300.56,223.13a2.65,2.65,0,0,0-1.2,2.08c0,.76.54,1.07,1.2.69a2.65,2.65,0,0,0,1.2-2.08C301.76,223.06,301.22,222.75,300.56,223.13Z"/><path class="cls-7" d="M304,221.13a2.63,2.63,0,0,0-1.21,2.07c0,.77.54,1.08,1.2.7a2.66,2.66,0,0,0,1.2-2.08C305.24,221.05,304.7,220.74,304,221.13Z"/><path class="cls-7" d="M297.08,228.88a2.65,2.65,0,0,0-1.2,2.08c0,.76.54,1.07,1.2.69a2.65,2.65,0,0,0,1.2-2.08C298.28,228.81,297.74,228.5,297.08,228.88Z"/><path class="cls-7" d="M300.56,226.88a2.62,2.62,0,0,0-1.2,2.07c0,.77.53,1.08,1.2.7a2.68,2.68,0,0,0,1.2-2.08C301.76,226.8,301.22,226.49,300.56,226.88Z"/><path class="cls-7" d="M304,224.87a2.65,2.65,0,0,0-1.2,2.08c0,.76.54,1.07,1.2.69a2.62,2.62,0,0,0,1.2-2.08C305.23,224.8,304.7,224.49,304,224.87Z"/><path class="cls-7" d="M335.21,203.13a2.65,2.65,0,0,0-1.2,2.07c0,.77.54,1.08,1.2.7a2.68,2.68,0,0,0,1.2-2.08C336.41,203.05,335.88,202.74,335.21,203.13Z"/><path class="cls-7" d="M335.21,206.87A2.65,2.65,0,0,0,334,209c0,.76.54,1.07,1.2.69a2.65,2.65,0,0,0,1.2-2.08C336.41,206.8,335.87,206.49,335.21,206.87Z"/><path class="cls-7" d="M338.65,201.14a2.65,2.65,0,0,0-1.2,2.08c0,.76.54,1.07,1.2.69a2.65,2.65,0,0,0,1.2-2.08C339.85,201.07,339.32,200.76,338.65,201.14Z"/><path class="cls-7" d="M342.13,199.13a2.65,2.65,0,0,0-1.2,2.08c0,.76.53,1.07,1.2.69a2.65,2.65,0,0,0,1.2-2.08C343.33,199.06,342.79,198.75,342.13,199.13Z"/><path class="cls-7" d="M345.6,197.13a2.65,2.65,0,0,0-1.2,2.07c0,.77.54,1.08,1.2.7a2.66,2.66,0,0,0,1.2-2.08C346.8,197.05,346.27,196.74,345.6,197.13Z"/><path class="cls-7" d="M338.65,204.88a2.65,2.65,0,0,0-1.2,2.08c0,.76.54,1.07,1.2.69a2.65,2.65,0,0,0,1.2-2.08C339.85,204.81,339.31,204.5,338.65,204.88Z"/><path class="cls-7" d="M342.13,202.88a2.62,2.62,0,0,0-1.2,2.07c0,.77.53,1.08,1.2.7a2.68,2.68,0,0,0,1.2-2.08C343.33,202.8,342.79,202.49,342.13,202.88Z"/><path class="cls-7" d="M345.6,200.87a2.65,2.65,0,0,0-1.2,2.08c0,.76.54,1.07,1.2.69a2.65,2.65,0,0,0,1.2-2.08C346.8,200.8,346.27,200.49,345.6,200.87Z"/><path class="cls-7" d="M349,197.91a2.62,2.62,0,0,0,1.2-2.08c0-.76-.53-1.07-1.2-.69a2.65,2.65,0,0,0-1.2,2.08C347.84,198,348.38,198.29,349,197.91Z"/><path class="cls-7" d="M349,198.88a2.65,2.65,0,0,0-1.2,2.08c0,.76.54,1.07,1.2.69a2.65,2.65,0,0,0,1.2-2.08C350.24,198.81,349.71,198.5,349,198.88Z"/><path class="cls-8" d="M328,208c1.49-.86,1.49-2.27,0-3.13l-3.14-1.81a6,6,0,0,0-5.42,0l-11.68,6.75c-1.5.86-1.5,2.27,0,3.13l3.12,1.81a6,6,0,0,0,5.43,0Z"/><path class="cls-9" d="M309.15,210.56c-1.53-.79-2.76,0-2.73,1.69l.06,3.19a6.15,6.15,0,0,0,2.77,4.69l3.13,1.81c1.49.86,2.71.16,2.71-1.56v-3.62a5.66,5.66,0,0,0-2.78-4.57Z"/><path class="cls-6" d="M329.14,206.92c0-1.72-1.22-2.42-2.71-1.56l-11.69,6.74a6,6,0,0,0-2.71,4.7v3.62c0,1.72,1.22,2.42,2.71,1.56l11.69-6.75a6,6,0,0,0,2.71-4.69Z"/><ellipse class="cls-2" cx="321.04" cy="214.3" rx="3.18" ry="1.84" transform="translate(-25.07 385.18) rotate(-60)"/><path class="cls-10" d="M177.44,376.52a.79.79,0,0,0,0-1.49l-1.49-.85a2.84,2.84,0,0,0-2.57,0l-5.53,3.19a.78.78,0,0,0,0,1.48l1.48.86a2.84,2.84,0,0,0,2.57,0Z"/><path class="cls-11" d="M168.52,377.73c-.73-.37-1.31,0-1.29.8l0,1.51a2.92,2.92,0,0,0,1.31,2.22l1.48.86c.71.41,1.29.08,1.29-.74v-1.71A2.68,2.68,0,0,0,170,378.5Z"/><path class="cls-6" d="M178,376c0-.81-.58-1.15-1.28-.74l-5.54,3.19a2.87,2.87,0,0,0-1.28,2.23v1.71c0,.81.58,1.15,1.28.74l5.54-3.2a2.83,2.83,0,0,0,1.28-2.22Z"/><ellipse class="cls-2" cx="174.41" cy="379.05" rx="2.13" ry="1.23" transform="translate(-241.06 340.55) rotate(-60)"/><g class="cls-12"><path class="cls-13" d="M165.23,265.56l-2.94,1.69a1.11,1.11,0,0,0-.45.87v23c0,.33.2.49.45.34l2.94-1.69a1.11,1.11,0,0,0,.45-.87v-23C165.68,265.57,165.48,265.41,165.23,265.56Z"/><path class="cls-13" d="M171.72,271.1l-3.13,1.81a.84.84,0,0,0-.35.68v14c0,.27.15.39.35.27l3.13-1.8a.86.86,0,0,0,.36-.69v-14C172.08,271.11,171.92,271,171.72,271.1Z"/><path class="cls-13" d="M178.08,263l-3,1.75a1,1,0,0,0-.4.78v18.23c0,.3.18.44.4.31l3-1.75a1,1,0,0,0,.4-.78V263.34C178.48,263,178.3,262.9,178.08,263Z"/></g><path class="cls-7" d="M267.29,241c.66.38,1.2.07,1.2-.7a2.65,2.65,0,0,0-1.2-2.07c-.66-.39-1.2-.08-1.2.69A2.68,2.68,0,0,0,267.29,241Z"/><ellipse class="cls-7" cx="263.81" cy="237.65" rx="0.98" ry="1.7" transform="translate(-83.53 163.99) rotate(-30.04)"/><path class="cls-7" d="M260.34,237c.66.39,1.2.08,1.2-.69a2.68,2.68,0,0,0-1.2-2.08c-.66-.38-1.2-.07-1.2.7A2.65,2.65,0,0,0,260.34,237Z"/><path class="cls-7" d="M267.29,242c-.66-.38-1.2-.07-1.2.69a2.65,2.65,0,0,0,1.2,2.08c.67.38,1.2.07,1.2-.69A2.65,2.65,0,0,0,267.29,242Z"/><path class="cls-7" d="M263.82,240c-.67-.38-1.2-.07-1.2.7a2.62,2.62,0,0,0,1.2,2.07c.66.39,1.2.08,1.2-.69A2.68,2.68,0,0,0,263.82,240Z"/><path class="cls-7" d="M260.34,238c-.66-.38-1.2-.07-1.2.69a2.65,2.65,0,0,0,1.2,2.08c.66.38,1.2.07,1.2-.69A2.65,2.65,0,0,0,260.34,238Z"/><path class="cls-7" d="M256.9,235c.66.38,1.2.07,1.2-.7a2.65,2.65,0,0,0-1.2-2.07c-.67-.39-1.2-.08-1.2.69A2.68,2.68,0,0,0,256.9,235Z"/><path class="cls-7" d="M253.42,233c.67.38,1.2.07,1.2-.69a2.65,2.65,0,0,0-1.2-2.08c-.66-.38-1.2-.07-1.2.69A2.65,2.65,0,0,0,253.42,233Z"/><path class="cls-7" d="M250,231c.66.39,1.2.08,1.2-.69a2.68,2.68,0,0,0-1.2-2.08c-.67-.38-1.2-.07-1.2.7A2.62,2.62,0,0,0,250,231Z"/><path class="cls-7" d="M256.9,236c-.66-.38-1.2-.07-1.2.69a2.65,2.65,0,0,0,1.2,2.08c.66.38,1.2.07,1.2-.69A2.65,2.65,0,0,0,256.9,236Z"/><path class="cls-7" d="M253.42,234c-.66-.38-1.2-.07-1.2.7a2.65,2.65,0,0,0,1.2,2.07c.67.39,1.2.08,1.2-.69A2.66,2.66,0,0,0,253.42,234Z"/><path class="cls-7" d="M250,232c-.67-.38-1.2-.07-1.2.69a2.65,2.65,0,0,0,1.2,2.08c.66.38,1.2.07,1.2-.69A2.65,2.65,0,0,0,250,232Z"/><path class="cls-7" d="M246.51,229c.66.38,1.2.07,1.2-.7a2.65,2.65,0,0,0-1.2-2.07c-.67-.39-1.2-.08-1.2.69A2.66,2.66,0,0,0,246.51,229Z"/><ellipse class="cls-7" cx="243.03" cy="225.65" rx="0.98" ry="1.7" transform="translate(-80.31 151.97) rotate(-30.04)"/><path class="cls-7" d="M239.55,225c.67.39,1.2.08,1.2-.69a2.66,2.66,0,0,0-1.2-2.08c-.66-.38-1.2-.07-1.2.7A2.65,2.65,0,0,0,239.55,225Z"/><path class="cls-7" d="M246.51,230c-.67-.38-1.2-.07-1.2.69a2.65,2.65,0,0,0,1.2,2.08c.66.38,1.2.07,1.2-.69A2.65,2.65,0,0,0,246.51,230Z"/><path class="cls-7" d="M243,228c-.66-.38-1.2-.07-1.2.7a2.65,2.65,0,0,0,1.2,2.07c.67.39,1.2.08,1.2-.69A2.68,2.68,0,0,0,243,228Z"/><path class="cls-7" d="M239.56,226c-.67-.38-1.2-.07-1.2.69a2.62,2.62,0,0,0,1.2,2.08c.66.38,1.2.07,1.2-.69A2.65,2.65,0,0,0,239.56,226Z"/><path class="cls-7" d="M208.38,207.16c.66.38,1.2.07,1.2-.69a2.65,2.65,0,0,0-1.2-2.08c-.66-.38-1.2-.07-1.2.69A2.65,2.65,0,0,0,208.38,207.16Z"/><path class="cls-7" d="M204.9,205.15c.67.39,1.2.08,1.2-.69a2.68,2.68,0,0,0-1.2-2.08c-.66-.38-1.2-.07-1.2.7A2.65,2.65,0,0,0,204.9,205.15Z"/><path class="cls-7" d="M208.38,208.13c-.66-.38-1.2-.07-1.2.7a2.65,2.65,0,0,0,1.2,2.07c.66.39,1.2.08,1.2-.69A2.68,2.68,0,0,0,208.38,208.13Z"/><path class="cls-7" d="M204.9,206.13c-.66-.39-1.2-.08-1.2.69a2.67,2.67,0,0,0,1.2,2.08c.67.38,1.2.07,1.2-.69A2.62,2.62,0,0,0,204.9,206.13Z"/><path class="cls-7" d="M201.46,203.16c.67.39,1.2.08,1.2-.69a2.68,2.68,0,0,0-1.2-2.08c-.66-.38-1.2-.07-1.2.7A2.65,2.65,0,0,0,201.46,203.16Z"/><ellipse class="cls-7" cx="197.99" cy="199.77" rx="0.98" ry="1.7" transform="translate(-73.41 125.95) rotate(-30.04)"/><path class="cls-7" d="M194.51,199.15c.66.39,1.2.08,1.2-.69a2.68,2.68,0,0,0-1.2-2.08c-.66-.38-1.2-.07-1.2.7A2.65,2.65,0,0,0,194.51,199.15Z"/><path class="cls-7" d="M201.46,204.14c-.66-.38-1.2-.07-1.2.69a2.65,2.65,0,0,0,1.2,2.08c.67.38,1.2.07,1.2-.69A2.62,2.62,0,0,0,201.46,204.14Z"/><path class="cls-7" d="M198,202.13c-.67-.38-1.2-.07-1.2.7a2.65,2.65,0,0,0,1.2,2.07c.66.39,1.2.08,1.2-.69A2.68,2.68,0,0,0,198,202.13Z"/><path class="cls-7" d="M194.51,200.13c-.66-.39-1.2-.08-1.2.69a2.67,2.67,0,0,0,1.2,2.08c.67.38,1.2.07,1.2-.69A2.65,2.65,0,0,0,194.51,200.13Z"/><path class="cls-7" d="M191.07,197.16c.66.39,1.2.08,1.2-.69a2.68,2.68,0,0,0-1.2-2.08c-.66-.38-1.2-.07-1.2.7A2.65,2.65,0,0,0,191.07,197.16Z"/><path class="cls-7" d="M191.07,198.14c-.66-.38-1.2-.07-1.2.69a2.65,2.65,0,0,0,1.2,2.08c.67.38,1.2.07,1.2-.69A2.65,2.65,0,0,0,191.07,198.14Z"/><path class="cls-14" d="M332.41,124s25.38,10.16,2.14,24.92"/><path class="cls-14" d="M329.91,144s31.37,12.56,2.64,30.8"/><path class="cls-14" d="M327.76,150.8s25.38,10.16,2.14,24.92"/><path class="cls-14" d="M336.41,98.22s19.54,37-9.09,51.59"/><path class="cls-14" d="M331.44,100.47s43.88,3.57-9.09,28.77"/><polygon class="cls-15" points="202.46 162.97 269.62 201.75 336.78 162.97 269.62 124.19 202.46 162.97"/><polygon class="cls-2" points="336.78 162.97 336.78 174.67 269.62 213.45 269.62 201.75 336.78 162.97"/><polygon class="cls-2" points="269.62 201.75 269.62 213.45 202.46 174.67 202.46 162.97 269.62 201.75"/><polygon class="cls-16" points="202.46 140.12 269.62 178.89 336.78 140.12 269.62 101.34 202.46 140.12"/><polygon class="cls-2" points="336.78 140.12 336.78 151.82 269.62 190.59 269.62 178.89 336.78 140.12"/><polygon class="cls-2" points="269.62 178.89 269.62 190.59 202.46 151.82 202.46 140.12 269.62 178.89"/><polygon class="cls-17" points="202.46 116.28 269.62 155.05 336.78 116.28 269.62 77.5 202.46 116.28"/><polygon class="cls-2" points="336.78 116.28 336.78 127.98 269.62 166.76 269.62 155.05 336.78 116.28"/><polygon class="cls-2" points="269.62 155.05 269.62 166.76 202.46 127.98 202.46 116.28 269.62 155.05"/><polygon class="cls-18" points="202.46 93.42 269.62 132.2 336.78 93.42 269.62 54.65 202.46 93.42"/><polygon class="cls-2" points="336.78 93.42 336.78 105.13 269.62 143.9 269.62 132.2 336.78 93.42"/><polygon class="cls-2" points="269.62 132.2 269.62 143.9 202.46 105.13 202.46 93.42 269.62 132.2"/><ellipse class="cls-19" cx="225.04" cy="112.73" rx="1.56" ry="2.7" transform="translate(-26.21 127.67) rotate(-30.01)"/><ellipse class="cls-20" cx="219.27" cy="109.35" rx="1.56" ry="2.7" transform="translate(-25.29 124.33) rotate(-30.01)"/><ellipse class="cls-19" cx="213.34" cy="105.89" rx="1.56" ry="2.7" transform="translate(-24.36 120.9) rotate(-30.01)"/><ellipse class="cls-21" cx="207.31" cy="102.52" rx="1.56" ry="2.7" transform="translate(-23.48 117.43) rotate(-30.01)"/><ellipse class="cls-19" cx="225.04" cy="135.72" rx="1.56" ry="2.7" transform="matrix(0.87, -0.5, 0.5, 0.87, -37.71, 130.75)"/><ellipse class="cls-21" cx="219.27" cy="132.34" rx="1.56" ry="2.7" transform="translate(-36.8 127.41) rotate(-30.01)"/><ellipse class="cls-21" cx="213.34" cy="128.88" rx="1.56" ry="2.7" transform="translate(-35.86 123.98) rotate(-30.01)"/><ellipse class="cls-21" cx="207.31" cy="125.51" rx="1.56" ry="2.7" transform="translate(-34.98 120.51) rotate(-30.01)"/><ellipse class="cls-19" cx="225.04" cy="158.72" rx="1.56" ry="2.7" transform="matrix(0.87, -0.5, 0.5, 0.87, -49.21, 133.83)"/><ellipse class="cls-22" cx="219.27" cy="155.34" rx="1.56" ry="2.7" transform="translate(-48.3 130.49) rotate(-30.01)"/><ellipse class="cls-19" cx="213.34" cy="151.88" rx="1.56" ry="2.7" transform="translate(-47.36 127.06) rotate(-30.01)"/><ellipse class="cls-21" cx="207.31" cy="148.51" rx="1.56" ry="2.7" transform="translate(-46.48 123.6) rotate(-30.01)"/><ellipse class="cls-19" cx="225.04" cy="181.71" rx="1.56" ry="2.7" transform="translate(-60.71 136.91) rotate(-30.01)"/><ellipse class="cls-22" cx="219.27" cy="178.33" rx="1.56" ry="2.7" transform="translate(-59.8 133.58) rotate(-30.01)"/><ellipse class="cls-22" cx="213.34" cy="174.87" rx="1.56" ry="2.7" transform="translate(-58.86 130.15) rotate(-30.01)"/><ellipse class="cls-22" cx="207.31" cy="171.5" rx="1.56" ry="2.7" transform="matrix(0.87, -0.5, 0.5, 0.87, -57.99, 126.68)"/><polygon class="cls-23" points="351.62 46.69 269.85 93.89 188.09 46.69 269.85 -0.52 351.62 46.69"/><polygon class="cls-2" points="232.45 37.03 207.49 51.44 205.19 50.12 230.16 35.71 232.45 37.03"/><polygon class="cls-2" points="237.47 40.02 212.5 54.43 210.21 53.11 235.17 38.69 237.47 40.02"/><polygon class="cls-2" points="243.14 43.25 218.18 57.66 215.88 56.34 240.85 41.93 243.14 43.25"/><ellipse class="cls-2" cx="341.15" cy="46.69" rx="2.76" ry="1.59"/><ellipse class="cls-2" cx="269.85" cy="6.02" rx="2.76" ry="1.59"/><ellipse class="cls-2" cx="197.24" cy="46.56" rx="2.76" ry="1.59"/><ellipse class="cls-2" cx="268.6" cy="85.76" rx="2.76" ry="1.59"/><polygon class="cls-2" points="188.09 46.69 188.09 49.8 269.85 97 269.85 93.89 188.09 46.69"/><polygon class="cls-2" points="351.62 46.69 351.62 49.8 269.85 97 269.85 93.89 351.62 46.69"/><polygon class="cls-24" points="188.09 49.8 188.09 179.39 269.85 226.78 269.85 97 188.09 49.8"/><polygon class="cls-25" points="351.62 49.8 351.62 179.39 269.85 226.78 269.85 97 351.62 49.8"/><polygon class="cls-26" points="330.52 86.76 330.52 143.58 281.47 171.9 281.47 115.12 330.52 86.76"/><polygon class="cls-27" points="342.02 86.76 342.02 143.58 292.97 171.9 292.97 115.12 342.02 86.76"/><polygon class="cls-28" points="316.15 114.04 296.12 125.6 296.12 123.34 316.15 111.78 316.15 114.04"/><polygon class="cls-29" points="326.96 107.81 317.75 113.1 317.75 110.84 326.96 105.55 326.96 107.81"/><polygon class="cls-28" points="304.39 128.26 296.12 133.03 296.12 130.77 304.39 126.01 304.39 128.26"/><polygon class="cls-28" points="329.42 113.83 316.83 121.09 316.83 118.83 329.42 111.57 329.42 113.83"/><polygon class="cls-29" points="314.22 122.6 306 127.33 306 125.07 314.22 120.34 314.22 122.6"/><polygon class="cls-28" points="317.44 138.03 296.12 150.31 296.12 148.05 317.44 135.78 317.44 138.03"/><polygon class="cls-29" points="327.27 132.37 319.05 137.09 319.05 134.84 327.27 130.11 327.27 132.37"/><polygon class="cls-30" points="318.45 128.46 297.09 140.71 297.09 138.45 318.45 126.2 318.45 128.46"/><g class="cls-1"><path class="cls-2" d="M120.64,330.83a6,6,0,0,1,5.43,0l80.8,46.65c1.49.86,1.49,2.27,0,3.13l-80.8,46.65a6,6,0,0,1-5.43,0l-80.8-46.65c-1.49-.86-1.49-2.27,0-3.13Z"/></g><path class="cls-31" d="M41.51,341.59a5.75,5.75,0,0,0-2.76,4.6v16.64a6,6,0,0,0,2.71,4.7l79.18,45.72a6,6,0,0,0,5.43,0l79.18-45.72a6.06,6.06,0,0,0,2.74-4.7l.09-13.82a5.77,5.77,0,0,0-2.73-4.63l-80.68-44a6.51,6.51,0,0,0-5.51,0Z"/><path class="cls-32" d="M69.43,374.1c-1.49-.86-1.49-2.27,0-3.13l3.13-1.81a6,6,0,0,1,5.43,0l11.68,6.75c1.49.86,1.49,2.27,0,3.13l-3.13,1.8a6,6,0,0,1-5.42,0Z"/><path class="cls-33" d="M88.27,376.67c1.53-.79,2.75,0,2.72,1.69l-.06,3.19a6.14,6.14,0,0,1-2.76,4.69L85,388.05c-1.49.86-2.71.16-2.71-1.56v-3.62a5.66,5.66,0,0,1,2.78-4.57Z"/><path class="cls-6" d="M68.28,373c0-1.72,1.21-2.42,2.71-1.56l11.68,6.74a6,6,0,0,1,2.71,4.7v3.61c0,1.73-1.22,2.43-2.71,1.57L71,381.34a6,6,0,0,1-2.71-4.69Z"/><ellipse class="cls-2" cx="76.38" cy="380.41" rx="1.84" ry="3.18" transform="translate(-179.97 89.15) rotate(-30)"/><path class="cls-7" d="M129.75,401.31a2.62,2.62,0,0,0-1.2,2.08c0,.76.53,1.07,1.2.69A2.67,2.67,0,0,0,131,402C131,401.24,130.41,400.92,129.75,401.31Z"/><path class="cls-7" d="M133.22,399.3a2.65,2.65,0,0,0-1.2,2.08c0,.76.54,1.07,1.2.69a2.65,2.65,0,0,0,1.2-2.08C134.42,399.23,133.89,398.92,133.22,399.3Z"/><path class="cls-7" d="M136.7,397.3a2.65,2.65,0,0,0-1.2,2.07c0,.77.53,1.08,1.2.7a2.68,2.68,0,0,0,1.2-2.08C137.9,397.22,137.36,396.91,136.7,397.3Z"/><path class="cls-7" d="M129.75,405.05a2.64,2.64,0,0,0-1.21,2.08c0,.76.54,1.07,1.2.69a2.62,2.62,0,0,0,1.2-2.08C131,405,130.41,404.67,129.75,405.05Z"/><path class="cls-7" d="M133.22,403.05a2.65,2.65,0,0,0-1.2,2.07c0,.77.54,1.08,1.2.7a2.68,2.68,0,0,0,1.2-2.08C134.42,403,133.88,402.66,133.22,403.05Z"/><path class="cls-7" d="M136.7,401a2.62,2.62,0,0,0-1.2,2.08c0,.76.53,1.07,1.2.69a2.65,2.65,0,0,0,1.2-2.08C137.9,401,137.36,400.66,136.7,401Z"/><path class="cls-7" d="M140.14,395.31a2.65,2.65,0,0,0-1.2,2.08c0,.76.54,1.07,1.2.69a2.67,2.67,0,0,0,1.2-2.08C141.34,395.24,140.8,394.92,140.14,395.31Z"/><path class="cls-7" d="M143.62,393.3a2.64,2.64,0,0,0-1.21,2.08c0,.76.54,1.07,1.2.69a2.62,2.62,0,0,0,1.2-2.08C144.82,393.23,144.28,392.92,143.62,393.3Z"/><path class="cls-7" d="M147.09,391.3a2.65,2.65,0,0,0-1.2,2.07c0,.77.54,1.08,1.2.7a2.68,2.68,0,0,0,1.2-2.08C148.29,391.22,147.75,390.91,147.09,391.3Z"/><path class="cls-7" d="M140.14,399.05a2.62,2.62,0,0,0-1.2,2.08c0,.76.53,1.07,1.2.69a2.65,2.65,0,0,0,1.2-2.08C141.34,399,140.8,398.67,140.14,399.05Z"/><ellipse class="cls-7" cx="143.61" cy="398.43" rx="1.7" ry="0.98" transform="translate(-273.19 323.3) rotate(-59.96)"/><path class="cls-7" d="M147.09,395a2.65,2.65,0,0,0-1.2,2.08c0,.76.54,1.07,1.2.69a2.65,2.65,0,0,0,1.2-2.08C148.29,395,147.75,394.66,147.09,395Z"/><path class="cls-7" d="M150.53,389.31a2.65,2.65,0,0,0-1.2,2.08c0,.76.54,1.07,1.2.69a2.67,2.67,0,0,0,1.2-2.08C151.73,389.24,151.19,388.92,150.53,389.31Z"/><path class="cls-7" d="M154,387.3a2.62,2.62,0,0,0-1.2,2.08c0,.76.53,1.07,1.2.69a2.65,2.65,0,0,0,1.2-2.08C155.21,387.23,154.67,386.92,154,387.3Z"/><path class="cls-7" d="M157.48,385.3a2.65,2.65,0,0,0-1.2,2.07c0,.77.54,1.08,1.2.7a2.66,2.66,0,0,0,1.2-2.08C158.68,385.22,158.15,384.91,157.48,385.3Z"/><path class="cls-7" d="M150.53,393.05a2.65,2.65,0,0,0-1.2,2.08c0,.76.54,1.07,1.2.69a2.65,2.65,0,0,0,1.2-2.08C151.73,393,151.19,392.67,150.53,393.05Z"/><path class="cls-7" d="M154,391.05a2.62,2.62,0,0,0-1.2,2.07c0,.77.53,1.08,1.19.7a2.67,2.67,0,0,0,1.21-2.08C155.21,391,154.67,390.66,154,391.05Z"/><path class="cls-7" d="M157.48,389a2.65,2.65,0,0,0-1.2,2.08c0,.76.54,1.07,1.2.69a2.65,2.65,0,0,0,1.2-2.08C158.68,389,158.14,388.66,157.48,389Z"/><path class="cls-7" d="M188.66,367.3a2.65,2.65,0,0,0-1.2,2.07c0,.77.54,1.08,1.2.7a2.68,2.68,0,0,0,1.2-2.08C189.86,367.22,189.32,366.91,188.66,367.3Z"/><path class="cls-7" d="M188.66,371a2.65,2.65,0,0,0-1.2,2.08c0,.76.53,1.07,1.2.69a2.65,2.65,0,0,0,1.2-2.08C189.86,371,189.32,370.66,188.66,371Z"/><path class="cls-7" d="M192.1,365.31a2.65,2.65,0,0,0-1.2,2.08c0,.76.54,1.07,1.2.69a2.67,2.67,0,0,0,1.2-2.08C193.3,365.24,192.76,364.92,192.1,365.31Z"/><path class="cls-7" d="M195.58,363.3a2.62,2.62,0,0,0-1.2,2.08c0,.76.53,1.07,1.2.69a2.65,2.65,0,0,0,1.2-2.08C196.78,363.23,196.24,362.92,195.58,363.3Z"/><path class="cls-7" d="M199.05,361.3a2.65,2.65,0,0,0-1.2,2.07c0,.77.54,1.08,1.2.7a2.68,2.68,0,0,0,1.2-2.08C200.25,361.22,199.72,360.91,199.05,361.3Z"/><path class="cls-7" d="M192.1,369.05a2.65,2.65,0,0,0-1.2,2.08c0,.76.54,1.07,1.2.69a2.65,2.65,0,0,0,1.2-2.08C193.3,369,192.76,368.67,192.1,369.05Z"/><path class="cls-7" d="M195.58,367.05a2.63,2.63,0,0,0-1.21,2.07c0,.77.54,1.08,1.2.7a2.66,2.66,0,0,0,1.2-2.08C196.78,367,196.24,366.66,195.58,367.05Z"/><path class="cls-7" d="M199.05,365a2.65,2.65,0,0,0-1.2,2.08c0,.76.54,1.07,1.2.69a2.65,2.65,0,0,0,1.2-2.08C200.25,365,199.71,364.66,199.05,365Z"/><path class="cls-7" d="M202.49,362.08a2.67,2.67,0,0,0,1.2-2.08c0-.76-.53-1.08-1.2-.69a2.65,2.65,0,0,0-1.2,2.08C201.29,362.15,201.83,362.46,202.49,362.08Z"/><path class="cls-7" d="M202.49,363.05a2.65,2.65,0,0,0-1.2,2.08c0,.76.54,1.07,1.2.69a2.65,2.65,0,0,0,1.2-2.08C203.69,363,203.15,362.67,202.49,363.05Z"/><path class="cls-34" d="M181.43,372.16c1.5-.86,1.5-2.27,0-3.13l-3.13-1.81a6,6,0,0,0-5.42,0L161.19,374c-1.49.86-1.49,2.27,0,3.13l3.13,1.81a6,6,0,0,0,5.43,0Z"/><path class="cls-35" d="M162.6,374.73c-1.53-.79-2.76,0-2.73,1.69l.06,3.19a6.15,6.15,0,0,0,2.77,4.69l3.12,1.81c1.5.86,2.72.16,2.72-1.56v-3.62a5.67,5.67,0,0,0-2.79-4.57Z"/><path class="cls-6" d="M182.59,371.09c0-1.72-1.22-2.42-2.71-1.56l-11.69,6.74a6,6,0,0,0-2.71,4.7v3.62c0,1.72,1.22,2.42,2.71,1.56l11.68-6.75a6,6,0,0,0,2.72-4.69Z"/><ellipse class="cls-2" cx="174.49" cy="378.47" rx="3.18" ry="1.84" transform="translate(-240.52 340.34) rotate(-60)"/><path class="cls-7" d="M120.74,405.21c.66.38,1.2.07,1.2-.7a2.65,2.65,0,0,0-1.2-2.07c-.66-.39-1.2-.08-1.2.69A2.68,2.68,0,0,0,120.74,405.21Z"/><ellipse class="cls-7" cx="117.26" cy="401.81" rx="0.98" ry="1.7" transform="translate(-185.4 112.67) rotate(-30.04)"/><path class="cls-7" d="M113.79,401.19c.66.39,1.2.08,1.2-.69a2.68,2.68,0,0,0-1.2-2.08c-.67-.38-1.2-.07-1.2.7A2.62,2.62,0,0,0,113.79,401.19Z"/><path class="cls-7" d="M120.74,406.18c-.66-.38-1.2-.07-1.2.69a2.65,2.65,0,0,0,1.2,2.08c.66.38,1.2.07,1.2-.69A2.65,2.65,0,0,0,120.74,406.18Z"/><path class="cls-7" d="M117.26,404.17c-.66-.38-1.2-.07-1.2.7a2.63,2.63,0,0,0,1.21,2.07c.66.39,1.2.08,1.19-.69A2.66,2.66,0,0,0,117.26,404.17Z"/><path class="cls-7" d="M113.79,402.17c-.66-.38-1.2-.07-1.2.69a2.65,2.65,0,0,0,1.2,2.08c.66.38,1.2.07,1.2-.69A2.65,2.65,0,0,0,113.79,402.17Z"/><path class="cls-7" d="M110.35,399.21c.66.38,1.2.07,1.2-.7a2.65,2.65,0,0,0-1.2-2.07c-.67-.39-1.2-.08-1.2.69A2.66,2.66,0,0,0,110.35,399.21Z"/><path class="cls-7" d="M106.87,397.2c.66.38,1.2.07,1.2-.69a2.65,2.65,0,0,0-1.2-2.08c-.66-.38-1.2-.07-1.2.69A2.65,2.65,0,0,0,106.87,397.2Z"/><path class="cls-7" d="M103.4,395.19c.66.39,1.2.08,1.19-.69a2.66,2.66,0,0,0-1.2-2.08c-.66-.38-1.2-.07-1.2.7A2.63,2.63,0,0,0,103.4,395.19Z"/><path class="cls-7" d="M110.35,400.18c-.67-.38-1.2-.07-1.2.69a2.65,2.65,0,0,0,1.2,2.08c.66.38,1.2.07,1.2-.69A2.65,2.65,0,0,0,110.35,400.18Z"/><path class="cls-7" d="M106.87,398.17c-.66-.38-1.2-.07-1.2.7a2.65,2.65,0,0,0,1.2,2.07c.67.39,1.2.08,1.2-.69A2.68,2.68,0,0,0,106.87,398.17Z"/><path class="cls-7" d="M103.4,396.17c-.67-.38-1.2-.07-1.2.69a2.62,2.62,0,0,0,1.2,2.08c.66.38,1.2.07,1.2-.69A2.65,2.65,0,0,0,103.4,396.17Z"/><path class="cls-7" d="M100,393.21c.67.38,1.2.07,1.2-.7a2.62,2.62,0,0,0-1.2-2.07c-.66-.39-1.2-.08-1.2.69A2.68,2.68,0,0,0,100,393.21Z"/><ellipse class="cls-7" cx="96.48" cy="389.81" rx="0.98" ry="1.7" transform="translate(-182.18 100.66) rotate(-30.04)"/><path class="cls-7" d="M93,389.19c.67.39,1.2.08,1.2-.69a2.68,2.68,0,0,0-1.2-2.08c-.66-.38-1.2-.07-1.2.7A2.65,2.65,0,0,0,93,389.19Z"/><path class="cls-7" d="M100,394.18c-.67-.38-1.2-.07-1.2.69A2.62,2.62,0,0,0,100,397c.66.38,1.2.07,1.2-.69A2.65,2.65,0,0,0,100,394.18Z"/><path class="cls-7" d="M96.48,392.17c-.66-.38-1.2-.07-1.2.7a2.65,2.65,0,0,0,1.2,2.07c.66.39,1.2.08,1.2-.69A2.68,2.68,0,0,0,96.48,392.17Z"/><path class="cls-7" d="M93,390.17c-.66-.38-1.2-.07-1.2.69a2.65,2.65,0,0,0,1.2,2.08c.67.38,1.2.07,1.2-.69A2.62,2.62,0,0,0,93,390.17Z"/><path class="cls-7" d="M61.83,371.33c.66.38,1.2.07,1.2-.69a2.65,2.65,0,0,0-1.2-2.08c-.67-.38-1.2-.07-1.2.69A2.62,2.62,0,0,0,61.83,371.33Z"/><path class="cls-7" d="M58.35,369.32c.66.39,1.2.08,1.2-.69a2.68,2.68,0,0,0-1.2-2.08c-.66-.38-1.2-.07-1.2.7A2.65,2.65,0,0,0,58.35,369.32Z"/><path class="cls-7" d="M61.83,372.3c-.66-.38-1.2-.07-1.2.7a2.65,2.65,0,0,0,1.2,2.07c.66.39,1.2.08,1.2-.69A2.68,2.68,0,0,0,61.83,372.3Z"/><path class="cls-7" d="M58.35,370.3c-.66-.39-1.2-.08-1.2.69a2.67,2.67,0,0,0,1.2,2.08c.67.38,1.2.07,1.2-.7A2.65,2.65,0,0,0,58.35,370.3Z"/><path class="cls-7" d="M54.91,367.33c.66.39,1.2.08,1.2-.69a2.68,2.68,0,0,0-1.2-2.08c-.66-.38-1.2-.07-1.2.7A2.65,2.65,0,0,0,54.91,367.33Z"/><ellipse class="cls-7" cx="51.43" cy="363.94" rx="0.98" ry="1.7" transform="translate(-175.28 74.63) rotate(-30.04)"/><path class="cls-7" d="M48,363.32c.66.39,1.2.08,1.2-.69a2.68,2.68,0,0,0-1.2-2.08c-.66-.38-1.2-.07-1.2.7A2.65,2.65,0,0,0,48,363.32Z"/><path class="cls-7" d="M54.91,368.31c-.66-.38-1.2-.07-1.2.69a2.65,2.65,0,0,0,1.2,2.08c.67.38,1.2.07,1.2-.69A2.65,2.65,0,0,0,54.91,368.31Z"/><path class="cls-7" d="M51.44,366.3c-.67-.38-1.2-.07-1.2.7a2.62,2.62,0,0,0,1.2,2.07c.66.39,1.2.08,1.2-.69A2.68,2.68,0,0,0,51.44,366.3Z"/><path class="cls-7" d="M48,364.3c-.66-.39-1.2-.08-1.2.69a2.67,2.67,0,0,0,1.2,2.08c.66.38,1.2.07,1.2-.7A2.65,2.65,0,0,0,48,364.3Z"/><path class="cls-7" d="M44.52,361.33c.66.39,1.2.08,1.2-.69a2.68,2.68,0,0,0-1.2-2.08c-.67-.38-1.2-.07-1.2.7A2.65,2.65,0,0,0,44.52,361.33Z"/><path class="cls-7" d="M44.52,362.31c-.66-.38-1.2-.07-1.2.69a2.65,2.65,0,0,0,1.2,2.08c.66.38,1.2.07,1.2-.69A2.65,2.65,0,0,0,44.52,362.31Z"/><polyline class="cls-36" points="222.76 216.83 216.27 220.58 216.73 238.31 150.78 276.4 279.07 350.48 202.29 394.92 175.02 379.27"/><path class="cls-14" d="M185.86,288.16s25.38,10.16,2.14,24.92"/><path class="cls-14" d="M183.36,308.16S214.72,320.72,186,339"/><path class="cls-14" d="M181.21,315s25.38,10.16,2.14,24.92"/><path class="cls-14" d="M189.86,262.39s19.54,37-9.09,51.59"/><path class="cls-14" d="M184.89,264.64s43.88,3.57-9.09,28.77"/><polygon class="cls-37" points="55.91 327.14 123.07 365.92 190.23 327.14 123.07 288.37 55.91 327.14"/><polygon class="cls-2" points="190.23 327.14 190.23 338.84 123.07 377.62 123.07 365.92 190.23 327.14"/><polygon class="cls-2" points="123.07 365.92 123.07 377.62 55.91 338.84 55.91 327.14 123.07 365.92"/><polygon class="cls-38" points="55.91 304.29 123.07 343.06 190.23 304.29 123.07 265.51 55.91 304.29"/><polygon class="cls-2" points="190.23 304.29 190.23 315.99 123.07 354.76 123.07 343.06 190.23 304.29"/><polygon class="cls-2" points="123.07 343.06 123.07 354.76 55.91 315.99 55.91 304.29 123.07 343.06"/><polygon class="cls-39" points="55.91 280.45 123.07 319.22 190.23 280.45 123.07 241.67 55.91 280.45"/><polygon class="cls-2" points="190.23 280.45 190.23 292.15 123.07 330.93 123.07 319.22 190.23 280.45"/><polygon class="cls-2" points="123.07 319.22 123.07 330.93 55.91 292.15 55.91 280.45 123.07 319.22"/><polygon class="cls-40" points="55.91 257.59 123.07 296.37 190.23 257.59 123.07 218.82 55.91 257.59"/><polygon class="cls-2" points="190.23 257.59 190.23 269.3 123.07 308.07 123.07 296.37 190.23 257.59"/><polygon class="cls-2" points="123.07 296.37 123.07 308.07 55.91 269.3 55.91 257.59 123.07 296.37"/><ellipse class="cls-19" cx="78.48" cy="276.9" rx="1.56" ry="2.7" transform="translate(-127.97 76.38) rotate(-30.01)"/><ellipse class="cls-20" cx="72.01" cy="273.54" rx="1.56" ry="2.7" transform="translate(-127.16 72.69) rotate(-30.01)"/><ellipse class="cls-19" cx="66.08" cy="270.08" rx="1.56" ry="2.7" transform="matrix(0.87, -0.5, 0.5, 0.87, -126.22, 69.26)"/><ellipse class="cls-21" cx="60.05" cy="266.71" rx="1.56" ry="2.7" transform="matrix(0.87, -0.5, 0.5, 0.87, -125.35, 65.79)"/><ellipse class="cls-19" cx="78.48" cy="299.89" rx="1.56" ry="2.7" transform="translate(-139.47 79.46) rotate(-30.01)"/><ellipse class="cls-21" cx="72.01" cy="296.53" rx="1.56" ry="2.7" transform="translate(-138.66 75.77) rotate(-30.01)"/><ellipse class="cls-21" cx="66.08" cy="293.08" rx="1.56" ry="2.7" transform="translate(-137.72 72.34) rotate(-30.01)"/><ellipse class="cls-21" cx="60.05" cy="289.71" rx="1.56" ry="2.7" transform="translate(-136.85 68.87) rotate(-30.01)"/><ellipse class="cls-19" cx="78.48" cy="322.89" rx="1.56" ry="2.7" transform="translate(-150.97 82.54) rotate(-30.01)"/><ellipse class="cls-22" cx="72.01" cy="319.53" rx="1.56" ry="2.7" transform="translate(-150.16 78.85) rotate(-30.01)"/><ellipse class="cls-19" cx="66.08" cy="316.07" rx="1.56" ry="2.7" transform="translate(-149.23 75.42) rotate(-30.01)"/><ellipse class="cls-21" cx="60.05" cy="312.7" rx="1.56" ry="2.7" transform="translate(-148.35 71.96) rotate(-30.01)"/><ellipse class="cls-19" cx="78.48" cy="345.88" rx="1.56" ry="2.7" transform="translate(-162.47 85.63) rotate(-30.01)"/><ellipse class="cls-22" cx="72.01" cy="342.52" rx="1.56" ry="2.7" transform="translate(-161.66 81.93) rotate(-30.01)"/><ellipse class="cls-22" cx="66.08" cy="339.06" rx="1.56" ry="2.7" transform="translate(-160.73 78.51) rotate(-30.01)"/><ellipse class="cls-22" cx="60.05" cy="335.69" rx="1.56" ry="2.7" transform="matrix(0.87, -0.5, 0.5, 0.87, -159.85, 75.04)"/><polygon class="cls-41" points="205.07 210.85 123.3 258.06 41.53 210.86 123.3 163.65 205.07 210.85"/><polygon class="cls-2" points="85.9 201.2 60.93 215.61 58.64 214.29 83.61 199.88 85.9 201.2"/><polygon class="cls-2" points="90.92 204.19 65.95 218.6 63.66 217.28 88.62 202.86 90.92 204.19"/><polygon class="cls-2" points="96.59 207.42 71.63 221.84 69.33 220.51 94.3 206.1 96.59 207.42"/><ellipse class="cls-2" cx="194.6" cy="210.86" rx="2.76" ry="1.59"/><ellipse class="cls-2" cx="123.3" cy="170.19" rx="2.76" ry="1.59"/><ellipse class="cls-2" cx="52.63" cy="209.8" rx="2.76" ry="1.59"/><ellipse class="cls-2" cx="122.05" cy="249.93" rx="2.76" ry="1.59"/><polygon class="cls-2" points="41.53 210.86 41.53 213.97 123.3 261.17 123.3 258.06 41.53 210.86"/><polygon class="cls-2" points="205.07 210.85 205.07 213.97 123.3 261.17 123.3 258.06 205.07 210.85"/><polygon class="cls-42" points="41.53 213.97 41.53 343.56 123.3 390.95 123.3 261.17 41.53 213.97"/><polygon class="cls-43" points="205.07 213.97 205.07 343.56 123.3 390.95 123.3 261.17 205.07 213.97"/><polygon class="cls-26" points="183.97 250.93 183.97 307.75 134.92 336.07 134.92 279.29 183.97 250.93"/><polygon class="cls-27" points="195.47 250.93 195.47 307.75 146.41 336.07 146.41 279.29 195.47 250.93"/><polygon class="cls-28" points="169.6 278.21 149.57 289.77 149.57 287.51 169.6 275.95 169.6 278.21"/><polygon class="cls-29" points="180.41 271.98 171.2 277.27 171.2 275.01 180.41 269.72 180.41 271.98"/><polygon class="cls-28" points="157.84 292.44 149.57 297.2 149.57 294.94 157.84 290.18 157.84 292.44"/><polygon class="cls-28" points="182.87 278 170.28 285.26 170.28 283 182.87 275.74 182.87 278"/><polygon class="cls-29" points="167.67 286.77 159.44 291.5 159.44 289.24 167.67 284.51 167.67 286.77"/><polygon class="cls-28" points="170.89 302.2 149.57 314.48 149.57 312.22 170.89 299.94 170.89 302.2"/><polygon class="cls-29" points="180.72 296.54 172.49 301.26 172.49 299.01 180.72 294.28 180.72 296.54"/><polygon class="cls-30" points="171.9 292.63 150.54 304.88 150.54 302.62 171.9 290.37 171.9 292.63"/><path class="cls-44" d="M322.71,235.15a6.45,6.45,0,0,0-4.33,4c-1,3.21,1.2,5.68,1.71,6.67s2.26,1.23,2.62,1.73a5,5,0,0,0,3.58,1.23c1.24-.24,3-5.93,1.73-9.63S322.71,235.15,322.71,235.15Z"/><path class="cls-45" d="M372.47,255.25c1.82-8.32.5-26.31.5-26.31s-11.32-2.18-16.07,8.78c-5.79-3.08-24.68-1.23-24.68-1.23s-6.1,20.56-7.14,29.67,2.05,20.82,5.58,29.41,6.91,33.84,7.18,35.4a23.35,23.35,0,0,1,0,4.42l9.37-11.19s-.8-17.18-1.83-26.81-2.2-19.52-2.2-19.52,5.22-16.65,9.05-21.86l1.74-2.86s.25-.33.62-.9c-.69,18,2,36.34,2.25,41,.26,5.21,0,31.49,0,31.49l7.28,2.61s0-4.17,2.35-15.88,3.64-40.86,3.9-46.07S370.65,263.58,372.47,255.25Z"/><path class="cls-44" d="M339.4,151.05l.17-1.87a27.57,27.57,0,0,0-4.09-5.9c-2-1.8-8.44-5.56-9.7-6.22a11.82,11.82,0,0,0-4.84-1.63c-1.67,0-.52,2.62,2.59,4.58a43.54,43.54,0,0,1,4.58,3.23s.49,2.17-.66,2.17-1.67,1.31-1.67,1.31.53,3.25,1.67,4.33,4.1,3.69,4.1,3.69l9.73,4.89Z"/><path class="cls-46" d="M342.81,180.74s-8.4-17.15-9.47-19.83-2.68-6.61-2.68-6.61l8.75-6.08s11.44,12.69,12,13S358,174.13,358,174.84s-2.83,9.11-2.83,9.11Z"/><path class="cls-44" d="M344.67,175.22v-5.76a11.54,11.54,0,0,1-3.39-9.83l-.1-2.82s3.06,4.5,5.11,6.14,2.66,7.58,9,8.4c0,0,2.86,8.39-3.49,7.16S344.67,175.22,344.67,175.22Z"/><path class="cls-47" d="M343,162.13c-.25-.56-1.83-5.32-1.83-5.32s-1-2.05,0-6.56,5.92-7.78,11.25-7.37S367,147,366.15,156.81c0,0,3.28,2,4.71,9.62s-1.84,12.08-5.12,15.16-3.89,8-3.89,8-7.78-5.53-6.55-18.22C355.3,171.35,347.72,172.58,343,162.13Z"/><path class="cls-46" d="M369.43,173.19c11.26,7.37,2.25,19.25-.21,26.62s-1.64,16.79,2,20.48,3.75,9.42,3.75,9.42c-1,2.66-10.86,17.82-27.65,15.77s-17.82-10.85-17.82-10.85a40.93,40.93,0,0,1,3.73-13.52c3.33-7,1.19-13.93.37-21.91a89.41,89.41,0,0,1,0-16c10.44-10,24-12.49,24-12.49Z"/><path class="cls-46" d="M329.49,188s2.55-6,6.41-4,6.7,3.51,7.21,7.11-2.32,18-1.93,21.63-2.44,10.3-4.25,13.65-8.49,16-8.49,16l-7.17-5.46s5.13-16.43,5.62-19.52,2.6-16.73,2.6-16.73Z"/><path class="cls-48" d="M361.85,189.57s.61-4.91,3.89-8,6.55-7.58,5.12-15.16-4.71-9.62-4.71-9.62-8-.21-10.85,14.54C354.07,184,361.85,189.57,361.85,189.57Z"/><path class="cls-49" d="M358.74,333s1.84-.3,3.54,2.4,1.44,4.4,1.44,4.4h2.75s.92-6.54-.65-8.89S359.22,330.22,358.74,333Z"/><path class="cls-50" d="M359.92,324.2a3.2,3.2,0,0,0-3.08.52c-1.24,1.2-.85,6.42-5.35,7.55s-1.26,7.08-1.26,7.08,3.67,1,5.76,0,2.49-9,9.83-8.45C365.82,330.9,367.39,322.88,359.92,324.2Z"/><path class="cls-49" d="M344.46,336.26s3,2.1,2.75,5.11a26.49,26.49,0,0,0,0,5.07h4.19s.52-9.39-.92-13.06S344.46,336.26,344.46,336.26Z"/><path class="cls-50" d="M345.38,324.87a10.09,10.09,0,0,0-4.71,5.24c-1.8,4-3.4,6.42-5.76,6.68s-4.58.52-6.15,1.83c0,0-1.05,3,.52,5.24a7,7,0,0,0,7.62,2.23c2.46-.92,5.19-7.6,8.48-9.83s5.38-1.83,5.77-1.7,1.41-8.28-3.94-10.36Z"/></g></svg>