<?xml version="1.0" encoding="utf-8"?>
<svg id="ICON" viewBox="0 0 128 128" xmlns="http://www.w3.org/2000/svg">
  <title>subdomains</title>
  <g id="subdomains">
    <path d="M22.85,101.79a1.92,1.92,0,0,1-1-.26,2,2,0,0,1-.77-2.72L38.16,68.4a2,2,0,1,1,3.48,2l-17,30.41A2,2,0,0,1,22.85,101.79Zm83.17-.26a2,2,0,0,0,.77-2.72l-17-30.36a2,2,0,1,0-3.49,2l17,30.36a2,2,0,0,0,1.75,1A1.88,1.88,0,0,0,106,101.53ZM66,98V78a2,2,0,0,0-4,0V98a2,2,0,0,0,4,0ZM24,112a8,8,0,1,0-8,8A8,8,0,0,0,24,112Zm-4,0a4,4,0,1,1-4-4A4,4,0,0,1,20,112Zm52,0a8,8,0,1,0-8,8A8,8,0,0,0,72,112Zm-4,0a4,4,0,1,1-4-4A4,4,0,0,1,68,112Zm52,0a8,8,0,1,0-8,8A8,8,0,0,0,120,112Zm-4,0a4,4,0,1,1-4-4A4,4,0,0,1,116,112Z" style="fill: rgb(144, 24, 161);"/>
    <path d="M16,128a16,16,0,1,1,16-16A16,16,0,0,1,16,128Zm0-28a12,12,0,1,0,12,12A12,12,0,0,0,16,100Zm48,28a16,16,0,1,1,16-16A16,16,0,0,1,64,128Zm0-28a12,12,0,1,0,12,12A12,12,0,0,0,64,100Zm47.94,28a16,16,0,1,1,16-16A16,16,0,0,1,111.89,128Zm0-28a12,12,0,1,0,12,12A12,12,0,0,0,111.89,100ZM64,0a40,40,0,1,0,40,40A40,40,0,0,0,64,0ZM88.85,66c-6.55,5.7-18.76,3.82-30.34-3.93a114.34,114.34,0,0,0,14.9-12.67c2-2,4-4.15,5.89-6.3,8.82,11,12.12,19.85,10.28,22.2Zm-50.14-.42-.79-.81c-3.24-3.8-4.06-9.64-2.3-16.6.3-1.16.67-2.33,1.09-3.5a62.56,62.56,0,0,0,9.88,12.73,63.52,63.52,0,0,0,4.93,4.44c-.61.36-1.22.73-1.81,1C43.43,66.29,39.92,66.48,38.71,65.59Zm10.7-11A57.12,57.12,0,0,1,38.73,40,57.12,57.12,0,0,1,49.41,25.41a62.41,62.41,0,0,1,5.67-5,109.22,109.22,0,0,1,15.51,13c2.24,2.25,4.27,4.45,6.12,6.59-1.85,2.14-3.88,4.34-6.12,6.59a109.22,109.22,0,0,1-15.51,13A62.41,62.41,0,0,1,49.41,54.59ZM35.62,31.82c-1.76-7-.94-12.8,2.3-16.6l.79-.81c1.21-.89,4.73-.7,11,2.69.59.32,1.2.68,1.81,1a61.88,61.88,0,0,0-4.93,4.45,62.56,62.56,0,0,0-9.88,12.73C36.29,34.15,35.92,33,35.62,31.82ZM88.84,14l.74.71C91.42,17,88.12,25.85,79.3,36.88c-1.87-2.14-3.84-4.25-5.89-6.29a114.34,114.34,0,0,0-14.9-12.67C70.09,10.17,82.29,8.29,88.84,14ZM81.93,40c6-7.32,10.43-14.7,11.73-20.37a35.89,35.89,0,0,1,0,40.74C92.36,54.7,87.89,47.32,81.93,40ZM78,6.82c-7.12.27-15.3,3.3-23,8.73-1.13-.71-2.25-1.38-3.33-2a32.42,32.42,0,0,0-8-3.22A35.92,35.92,0,0,1,78,6.82ZM30.74,26.23a33.32,33.32,0,0,0,1,6.58A43.6,43.6,0,0,0,34.3,40a43.6,43.6,0,0,0-2.55,7.19,32.29,32.29,0,0,0-1,6.61,35.93,35.93,0,0,1,0-27.57ZM43.6,69.64a32.82,32.82,0,0,0,8-3.22c1.08-.59,2.2-1.26,3.34-2,7.73,5.43,15.91,8.46,23,8.72A35.94,35.94,0,0,1,43.6,69.64Z" style="fill:#001b41"/>
    <circle cx="55.11" cy="18.05" r="4" style="fill: rgb(144, 24, 161);"/>
    <path d="M55.11,24.05a6,6,0,1,1,6-6A6,6,0,0,1,55.11,24.05Zm0-8a2,2,0,1,0,2,2A2,2,0,0,0,55.11,16.05Z" style="fill:#001b41"/>
  </g>
</svg>