<?xml version="1.0" encoding="utf-8"?>
<svg viewBox="0 0 131.72 128" xmlns="http://www.w3.org/2000/svg">
  <defs>
    <style>.a{fill:#069bca;}.b{fill:#001b41;}</style>
  </defs>
  <path class="a" d="M121.13,32.83a60.39,60.39,0,0,0-39-25.42,2,2,0,1,0-.75,4A56.74,56.74,0,1,1,24.15,99.2a56.24,56.24,0,0,1-9.59-37.94l6.53,8.18a2,2,0,0,0,1.59.76,2,2,0,0,0,1.26-.44,2,2,0,0,0,.32-2.84L14.8,55.07,14.73,55l-.18-.18-.13-.1-.2-.14-.15-.08-.22-.08-.19-.05-.07,0h-.16l-.12,0h-.06l-.26,0-.15,0-.28.08-.11,0a3.07,3.07,0,0,0-.31.17l-.06,0a2.66,2.66,0,0,0-.31.26h0l-11,11.5a2,2,0,1,0,2.92,2.8l6.71-7A60.78,60.78,0,0,0,130.72,78.35,60.38,60.38,0,0,0,121.13,32.83Z" style="fill: rgb(144, 24, 161);"/>
  <circle class="b" cx="68.1" cy="70.12" r="4.19"/>
  <path class="b" d="M68.1,86.11a16,16,0,1,1,2.21-31.82L90.49,43.08a3.42,3.42,0,0,1,4.65,4.66L83.93,67.91A16,16,0,0,1,68.1,86.11Zm0-27.92a11.94,11.94,0,1,0,11.73,9.73,2,2,0,0,1,.22-1.36L90.54,47.68,71.66,58.17a2,2,0,0,1-1.35.22A11.87,11.87,0,0,0,68.1,58.19Z"/>
  <path class="b" d="M65,17H65a2,2,0,0,1-2-2.09l.39-12.62a2,2,0,1,1,4,.13L67.05,15A2,2,0,0,1,65,17Z"/>
  <path class="b" d="M34.66,30.48a2,2,0,0,1-1.47-.64l-8.65-9.2a2,2,0,1,1,2.95-2.77l8.65,9.2a2,2,0,0,1-.09,2.86A2.06,2.06,0,0,1,34.66,30.48Z"/>
  <path class="b" d="M49.29,21.08A2,2,0,0,1,47.5,20l-6-11.12A2,2,0,0,1,45.09,7l6,11.12a2,2,0,0,1-.82,2.74A2,2,0,0,1,49.29,21.08Z"/>
  <path class="b" d="M26.85,43.07A2,2,0,0,1,26,42.9L14.49,37.78a2,2,0,0,1,1.64-3.7l11.54,5.11a2,2,0,0,1-.82,3.88Z"/>
</svg>