<?xml version="1.0" encoding="utf-8"?><svg xmlns="http://www.w3.org/2000/svg" viewBox="0 0 129.3 128"><defs><style>.a{fill:#0b9dcc;}.b{fill:#001b41;}</style></defs><path class="a" d="M108.17,95.09a9.29,9.29,0,1,1,9.29-9.29A9.3,9.3,0,0,1,108.17,95.09Zm0-14.58a5.29,5.29,0,1,0,5.29,5.29A5.29,5.29,0,0,0,108.17,80.51Z"/><path class="a" d="M108.17,127.7h0a2,2,0,0,1-1.72-1c-.78-1.32-19.24-32.43-19.24-43.32a21,21,0,1,1,41.92,0c0,10.89-18.46,42-19.24,43.32A2,2,0,0,1,108.17,127.7Zm0-61.25a17,17,0,0,0-17,17c0,7.35,11,28,17,38.33,6-10.35,17-31,17-38.33A17,17,0,0,0,108.17,66.45Z"/><path class="b" d="M114.87,38.64a0,0,0,0,1,0,0l0-.06a59.1,59.1,0,1,0-55.28,80,58.48,58.48,0,0,0,26.36-6.19,2,2,0,0,0-1.78-3.58A54.52,54.52,0,0,1,72.74,113L67.4,102.76a2,2,0,0,0-1.72-1.07l-6.07-.18a1.82,1.82,0,0,0-.66.09l-5.76,1.79-6-2.63a2,2,0,0,0-.74-.17l-11.75-.37a2,2,0,0,0-1.31.44l-5.06,4a.76.76,0,0,0-.09.09A55.1,55.1,0,0,1,76.69,7.11L70,8.23,48.51,11.57l-14.79,2a1.93,1.93,0,0,0-.86.33l-7,4.74a2,2,0,0,0-.65.74L20.77,28a2,2,0,0,0,.05,1.93l4.47,7.54a2,2,0,0,0,2.2.92l8.93-2.23a2,2,0,0,0,.71-.34l7.75-5.74,18.39,7.51,9.49,9.48a.74.74,0,0,0,.13.12l8.65,7.26a2,2,0,0,0,2.33.17l12.92-8,14.94-4.9a56,56,0,0,1,2.63,12.17,2,2,0,1,0,4-.4A59.2,59.2,0,0,0,114.87,38.64Zm-79.56,65.6,10.62.33,6.33,2.78a1.94,1.94,0,0,0,1.4.08l6.16-1.92,4.57.14,4.28,8.18a56.3,56.3,0,0,1-9.12.75,54.74,54.74,0,0,1-27.76-7.53Zm60-61.33a2,2,0,0,0-.42.2L83,50.45l-7.48-6.28-9.7-9.7a2,2,0,0,0-.66-.44L45.35,25.94a2,2,0,0,0-2,.24l-8.33,6.18L28,34.14l-3.14-5.3,3.72-7.22,6.17-4.19,14.36-1.9,21.51-3.35L83.8,10a54.81,54.81,0,0,1,26.51,28Z"/><path class="b" d="M51.91,46.41a1.8,1.8,0,0,0-.51-.17L38.25,43.81A2,2,0,0,0,36,45.17l-1.35,4.24L21.32,55.92a2,2,0,0,0-.88.85L14.21,68.3a2,2,0,0,0,.56,2.55l12.92,9.71a1.91,1.91,0,0,0,.75.35L38.7,83.25l1.37,7.41a2,2,0,0,0,.77,1.23l6.46,4.86a2,2,0,0,0,1.2.4A2.4,2.4,0,0,0,49,97.1l9.46-2.23a2,2,0,0,0,1.5-1.57l3.92-20.43a1.22,1.22,0,0,0,0-.17l1.89-18.12a2,2,0,0,0-1.12-2Zm8,25.79L56.24,91.28,49,93l-5.09-3.83-1.47-7.93a2,2,0,0,0-1.52-1.59L29.75,77.11l-11.2-8.42,5.1-9.46,13.5-6.6a2,2,0,0,0,1-1.18l1.08-3.39,11.15,2.06,11.22,5.44Z"/></svg>