<?xml version="1.0" encoding="utf-8"?>
<!-- Generator: Adobe Illustrator 22.1.0, SVG Export Plug-In . SVG Version: 6.00 Build 0)  -->
<svg version="1.1" id="cleanup_2_-_compound_path" xmlns="http://www.w3.org/2000/svg" xmlns:xlink="http://www.w3.org/1999/xlink"
	 x="0px" y="0px" viewBox="0 0 168 128" style="enable-background:new 0 0 168 128;" xml:space="preserve">
<style type="text/css">
	.st0{fill:#0B9DCC;}
	.st1{fill:#001B41;}
</style>
<path class="st0" d="M86,86.2V75.5c0-1.1-0.9-2-2-2s-2,0.9-2,2v10.8c0,1.1,0.9,2,2,2S86,87.3,86,86.2z"/>
<path class="st0" d="M85.8,43.7l0.2-9.6c0-1.1-0.9-2-2-2c-1.1,0-2,0.9-2,2l-0.2,9.6c0,1.1,0.9,2,2,2C84.9,45.7,85.8,44.8,85.8,43.7
	L85.8,43.7z"/>
<path class="st0" d="M83.8,23.4c1.1,0,2-0.9,2-2l0,0l0.2-6.6c0-1.1-0.9-2-2-2c-1.1,0-2,0.9-2,2l-0.2,6.6
	C81.8,22.5,82.7,23.4,83.8,23.4"/>
<path class="st1" d="M137,72h-11c-1.1,0-2-0.9-2-2v-4H44v4c0,1.1-0.9,2-2,2H31c-1.1,0-2-0.9-2-2v-4h-8c-1.1,0-2-0.9-2-2V54
	c0-1.1,0.9-2,2-2h126c1.1,0,2,0.9,2,2v10c0,1.1-0.9,2-2,2h-8v4C139,71.1,138.1,72,137,72z M128,68h7v-4c0-1.1,0.9-2,2-2h8v-6H23v6h8
	c1.1,0,2,0.9,2,2v4h7v-4c0-1.1,0.9-2,2-2h84c1.1,0,2,0.9,2,2V68z"/>
<path class="st1" d="M106,48c-1,0-1.9-0.8-2-1.8L99.1,4H68.9L64,46.2c-0.1,1.1-1.1,1.9-2.2,1.8s-1.9-1.1-1.8-2.2l5.1-44
	c0.1-1,1-1.8,2-1.8h33.8c1,0,1.9,0.8,2,1.8l5.1,44c0.1,1.1-0.6,2.1-1.7,2.2c0,0,0,0,0,0H106z"/>
<path class="st1" d="M53,48h-0.2c-1.1-0.1-1.9-1.1-1.8-2.2c0,0,0,0,0,0l6-44c0.1-1.1,1.1-1.9,2.2-1.8s1.9,1.1,1.8,2.2l-6,44
	C54.9,47.2,54,48,53,48z"/>
<path class="st1" d="M116.2,128H51.8c-1.1,0-2-0.9-2-2c0-0.1,0-0.2,0-0.3l6.8-54c0.1-1.1,1.1-1.9,2.2-1.8s1.9,1.1,1.8,2.2L54.1,124
	h59.8l-6.6-51.8c-0.1-1.1,0.6-2.1,1.8-2.2s2.1,0.6,2.2,1.8l6.8,54c0.1,1.1-0.6,2.1-1.7,2.2C116.3,128,116.3,128,116.2,128L116.2,128
	z"/>
<path class="st1" d="M42.3,127.9c-0.1,0-0.2,0-0.3,0c-1.1-0.2-1.8-1.2-1.7-2.3l8-54c0.2-1.1,1.2-1.9,2.3-1.7s1.9,1.2,1.7,2.3l-8,54
	C44.2,127.2,43.3,127.9,42.3,127.9z"/>
<path class="st1" d="M113,46.2l-6-44c-0.1-1.1,0.7-2.1,1.8-2.2s2.1,0.7,2.2,1.8l6,44c0,0,0,0,0,0c0.1,1.1-0.7,2.1-1.8,2.2H115
	C114,48,113.1,47.2,113,46.2z"/>
<path class="st1" d="M123.7,126.2l-8-54c-0.2-1.1,0.6-2.1,1.7-2.3s2.1,0.6,2.3,1.7l8,54c0.2,1.1-0.6,2.1-1.7,2.3c-0.1,0-0.2,0-0.3,0
	C124.7,127.9,123.8,127.2,123.7,126.2z"/>
<path class="st0" d="M86,113.7V99c0-1.1-0.9-2-2-2s-2,0.9-2,2v14.8c0,1.1,0.9,2,2,2S86,114.8,86,113.7z"/>
</svg>
