<?xml version="1.0" encoding="utf-8"?>
<svg id="ICON" xmlns="http://www.w3.org/2000/svg" viewBox="0 0 128 128"><title>hand-mainboard</title><g id="hand-mainboard"><path d="M14,114a2,2,0,1,1-2-2A2,2,0,0,1,14,114Zm110-13.07-39.66,22.9a2,2,0,0,1-1,.26h-.13l-57.21-4V122a6,6,0,0,1-6,6H6a6,6,0,0,1-6-6V88a6,6,0,0,1,6-6H20a6,6,0,0,1,5.91,5A40.47,40.47,0,0,1,40,84c7.38,0,14.61,3.14,16.45,4H82a8,8,0,0,1,0,16H56a2,2,0,0,1,0-4H82a4,4,0,0,0,0-8H56a1.94,1.94,0,0,1-.89-.21C55,91.75,47.41,88,40,88c-5.76,0-11.63,2.26-14,3.29v24.84l56.87,3.93L122,97.46a4,4,0,0,0-4-6.92L95,103.73a2,2,0,1,1-2-3.46l23-13.2a8,8,0,0,1,8,13.86ZM22,88a2,2,0,0,0-2-2H6a2,2,0,0,0-2,2v34a2,2,0,0,0,2,2H20a2,2,0,0,0,2-2Z" style="fill:#001b41"/><path d="M84,30V14a2,2,0,0,1,4,0V30a2,2,0,0,1-4,0Zm-6,2a2,2,0,0,0,2-2V14a2,2,0,0,0-4,0V30A2,2,0,0,0,78,32ZM48,24V20H46a2,2,0,0,1,0-4h2V14a2,2,0,0,1,2-2h2V10a2,2,0,0,1,4,0v2h4V10a2,2,0,0,1,4,0v2h2a2,2,0,0,1,2,2v2h2a2,2,0,0,1,0,4H68v4h2a2,2,0,0,1,0,4H68v2a2,2,0,0,1-2,2H64v2a2,2,0,0,1-4,0V32H56v2a2,2,0,0,1-4,0V32H50a2,2,0,0,1-2-2V28H46a2,2,0,0,1,0-4Zm4,4H64V16H52ZM44,50V42a2,2,0,0,1,2-2H86a2,2,0,0,1,2,2v8a2,2,0,0,1-2,2H46A2,2,0,0,1,44,50Zm4-2H84V44H48ZM96,2V58a2,2,0,0,1-2,2H38a2,2,0,0,1-2-2V2a2,2,0,0,1,2-2H94A2,2,0,0,1,96,2ZM92,4H40V56H92Z" style="fill:#0b9dcc"/></g></svg>