<?xml version="1.0" encoding="utf-8"?>
<!-- Generator: Adobe Illustrator 22.1.0, SVG Export Plug-In . SVG Version: 6.00 Build 0)  -->
<svg version="1.1" id="cleanup_2_-_compound_path" xmlns="http://www.w3.org/2000/svg" xmlns:xlink="http://www.w3.org/1999/xlink"
	 x="0px" y="0px" viewBox="0 0 168 128" style="enable-background:new 0 0 168 128;" xml:space="preserve">
<style type="text/css">
	.st0{fill:none;stroke:#0B9DCC;stroke-width:4;stroke-linecap:round;stroke-linejoin:round;}
	.st1{fill:#001B41;}
	.st2{fill:none;stroke:#001B41;stroke-width:4;stroke-miterlimit:10;}
	.st3{fill:none;stroke:#0B9DCC;stroke-width:4;stroke-miterlimit:10;}
	.st4{fill:#0B9DCC;}
</style>
<path class="st0" d="M121,60h8.2c0-24.3-20.2-44-44.9-44c-19.7-0.1-37.1,12.6-43,31.4c2.6-6.9,7-13,12.8-17.5
	c16.3-12.8,39.5-11.6,54.5,2.7C116.2,39.7,120.7,49.6,121,60z"/>
<path class="st0" d="M48.2,92.9c9.1,9,21.3,14,34,14.1c15.6,0,30.1-7.6,40-21h-9.6c-9,11.3-22,17.8-35.6,17.8
	C66.5,103.7,56.3,99.9,48.2,92.9z"/>
<path class="st1" d="M85,4c33.1,0,60,26.9,60,60s-26.9,60-60,60S25,97.1,25,64C25,30.9,51.9,4,85,4 M85,0C49.7,0,21,28.7,21,64
	s28.7,64,64,64s64-28.7,64-64S120.3,0,85,0z"/>
<path class="st2" d="M79.3,61c-4.7,0-8.4,3.8-8.4,8.4s3.8,8.4,8.4,8.4s8.4-3.8,8.4-8.4c0-0.2,0-0.3,0-0.5v-0.2l0.1-0.1l11.6-17.3
	c0.6-0.6,0.6-1.4,0-2s-1.4-0.6-2,0l0,0L80,61.1h-0.2L79.3,61z"/>
<circle class="st1" cx="79" cy="70" r="2"/>
</svg>
