<?xml version="1.0" encoding="utf-8"?>
<svg id="ICON" xmlns="http://www.w3.org/2000/svg" viewBox="0 0 128 128"><title>slider-vertical</title><g id="slider-vertical"><path d="M18,127.83a2,2,0,0,1-2-2V98a2,2,0,0,1,4,0v27.83A2,2,0,0,1,18,127.83ZM20,57V2a2,2,0,0,0-4,0V57a2,2,0,0,0,4,0Zm92,68.83V114a2,2,0,0,0-4,0v11.83a2,2,0,0,0,4,0ZM112,73V2a2,2,0,0,0-4,0V73a2,2,0,0,0,4,0ZM66,125.83V55a2,2,0,0,0-4,0v70.83a2,2,0,0,0,4,0ZM66,14V2a2,2,0,0,0-4,0V14a2,2,0,0,0,4,0Z" style="fill:#001b41"/><path d="M64,56A18,18,0,1,1,82,38,18,18,0,0,1,64,56Zm0-32A14,14,0,1,0,78,38,14,14,0,0,0,64,24Zm46,84a18,18,0,1,1,18-18A18,18,0,0,1,110,108Zm0-32a14,14,0,1,0,14,14A14,14,0,0,0,110,76ZM18,92A18,18,0,1,1,36,74,18,18,0,0,1,18,92Zm0-32A14,14,0,1,0,32,74,14,14,0,0,0,18,60Z" style="fill:#0b9dcc"/></g></svg>