<?xml version="1.0" encoding="utf-8"?>
<!-- Generator: Adobe Illustrator 18.1.1, SVG Export Plug-In . SVG Version: 6.00 Build 0)  -->
<svg version="1.1" id="cleanup_2_-_compound_path" xmlns="http://www.w3.org/2000/svg" xmlns:xlink="http://www.w3.org/1999/xlink"
	 x="0px" y="0px" viewBox="60.7 33.7 162 216" enable-background="new 60.7 33.7 162 216" xml:space="preserve">
<title>Artboard 2</title>
<g id="shield-lock">
	<path fill="#001B41" d="M141.7,249.7c-0.5,0-1.1-0.1-1.6-0.4c-14.2-7.8-27.4-17.1-39.5-27.9c-26.1-23.3-39.9-48.5-39.9-73v-81
		c0-1.4,0.9-2.6,2.1-3.1L140.5,34c0.8-0.3,1.7-0.3,2.5,0l77.6,30.4c1.3,0.5,2.1,1.8,2.1,3.1v81c0,24.4-13.8,49.7-39.9,73
		c-12.1,10.7-25.3,20.1-39.5,27.9C142.8,249.6,142.3,249.7,141.7,249.7z M67.5,69.8v78.7c0,50.2,63.4,87.9,74.2,94
		c10.8-6.1,74.2-43.9,74.2-94V69.8l-74.2-29.1L67.5,69.8z"/>
	<path fill="#0B9DCC" d="M172.1,121.5h-3.4v-10.1c0-14.9-12.1-27-27-27s-27,12.1-27,27v10.1h-3.4c-1.9,0-3.4,1.5-3.4,3.4v47.2
		c0,1.9,1.5,3.4,3.4,3.4h60.7c1.9,0,3.4-1.5,3.4-3.4v-47.2C175.5,123,174,121.5,172.1,121.5z M121.5,111.4
		c0-11.2,9.1-20.2,20.2-20.2s20.2,9.1,20.2,20.2v10.1h-40.5V111.4z M168.7,168.7h-54v-40.5h54V168.7z"/>
	<path fill="#0B9DCC" d="M138.4,147.6v11.1c0,1.9,1.5,3.4,3.4,3.4s3.4-1.5,3.4-3.4v-11.1c3.2-1.9,4.3-6,2.5-9.2
		c-1.9-3.2-6-4.3-9.2-2.5s-4.3,6-2.5,9.2C136.5,146.1,137.3,147,138.4,147.6z"/>
</g>
</svg>
